<svg width="25" height="34" viewBox="0 0 25 34" fill="none" xmlns="http://www.w3.org/2000/svg">
<path d="M22.2575 23.1358L23.7361 21.842L22.2575 20.5481V18.7148H20.1621L18.6835 17.4209L17.2048 18.7148H15.1095V20.5481L13.6309 21.842L15.1095 23.1358V24.9692H17.2048L18.6835 26.263L20.1621 24.9692H22.2575V23.1358ZM18.6835 24.1874C17.2048 24.1874 16.0031 23.1358 16.0031 21.842C16.0031 20.5481 17.2048 19.4965 18.6835 19.4965C20.1621 19.4965 21.3639 20.5481 21.3639 21.842C21.3639 23.1358 20.1621 24.1874 18.6835 24.1874Z" fill="#000"/>
<path d="M24.9994 31.3163L21.8415 23.7373L18.6836 24.5795L21.052 33.8426L21.8415 29.6321L24.9994 31.3163Z" fill="#000"/>
<path d="M12.3691 31.3163L15.527 23.7373L18.6849 24.5795L16.3165 33.8426L15.527 29.6321L12.3691 31.3163Z" fill="#000"/>
<path d="M6.05273 4.78906H14.8948" stroke="#000" stroke-linecap="round"/>
<path d="M4.78906 8.5791H17.4206" stroke="#000" stroke-linecap="round"/>
<path d="M4.78906 12.3682H17.4206" stroke="#000" stroke-linecap="round"/>
<path d="M4.78906 16.1582H11.1049" stroke="#000" stroke-linecap="round"/>
<path d="M19.9474 16V2.26316C19.9474 1.56554 19.3819 1 18.6842 1H2.26316C1.56554 1 1 1.56554 1 2.26316V25C1 25.6976 1.56554 26.2632 2.26316 26.2632H12.8421" stroke="#000" stroke-linecap="round"/>
</svg>
