<svg xmlns="http://www.w3.org/2000/svg" viewBox="0 0 65.87 37.05"><defs><style>.cls-1{fill:#5a62a8;}.cls-2{fill:#e9e9e9;}</style></defs><g id="Isolation_Mode" data-name="Isolation Mode"><path class="cls-1" d="M3.29,30.2h0a.82.82,0,0,1,.82.82v6.59a.82.82,0,0,1-.82.82h0a.82.82,0,0,1-.82-.82V31A.82.82,0,0,1,3.29,30.2Z" transform="translate(-2.47 -18.67)"/><path class="cls-1" d="M37.87,30.2h0a.83.83,0,0,1,.83.82v6.59a.83.83,0,0,1-.83.82h0a.82.82,0,0,1-.82-.82V31A.82.82,0,0,1,37.87,30.2Z" transform="translate(-2.47 -18.67)"/><path class="cls-1" d="M8.23,27.73h0a.83.83,0,0,1,.83.82V40.08a.83.83,0,0,1-.83.82h0a.82.82,0,0,1-.82-.82V28.55A.82.82,0,0,1,8.23,27.73Z" transform="translate(-2.47 -18.67)"/><path class="cls-1" d="M42.81,27.73h0a.83.83,0,0,1,.83.82V40.08a.83.83,0,0,1-.83.82h0a.82.82,0,0,1-.82-.82V28.55A.82.82,0,0,1,42.81,27.73Z" transform="translate(-2.47 -18.67)"/><path class="cls-1" d="M13.17,25.26h0a.83.83,0,0,1,.83.82V42.55a.83.83,0,0,1-.83.82h0a.82.82,0,0,1-.82-.82V26.08A.82.82,0,0,1,13.17,25.26Z" transform="translate(-2.47 -18.67)"/><path class="cls-1" d="M47.76,25.26h0a.82.82,0,0,1,.82.82V42.55a.82.82,0,0,1-.82.82h0a.83.83,0,0,1-.83-.82V26.08A.83.83,0,0,1,47.76,25.26Z" transform="translate(-2.47 -18.67)"/><path class="cls-1" d="M18.11,22.79h0a.83.83,0,0,1,.83.82V54.9a.83.83,0,0,1-.83.82h0a.82.82,0,0,1-.82-.82V23.61A.82.82,0,0,1,18.11,22.79Z" transform="translate(-2.47 -18.67)"/><path class="cls-1" d="M52.7,18.67h0a.82.82,0,0,1,.82.82V45a.82.82,0,0,1-.82.82h0a.83.83,0,0,1-.83-.82V19.49A.83.83,0,0,1,52.7,18.67Z" transform="translate(-2.47 -18.67)"/><path class="cls-1" d="M23.05,22.79h0a.83.83,0,0,1,.83.82V45a.83.83,0,0,1-.83.82h0a.82.82,0,0,1-.82-.82V23.61A.82.82,0,0,1,23.05,22.79Z" transform="translate(-2.47 -18.67)"/><path class="cls-1" d="M57.64,25.26h0a.82.82,0,0,1,.82.82V42.55a.82.82,0,0,1-.82.82h0a.83.83,0,0,1-.83-.82V26.08A.83.83,0,0,1,57.64,25.26Z" transform="translate(-2.47 -18.67)"/><path class="cls-2" d="M28,27.73h0a.83.83,0,0,1,.83.82V40.08a.83.83,0,0,1-.83.82h0a.82.82,0,0,1-.82-.82V28.55A.82.82,0,0,1,28,27.73Z" transform="translate(-2.47 -18.67)"/><path class="cls-1" d="M62.58,27.73h0a.82.82,0,0,1,.82.82V40.08a.82.82,0,0,1-.82.82h0a.83.83,0,0,1-.83-.82V28.55A.83.83,0,0,1,62.58,27.73Z" transform="translate(-2.47 -18.67)"/><path class="cls-1" d="M32.93,30.2h0a.83.83,0,0,1,.83.82V42.55a.83.83,0,0,1-.83.82h0a.82.82,0,0,1-.82-.82V31A.82.82,0,0,1,32.93,30.2Z" transform="translate(-2.47 -18.67)"/><path class="cls-2" d="M67.52,30.2h0a.82.82,0,0,1,.82.82v6.59a.82.82,0,0,1-.82.82h0a.83.83,0,0,1-.83-.82V31A.83.83,0,0,1,67.52,30.2Z" transform="translate(-2.47 -18.67)"/></g></svg>