<svg width="1728" height="1022" viewBox="0 0 1728 1022" fill="none" xmlns="http://www.w3.org/2000/svg">
<g clip-path="url(#clip0_326_1429)">
<path d="M-3681.02 1257C-2814.27 1257 -1954.21 1101.14 -1105.71 1217.34C-734.28 1268.16 -336.634 1270.55 40.4483 1259.59C509.809 1245.84 980.969 1000.09 1428.74 1022.41C1762.64 1039.15 2008.88 1229.89 2351.78 1257C2719.87 1286.1 3111.09 1252.62 3481.23 1254.21C4391.16 1258.2 5301.35 1257 6211.54 1257C6211.54 1230.49 6211.54 1217.14 6211.54 1190.63C5302.12 1190.63 4394.5 1193.02 3485.85 1168.31C3110.83 1158.14 2723.72 1215.15 2351.78 1189.83C2009.66 1166.51 1782.17 970.59 1451.36 952.253C988.937 926.741 528.573 1200.4 41.4767 1203.78C-326.866 1206.18 -726.568 1186.84 -1089.26 1141.2C-1944.95 1033.77 -2808.62 1190.63 -3681.02 1190.63C-3681.02 1217.14 -3681.02 1230.49 -3681.02 1257Z" fill="url(#paint0_linear_326_1429)"/>
<path d="M-3681.02 1134.03C-2800.14 1134.03 -1930.56 974.779 -1064.32 1070.65C-707.29 1110.11 -315.556 1151.37 44.561 1160.74C554.535 1173.89 1001.02 861.57 1482.97 891.268C1809.42 911.398 2011.97 1113.3 2352.29 1131.04C2730.92 1150.77 3108.26 1062.28 3492.28 1084C4399.64 1135.42 5300.32 1134.03 6211.54 1134.03C6211.54 1107.52 6211.54 1094.17 6211.54 1067.66C5292.1 1067.66 4409.41 1067.06 3502.05 975.975C3100.8 935.714 2745.57 1072.24 2353.84 1060.28C2016.34 1049.92 1850.55 841.24 1530.53 818.319C1020.55 781.646 592.32 1155.36 50.4729 1113.7C-305.018 1086.39 -665.392 1015.04 -1025.51 983.151C-1908.2 905.419 -2786.26 1067.66 -3680.77 1067.66C-3681.02 1094.17 -3681.02 1107.52 -3681.02 1134.03Z" fill="url(#paint1_linear_326_1429)"/>
<path d="M-3681.02 1010.85C-2772.63 1010.85 -1887.38 846.62 -988.495 906.015C-611.927 930.929 -303.218 1028.79 55.8713 1074.83C623.937 1147.98 1041.63 710.689 1575.51 755.135C1890.39 781.245 2017.37 1004.28 2354.87 998.894C2762.28 992.516 3091.55 820.908 3511.05 878.908C3925.91 936.31 4264.18 1010.65 4693.96 1010.65C5199.82 1010.65 5705.68 1010.65 6211.28 1010.65C6211.28 984.145 6211.28 970.791 6211.28 944.283C5705.42 944.283 5199.56 944.283 4693.96 944.283C4240.79 944.283 3948.02 844.627 3522.1 764.902C3081.01 682.187 2780.53 910.599 2356.66 927.341C2021.48 940.496 1937.68 711.885 1629.75 681.39C1072.22 626.38 654.525 1144.19 62.8112 1029.99C-95.7845 999.293 -230.218 886.881 -388.557 850.407C-561.547 810.743 -765.896 823.5 -944.027 815.128C-1860.13 772.476 -2756.7 944.283 -3681.02 944.283C-3681.02 970.991 -3681.02 984.344 -3681.02 1010.85Z" fill="url(#paint2_linear_326_1429)"/>
<path d="M-3681.02 887.873C-3203.95 887.873 -2726.62 908.602 -2255.98 838.643C-1793.3 769.88 -1380.49 724.437 -908.298 739.386C-733.251 744.966 -529.416 727.826 -360.796 774.863C-205.028 818.114 -87.302 952.849 68.4661 991.117C672.775 1139.8 1102.29 554.623 1673.7 619.001C1977.01 653.283 2023.79 885.681 2358.46 866.746C2794.41 842.231 3073.82 566.383 3531.61 670.224C3968.07 769.282 4218.43 887.873 4694.47 887.873C5200.33 888.072 5706.19 887.873 6211.8 887.873C6211.8 861.365 6211.8 848.011 6211.8 821.502C5705.94 821.502 5200.08 821.701 4694.47 821.502C4192.72 821.303 3987.6 685.372 3540.35 566.183C3067.13 440.019 2807 765.296 2359.75 796.788C2023.79 820.506 2016.34 585.118 1716.63 546.651C1136.48 472.108 684.085 1124.86 73.35 942.485C-79.8477 896.643 -179.323 739.186 -333.292 688.96C-498.314 635.145 -700.864 656.87 -873.597 653.881C-1348.61 645.709 -1777.62 700.52 -2242.09 769.88C-2718.4 840.836 -3198.55 821.502 -3681.02 821.502C-3681.02 848.011 -3681.02 861.365 -3681.02 887.873Z" fill="url(#paint3_linear_326_1429)"/>
<path d="M-3681.02 764.698C-3195.72 764.698 -2713.77 783.433 -2235.41 711.88C-1769.39 642.32 -1330.88 582.327 -854.062 585.716C-683.128 586.912 -479.807 561.998 -317.356 619.599C-163.901 674.011 -77.5344 846.815 74.8922 897.041C686.912 1099.34 1159.1 404.342 1742.07 485.86C2039.73 527.517 2020.97 764.499 2359.24 738.389C2812.92 703.31 3062.5 346.142 3544.98 486.657C3743.93 544.458 3880.67 669.825 4083.48 723.839C4286.54 777.853 4479.58 764.698 4693.96 764.698C5199.82 764.897 5705.68 764.698 6211.28 764.698C6211.28 738.19 6211.28 724.836 6211.28 698.327C5705.42 698.327 5199.56 698.327 4693.96 698.327C4480.1 698.327 4286.03 712.478 4083.48 657.069C3878.36 600.863 3747.78 470.115 3547.55 408.926C3059.16 259.84 2816.51 636.54 2358.72 672.416C2017.11 699.324 2052.58 460.946 1755.18 416.898C1173.5 330.795 685.113 1050.31 74.1211 838.244C-77.5343 785.626 -155.161 601.86 -308.616 545.255C-468.24 486.458 -677.216 513.963 -845.579 513.764C-1323.17 513.764 -1766.56 575.351 -2233.36 645.111C-2712.74 716.664 -3194.7 698.327 -3681.02 698.327C-3681.02 725.035 -3681.02 738.19 -3681.02 764.698Z" fill="url(#paint4_linear_326_1429)"/>
<path d="M-3681.02 641.724C-3194.95 641.724 -2713.51 659.462 -2233.87 589.105C-1770.42 521.14 -1322.65 458.755 -848.921 454.769C-678.244 453.373 -474.666 425.868 -312.215 485.064C-157.732 541.27 -77.5344 724.04 75.1492 776.259C683.056 984.142 1166.3 279.972 1746.19 362.088C2043.84 404.343 2020.45 642.122 2360.01 615.614C2815.23 580.136 3059.16 222.171 3544.46 361.69C3997.37 491.841 4181.16 636.143 4695.76 639.531C5201.1 642.72 5706.71 641.923 6212.05 641.923C6212.05 615.414 6212.05 602.06 6212.05 575.552C5707.48 575.552 5203.67 577.146 4699.1 565.985C4217.14 555.222 3973.72 425.669 3534.95 318.439C3057.62 201.842 2807.26 519.147 2359.23 550.837C2022.25 574.755 2019.68 337.972 1720.23 298.508C1145.48 222.969 675.088 892.259 73.8639 692.747C-81.1331 641.325 -165.958 460.349 -322.754 405.539C-490.603 346.941 -685.956 377.037 -860.488 382.618C-1813.09 413.312 -2720.45 575.153 -3680.51 575.153C-3681.02 601.861 -3681.02 615.215 -3681.02 641.724Z" fill="url(#paint5_linear_326_1429)"/>
<path d="M-3681.02 518.553C-2723.54 518.553 -1823.89 377.64 -875.653 319.839C-697.265 308.877 -510.138 274.994 -336.12 332.595C-176.239 385.413 -86.0168 564.594 71.2936 615.22C663.778 805.762 1120.54 176.334 1688.61 245.097C1990.38 281.571 2022.25 516.959 2357.69 497.227C2795.44 471.316 3058.91 199.454 3523.64 289.544C3946.73 371.66 4254.16 481.88 4703.21 500.217C5206.24 520.945 5707.74 518.753 6211.8 518.753C6211.8 492.244 6211.8 478.89 6211.8 452.382C5270.76 452.382 4427.15 378.238 3508.48 261.441C3066.88 205.434 2774.87 418.299 2355.64 435.241C2020.45 448.794 1951.31 215.798 1645.17 182.912C1087.64 122.719 647.842 698.333 67.9523 519.749C-92.6996 470.12 -190.119 293.331 -353.856 243.303C-536.356 187.496 -712.945 226.76 -896.217 245.097C-1836.22 339.77 -2726.36 452.382 -3680.77 452.382C-3681.02 478.89 -3681.02 492.045 -3681.02 518.553Z" fill="url(#paint6_linear_326_1429)"/>
<path d="M-3681.02 395.573C-2738.19 395.573 -1833.91 343.553 -915.752 180.515C-733.252 148.027 -555.635 112.749 -370.564 165.168C-203.229 212.604 -99.383 387.401 64.3535 436.034C631.391 604.652 1058.08 76.6736 1605.07 129.89C1916.09 160.185 2018.4 380.027 2353.07 382.817C2747.88 386.006 3080.5 211.209 3494.08 239.711C4410.44 302.694 5286.96 395.573 6211.54 395.573C6211.54 369.064 6211.54 355.711 6211.54 329.202C5289.78 329.202 4397.84 218.783 3477.89 213.402C3096.43 211.209 2722.18 332.391 2350.75 321.23C2014.8 311.065 1875.48 95.2096 1559.57 67.9038C1025.95 21.6634 612.112 496.425 60.7549 338.968C-377.504 213.8 -401.409 -14.8109 -937.601 105.175C-1837.77 306.879 -2744.1 329.202 -3681.02 329.202C-3681.02 355.711 -3681.02 369.064 -3681.02 395.573Z" fill="url(#paint7_linear_326_1429)"/>
<path d="M-3681.02 272.401C-2763.89 272.401 -1817.97 296.518 -954.309 41.5971C-431.226 -112.671 -373.391 139.459 57.9274 258.847C596.176 407.734 1002.05 -26.9663 1524.36 14.4907C1844.89 39.8033 2011.71 251.473 2348.95 268.016C2706.76 285.356 3103.89 201.844 3465.55 187.494C4394.5 150.422 5279.24 272.401 6211.54 272.401C6211.54 245.892 6211.54 232.538 6211.54 206.03C5701.82 206.03 5227.84 214.799 4730.2 131.487C4281.15 56.3461 3906.63 113.35 3454.24 149.624C3105.43 177.528 2697.76 228.153 2347.92 204.435C2009.66 181.714 1816.87 -24.7739 1492.49 -48.2927C980.969 -85.5641 581.267 312.662 55.871 171.549C-378.018 54.951 -451.789 -202.56 -969.217 -31.1519C-1815.92 249.48 -2768.52 206.03 -3681.02 206.03C-3681.02 232.738 -3681.02 245.892 -3681.02 272.401Z" fill="url(#paint8_linear_326_1429)"/>
<path d="M-3681.02 149.423C-2770.83 149.423 -1813.35 202.839 -976.414 -91.5455C-477.75 -266.94 -366.965 -28.563 55.3571 104.378C555.049 261.636 984.311 -136.59 1475.78 -102.707C1801.97 -80.1848 2009.66 122.316 2347.67 148.626C2695.19 175.533 3103.63 143.045 3447.81 108.365C3911.26 61.7256 4269.32 -12.2192 4732 70.6947C5229.12 159.787 5700.28 149.822 6211.28 149.822C6211.28 123.313 6211.28 109.959 6211.28 83.4507C5700.28 83.4507 5229.38 94.0142 4732.26 3.72574C4264.7 -81.1813 3913.06 -2.85152 3445.76 47.3752C3102.35 84.4473 2695.19 109.361 2347.93 81.2582C2011.71 53.9524 1797.34 -144.363 1471.92 -165.889C982.255 -198.576 552.736 189.485 55.8713 35.815C-366.194 -94.7345 -483.663 -334.109 -978.728 -157.717C-1812.83 138.859 -2771.6 83.0519 -3681.02 83.0519C-3681.02 109.56 -3681.02 122.914 -3681.02 149.423Z" fill="url(#paint9_linear_326_1429)"/>
<path d="M-3681.02 26.2479C-2773.4 26.2479 -1819.52 82.4539 -984.382 -209.539C-491.888 -381.744 -367.479 -148.549 55.614 -20.9891C551.193 128.296 985.082 -245.215 1474.24 -213.325C1795.8 -192.398 2016.85 -3.84827 2347.93 24.2548C2695.96 53.753 3099.78 36.8115 3443.7 -1.8551C3912.55 -54.4735 4261.1 -135.394 4731.74 -51.8825C5228.87 36.4128 5700.54 26.2479 6211.28 26.2479C6211.28 -0.260677 6211.28 -13.6146 6211.28 -40.1232C5701.82 -40.1232 5228.09 -30.5562 4730.97 -114.865C4255.19 -195.587 3911.52 -108.686 3439.84 -52.2811C3093.61 -10.8241 2697.76 -8.83112 2347.67 -40.7211C2025.34 -70.02 1793.48 -240.831 1478.86 -260.562C990.223 -291.057 547.595 56.344 54.3291 -85.367C-371.077 -207.545 -508.596 -429.779 -996.721 -264.549C-1831.85 18.2754 -2777.77 -40.1232 -3681.02 -40.1232C-3681.02 -13.4153 -3681.02 -0.260677 -3681.02 26.2479Z" fill="url(#paint10_linear_326_1429)"/>
</g>
<defs>
<linearGradient id="paint0_linear_326_1429" x1="-863.798" y1="996.249" x2="-419.538" y2="2408.27" gradientUnits="userSpaceOnUse">
<stop stop-color="#384083"/>
<stop offset="1" stop-color="#5A62A8"/>
</linearGradient>
<linearGradient id="paint1_linear_326_1429" x1="-863.798" y1="865.33" x2="-349.179" y2="2373.09" gradientUnits="userSpaceOnUse">
<stop stop-color="#384083"/>
<stop offset="1" stop-color="#5A62A8"/>
</linearGradient>
<linearGradient id="paint2_linear_326_1429" x1="-863.871" y1="735.505" x2="-180.437" y2="2439.51" gradientUnits="userSpaceOnUse">
<stop stop-color="#384083"/>
<stop offset="1" stop-color="#5A62A8"/>
</linearGradient>
<linearGradient id="paint3_linear_326_1429" x1="-863.724" y1="605.843" x2="36.6186" y2="2511.14" gradientUnits="userSpaceOnUse">
<stop stop-color="#384083"/>
<stop offset="1" stop-color="#5A62A8"/>
</linearGradient>
<linearGradient id="paint4_linear_326_1429" x1="-863.871" y1="454.513" x2="292.467" y2="2544.01" gradientUnits="userSpaceOnUse">
<stop stop-color="#384083"/>
<stop offset="1" stop-color="#5A62A8"/>
</linearGradient>
<linearGradient id="paint5_linear_326_1429" x1="-863.651" y1="367.464" x2="173.948" y2="2377.75" gradientUnits="userSpaceOnUse">
<stop stop-color="#384083"/>
<stop offset="1" stop-color="#5A62A8"/>
</linearGradient>
<linearGradient id="paint6_linear_326_1429" x1="-863.724" y1="246.313" x2="20.2143" y2="2138.01" gradientUnits="userSpaceOnUse">
<stop stop-color="#384083"/>
<stop offset="1" stop-color="#5A62A8"/>
</linearGradient>
<linearGradient id="paint7_linear_326_1429" x1="-863.798" y1="122.776" x2="-183.667" y2="1823.35" gradientUnits="userSpaceOnUse">
<stop stop-color="#384083"/>
<stop offset="1" stop-color="#5A62A8"/>
</linearGradient>
<linearGradient id="paint8_linear_326_1429" x1="-863.798" y1="-34.0485" x2="-258.737" y2="1584.03" gradientUnits="userSpaceOnUse">
<stop stop-color="#384083"/>
<stop offset="1" stop-color="#5A62A8"/>
</linearGradient>
<linearGradient id="paint9_linear_326_1429" x1="-863.871" y1="-165.906" x2="-257.518" y2="1453.63" gradientUnits="userSpaceOnUse">
<stop stop-color="#384083"/>
<stop offset="1" stop-color="#5A62A8"/>
</linearGradient>
<linearGradient id="paint10_linear_326_1429" x1="-863.871" y1="-271.418" x2="-302.377" y2="1295.12" gradientUnits="userSpaceOnUse">
<stop stop-color="#384083"/>
<stop offset="1" stop-color="#5A62A8"/>
</linearGradient>
<clipPath id="clip0_326_1429">
<rect width="1728" height="1022" fill="white"/>
</clipPath>
</defs>
</svg>
