<svg width="43" height="43" viewBox="0 0 43 43" fill="none" xmlns="http://www.w3.org/2000/svg">
<path d="M21.6094 42.2188C32.9916 42.2188 42.2188 32.9916 42.2188 21.6094C42.2188 10.2271 32.9916 1 21.6094 1C10.2271 1 1 10.2271 1 21.6094C1 32.9916 10.2271 42.2188 21.6094 42.2188Z" stroke="white" stroke-width="0.7" stroke-miterlimit="10"/>
<path d="M21.6096 38.6345C31.0123 38.6345 38.6347 31.0121 38.6347 21.6094C38.6347 12.2066 31.0123 4.58423 21.6096 4.58423C12.2069 4.58423 4.58447 12.2066 4.58447 21.6094C4.58447 31.0121 12.2069 38.6345 21.6096 38.6345Z" stroke="white" stroke-width="0.7" stroke-miterlimit="10"/>
<path d="M21.6094 1V4.58424" stroke="white" stroke-width="0.7" stroke-miterlimit="10"/>
<path d="M38.6343 21.6094H42.2185" stroke="white" stroke-width="0.7" stroke-miterlimit="10"/>
<path d="M21.6094 38.6345V42.2188" stroke="white" stroke-width="0.7" stroke-miterlimit="10"/>
<path d="M1 21.6094H4.58424" stroke="white" stroke-width="0.7" stroke-miterlimit="10"/>
<path d="M36.1792 7.03943L33.6523 9.56632" stroke="white" stroke-width="0.7" stroke-miterlimit="10"/>
<path d="M33.6523 33.6523L36.1792 36.1792" stroke="white" stroke-width="0.7" stroke-miterlimit="10"/>
<path d="M9.56644 33.6523L7.03955 36.1792" stroke="white" stroke-width="0.7" stroke-miterlimit="10"/>
<path d="M7.03955 7.03943L9.56644 9.56632" stroke="white" stroke-width="0.7" stroke-miterlimit="10"/>
<path d="M1.69922 16.2689L5.15801 17.2008" stroke="white" stroke-width="0.7" stroke-miterlimit="10"/>
<path d="M26.0181 5.15777L26.95 1.69897" stroke="white" stroke-width="0.7" stroke-miterlimit="10"/>
<path d="M38.061 26.0179L41.5198 26.9498" stroke="white" stroke-width="0.7" stroke-miterlimit="10"/>
<path d="M16.269 41.5198L17.2009 38.061" stroke="white" stroke-width="0.7" stroke-miterlimit="10"/>
<path d="M11.3047 3.75989L13.0968 6.86025" stroke="white" stroke-width="0.7" stroke-miterlimit="10"/>
<path d="M36.3584 13.0968L39.4588 11.3047" stroke="white" stroke-width="0.7" stroke-miterlimit="10"/>
<path d="M30.1221 36.3585L31.9142 39.4589" stroke="white" stroke-width="0.7" stroke-miterlimit="10"/>
<path d="M3.75977 31.9141L6.86013 30.1219" stroke="white" stroke-width="0.7" stroke-miterlimit="10"/>
<path d="M3.75977 11.3047L6.86013 13.0968" stroke="white" stroke-width="0.7" stroke-miterlimit="10"/>
<path d="M30.1221 6.86025L31.9142 3.75989" stroke="white" stroke-width="0.7" stroke-miterlimit="10"/>
<path d="M36.3584 30.1219L39.4588 31.9141" stroke="white" stroke-width="0.7" stroke-miterlimit="10"/>
<path d="M11.3047 39.4589L13.0968 36.3585" stroke="white" stroke-width="0.7" stroke-miterlimit="10"/>
<path d="M16.269 1.69897L17.2009 5.15777" stroke="white" stroke-width="0.7" stroke-miterlimit="10"/>
<path d="M38.061 17.2008L41.5198 16.2689" stroke="white" stroke-width="0.7" stroke-miterlimit="10"/>
<path d="M26.0181 38.061L26.95 41.5198" stroke="white" stroke-width="0.7" stroke-miterlimit="10"/>
<path d="M1.69922 26.9498L5.15801 26.0179" stroke="white" stroke-width="0.7" stroke-miterlimit="10"/>
<path d="M14.1547 16.484V13.5482C14.1547 13.3755 14.2907 13.2458 14.4461 13.2458H20.9113V30.65H20.219C19.7094 30.65 19.2861 30.2281 19.2861 29.6952V17.7888C19.2861 17.2408 18.8479 16.7864 18.2948 16.7864H14.4461C14.2907 16.7864 14.1547 16.6566 14.1547 16.484Z" stroke="white" stroke-width="0.7"/>
<path d="M28.7925 13.2458C29.2996 13.2458 29.7222 13.6668 29.7222 14.2006V16.484C29.7222 16.6575 29.586 16.7864 29.4324 16.7864H25.4333C24.8803 16.7864 24.4435 17.2416 24.4435 17.7888V30.3476C24.4435 30.5211 24.3073 30.65 24.1537 30.65H22.3441V13.2458H28.7925Z" stroke="white" stroke-width="0.7"/>
</svg>
