<svg width="56" height="56" viewBox="0 0 56 56" fill="none" xmlns="http://www.w3.org/2000/svg">
<rect x="0.358643" y="0.478027" width="54.9971" height="54.9971" rx="27.4985" fill="#62979A"/>
<path d="M17.0968 18.0849L17.0968 21.9935C17.0968 22.4732 17.4809 22.8621 17.9548 22.8621L23.1025 22.8621C23.5763 22.8621 23.9604 23.2509 23.9604 23.7307L23.9604 39.5822C23.9604 40.5416 24.7287 41.3194 25.6763 41.3194H27.0705L27.0705 17.2163L17.9548 17.2163C17.4809 17.2163 17.0968 17.6052 17.0968 18.0849Z" fill="#C7C7C7"/>
<path d="M37.8753 18.9535C37.8753 17.9941 37.1089 17.2163 36.1636 17.2163L27.0704 17.2163L27.0704 41.3194H29.9589C30.4315 41.3194 30.8147 40.9305 30.8147 40.4508L30.8147 23.7307C30.8147 23.2509 31.1978 22.8621 31.6705 22.8621L37.0194 22.8621C37.4921 22.8621 37.8753 22.4732 37.8753 21.9935L37.8753 18.9535Z" fill="white"/>
</svg>
