<svg width="37" height="36" viewBox="0 0 37 36" fill="none" xmlns="http://www.w3.org/2000/svg">
<path d="M12.3185 15.5705L10.5 17.3926L12.3185 19.2146L14.1369 17.3926L12.3185 15.5705Z" stroke="white" stroke-width="0.7"/>
<path d="M25.4337 15.5705L23.6152 17.3926L25.4337 19.2146L27.2522 17.3926L25.4337 15.5705Z" stroke="white" stroke-width="0.7"/>
<path d="M19.0055 15.5705L17.187 17.3926L19.0055 19.2146L20.824 17.3926L19.0055 15.5705Z" stroke="white" stroke-width="0.7"/>
<path d="M15.3869 15.9578L13.7153 14.2826L18.9873 9L24.2593 14.2826L22.5877 15.9578L18.9873 12.3499L15.3869 15.9578Z" stroke="white" stroke-width="0.7"/>
<path d="M15.3869 19.1785L13.7153 20.8531L18.9873 26.1357L24.2593 20.8531L22.5877 19.1785L18.9873 22.7859L15.3869 19.1785Z" stroke="white" stroke-width="0.7"/>
<path d="M18.6094 35.5625C28.214 35.5625 36 27.7765 36 18.1719C36 8.5673 28.214 0.78125 18.6094 0.78125C9.0048 0.78125 1.21875 8.5673 1.21875 18.1719C1.21875 27.7765 9.0048 35.5625 18.6094 35.5625Z" stroke="white" stroke-width="0.7" stroke-miterlimit="10"/>
<path d="M18.6093 32.538C26.5435 32.538 32.9755 26.106 32.9755 18.1718C32.9755 10.2376 26.5435 3.80566 18.6093 3.80566C10.6751 3.80566 4.24316 10.2376 4.24316 18.1718C4.24316 26.106 10.6751 32.538 18.6093 32.538Z" stroke="white" stroke-width="0.7" stroke-miterlimit="10"/>
<path d="M18.6094 0.78125V3.80571" stroke="white" stroke-width="0.7" stroke-miterlimit="10"/>
<path d="M32.9756 18.1719H36" stroke="white" stroke-width="0.7" stroke-miterlimit="10"/>
<path d="M18.6094 32.5381V35.5625" stroke="white" stroke-width="0.7" stroke-miterlimit="10"/>
<path d="M1.21875 18.1719H4.24321" stroke="white" stroke-width="0.7" stroke-miterlimit="10"/>
<path d="M30.9037 5.87744L28.7715 8.00968" stroke="white" stroke-width="0.7" stroke-miterlimit="10"/>
<path d="M28.7715 28.334L30.9037 30.4662" stroke="white" stroke-width="0.7" stroke-miterlimit="10"/>
<path d="M8.44718 28.334L6.31494 30.4662" stroke="white" stroke-width="0.7" stroke-miterlimit="10"/>
<path d="M6.31494 5.87744L8.44718 8.00968" stroke="white" stroke-width="0.7" stroke-miterlimit="10"/>
<path d="M1.80859 13.6655L4.72719 14.4519" stroke="white" stroke-width="0.7" stroke-miterlimit="10"/>
<path d="M22.3296 4.28969L23.116 1.37109" stroke="white" stroke-width="0.7" stroke-miterlimit="10"/>
<path d="M32.4917 21.892L35.4103 22.6783" stroke="white" stroke-width="0.7" stroke-miterlimit="10"/>
<path d="M14.103 34.9727L14.8894 32.0541" stroke="white" stroke-width="0.7" stroke-miterlimit="10"/>
<path d="M9.91406 3.11011L11.4263 5.72626" stroke="white" stroke-width="0.7" stroke-miterlimit="10"/>
<path d="M31.0547 10.9888L33.6708 9.47656" stroke="white" stroke-width="0.7" stroke-miterlimit="10"/>
<path d="M25.7925 30.6176L27.3047 33.2337" stroke="white" stroke-width="0.7" stroke-miterlimit="10"/>
<path d="M3.54736 26.8672L6.16352 25.355" stroke="white" stroke-width="0.7" stroke-miterlimit="10"/>
<path d="M3.54736 9.47656L6.16352 10.9888" stroke="white" stroke-width="0.7" stroke-miterlimit="10"/>
<path d="M25.7925 5.72626L27.3047 3.11011" stroke="white" stroke-width="0.7" stroke-miterlimit="10"/>
<path d="M31.0547 25.355L33.6708 26.8672" stroke="white" stroke-width="0.7" stroke-miterlimit="10"/>
<path d="M9.91406 33.2337L11.4263 30.6176" stroke="white" stroke-width="0.7" stroke-miterlimit="10"/>
<path d="M14.103 1.37109L14.8894 4.28969" stroke="white" stroke-width="0.7" stroke-miterlimit="10"/>
<path d="M32.4917 14.4519L35.4103 13.6655" stroke="white" stroke-width="0.7" stroke-miterlimit="10"/>
<path d="M22.3296 32.0541L23.116 34.9727" stroke="white" stroke-width="0.7" stroke-miterlimit="10"/>
<path d="M1.80859 22.6783L4.72719 21.892" stroke="white" stroke-width="0.7" stroke-miterlimit="10"/>
</svg>
