<svg width="24" height="22" viewBox="0 0 24 22" fill="none" xmlns="http://www.w3.org/2000/svg">
<path d="M23 11.4697H19.1291C17.5258 11.4697 16.226 12.7695 16.226 14.3729C16.226 15.9763 17.5257 17.2761 19.1291 17.2761H23V11.4697Z" stroke="black" stroke-miterlimit="10"/>
<path d="M19.1291 15.3407C19.6636 15.3407 20.0968 14.9075 20.0968 14.373C20.0968 13.8385 19.6636 13.4053 19.1291 13.4053C18.5946 13.4053 18.1614 13.8385 18.1614 14.373C18.1614 14.9075 18.5946 15.3407 19.1291 15.3407Z" stroke="black" stroke-miterlimit="10"/>
<path d="M3.82937 7.59844C3.5049 6.89802 3.36204 6.12716 3.41398 5.35699C3.46592 4.58681 3.71098 3.84211 4.12656 3.1916C4.54213 2.54109 5.11484 2.0057 5.79184 1.63484C6.46884 1.26398 7.22834 1.06958 8.00027 1.06958C8.77219 1.06958 9.53169 1.26398 10.2087 1.63484C10.8857 2.0057 11.4584 2.54109 11.874 3.1916C12.2896 3.84211 12.5346 4.58681 12.5866 5.35699C12.6385 6.12716 12.4956 6.89802 12.1712 7.59844" stroke="black" stroke-miterlimit="10"/>
<path d="M7.26461 7.59859L6.55817 6.36958L7.1388 5.66314L8.00008 6.72764L8.86136 5.66314L9.44199 6.36958L8.73555 7.59859H7.26461ZM8.00008 2.45996L6.55817 4.9567L8.00008 6.72764L9.44199 4.9567L8.00008 2.45996Z" stroke="black" stroke-miterlimit="10"/>
<path d="M21 7.59839H2.74231C1.63774 7.59839 0.74231 8.49382 0.74231 9.59839V19.1466C0.74231 20.2511 1.63774 21.1466 2.74231 21.1466H21C22.1046 21.1466 23 20.2511 23 19.1466V9.59839C23 8.49382 22.1046 7.59839 21 7.59839Z" stroke="black" stroke-miterlimit="10"/>
<path d="M8.48415 11.4694C9.01861 11.4694 9.45187 11.0361 9.45187 10.5017C9.45187 9.9672 9.01861 9.53394 8.48415 9.53394C7.94968 9.53394 7.51642 9.9672 7.51642 10.5017C7.51642 11.0361 7.94968 11.4694 8.48415 11.4694Z" stroke="black" stroke-miterlimit="10"/>
<path d="M11.3873 15.3407C11.9218 15.3407 12.3551 14.9075 12.3551 14.373C12.3551 13.8385 11.9218 13.4053 11.3873 13.4053C10.8529 13.4053 10.4196 13.8385 10.4196 14.373C10.4196 14.9075 10.8529 15.3407 11.3873 15.3407Z" stroke="black" stroke-miterlimit="10"/>
<path d="M8.48415 19.2116C9.01861 19.2116 9.45187 18.7783 9.45187 18.2438C9.45187 17.7094 9.01861 17.2761 8.48415 17.2761C7.94968 17.2761 7.51642 17.7094 7.51642 18.2438C7.51642 18.7783 7.94968 19.2116 8.48415 19.2116Z" stroke="black" stroke-miterlimit="10"/>
<path d="M10.4196 14.373H0.74231" stroke="black" stroke-miterlimit="10"/>
<path d="M7.5164 10.502L5.58094 12.4374H0.74231" stroke="black" stroke-miterlimit="10"/>
<path d="M7.5164 18.2438L5.58094 16.3083H0.74231" stroke="black" stroke-miterlimit="10"/>
<path d="M13.4777 6.24344H16.5938M14.4745 3.97896V7.59826M15.0358 3.01123V3.97896M16.4583 3.01123V3.97896M17.6389 6.96923C17.6592 6.73813 17.9807 7.18298 17.8906 6.96923C17.7875 6.74515 17.6203 6.55663 17.4102 6.42746C17.2001 6.29828 16.9564 6.23425 16.7099 6.24344H16.5067C16.807 6.24344 17.095 6.12415 17.3073 5.91181C17.5197 5.69948 17.6389 5.41149 17.6389 5.1112C17.6389 4.81091 17.5197 4.52292 17.3073 4.31058C17.095 4.09825 16.807 3.97896 16.5067 3.97896H13.4777L17.6389 6.96923Z" stroke="black" stroke-miterlimit="10"/>
<path d="M12.1036 3.58277C12.7544 2.74274 13.6762 2.15414 14.712 1.9171C15.7479 1.68006 16.8339 1.80923 17.7852 2.28262C18.7366 2.75602 19.4945 3.5444 19.9301 4.51364C20.3657 5.48288 20.4521 6.57311 20.1745 7.59884" stroke="black" stroke-miterlimit="10"/>
<path d="M10.1101 1.57937C10.3768 1.30808 10.7035 1.10324 11.0639 0.981341C11.4243 0.859442 11.8082 0.823895 12.1849 0.877564C12.5615 0.931234 12.9203 1.07262 13.2322 1.29033C13.5442 1.50804 13.8007 1.79598 13.981 2.13097" stroke="black" stroke-miterlimit="10"/>
<path d="M20.3387 5.67261H20.5807" stroke="black" stroke-miterlimit="10"/>
<path d="M2.67758 7.59829C2.51478 7.59803 2.35468 7.5567 2.2121 7.47813C2.06951 7.39955 1.94906 7.28628 1.86188 7.14879C1.7747 7.0113 1.72361 6.85404 1.71335 6.69156C1.70309 6.52909 1.73398 6.36665 1.80317 6.21929C1.87236 6.07192 1.97761 5.94439 2.10918 5.84851C2.24074 5.75262 2.39437 5.69147 2.55584 5.67073C2.71732 5.64999 2.88141 5.67031 3.03294 5.72983C3.18447 5.78935 3.31854 5.88613 3.42273 6.01122" stroke="black" stroke-miterlimit="10"/>
</svg>
