<svg width="23" height="23" viewBox="0 0 23 23" fill="none" xmlns="http://www.w3.org/2000/svg">
<path d="M9.22222 12.2778H1C0.723858 12.2778 0.5 12.0539 0.5 11.7778V1C0.5 0.723857 0.723857 0.5 0.999999 0.5H9.22222C9.49836 0.5 9.72222 0.723858 9.72222 1V11.7778C9.72222 12.0539 9.49837 12.2778 9.22222 12.2778ZM9.22222 22.5H1C0.723857 22.5 0.5 22.2761 0.5 22V16.3333C0.5 16.0572 0.723857 15.8333 0.999999 15.8333H9.22222C9.49837 15.8333 9.72222 16.0572 9.72222 16.3333V22C9.72222 22.2761 9.49837 22.5 9.22222 22.5ZM22 22.5H13.7778C13.5016 22.5 13.2778 22.2761 13.2778 22V11.2222C13.2778 10.9461 13.5016 10.7222 13.7778 10.7222H22C22.2761 10.7222 22.5 10.9461 22.5 11.2222V22C22.5 22.2761 22.2761 22.5 22 22.5ZM13.2778 6.66667V1C13.2778 0.723857 13.5016 0.5 13.7778 0.5H22C22.2761 0.5 22.5 0.723857 22.5 0.999999V6.66667C22.5 6.94281 22.2761 7.16667 22 7.16667H13.7778C13.5016 7.16667 13.2778 6.94281 13.2778 6.66667Z" stroke="black"/>
</svg>
