<svg width="37" height="37" viewBox="0 0 37 37" fill="none" xmlns="http://www.w3.org/2000/svg">
<path d="M18.6094 36C28.214 36 36 28.214 36 18.6094C36 9.0048 28.214 1.21875 18.6094 1.21875C9.0048 1.21875 1.21875 9.0048 1.21875 18.6094C1.21875 28.214 9.0048 36 18.6094 36Z" stroke="white" stroke-width="0.7" stroke-miterlimit="10"/>
<path d="M18.6093 32.9755C26.5435 32.9755 32.9755 26.5435 32.9755 18.6093C32.9755 10.6751 26.5435 4.24316 18.6093 4.24316C10.6751 4.24316 4.24316 10.6751 4.24316 18.6093C4.24316 26.5435 10.6751 32.9755 18.6093 32.9755Z" stroke="white" stroke-width="0.7" stroke-miterlimit="10"/>
<path d="M18.6094 1.21875V4.24321" stroke="white" stroke-width="0.7" stroke-miterlimit="10"/>
<path d="M32.9756 18.6094H36" stroke="white" stroke-width="0.7" stroke-miterlimit="10"/>
<path d="M18.6094 32.9756V36" stroke="white" stroke-width="0.7" stroke-miterlimit="10"/>
<path d="M1.21875 18.6094H4.24321" stroke="white" stroke-width="0.7" stroke-miterlimit="10"/>
<path d="M30.9037 6.31494L28.7715 8.44718" stroke="white" stroke-width="0.7" stroke-miterlimit="10"/>
<path d="M28.7715 28.7715L30.9037 30.9037" stroke="white" stroke-width="0.7" stroke-miterlimit="10"/>
<path d="M8.44718 28.7715L6.31494 30.9037" stroke="white" stroke-width="0.7" stroke-miterlimit="10"/>
<path d="M6.31494 6.31494L8.44718 8.44718" stroke="white" stroke-width="0.7" stroke-miterlimit="10"/>
<path d="M1.80859 14.103L4.72719 14.8894" stroke="white" stroke-width="0.7" stroke-miterlimit="10"/>
<path d="M22.3296 4.72719L23.116 1.80859" stroke="white" stroke-width="0.7" stroke-miterlimit="10"/>
<path d="M32.4917 22.3295L35.4103 23.1158" stroke="white" stroke-width="0.7" stroke-miterlimit="10"/>
<path d="M14.103 35.4102L14.8894 32.4916" stroke="white" stroke-width="0.7" stroke-miterlimit="10"/>
<path d="M9.91406 3.54761L11.4263 6.16376" stroke="white" stroke-width="0.7" stroke-miterlimit="10"/>
<path d="M31.0547 11.4263L33.6708 9.91406" stroke="white" stroke-width="0.7" stroke-miterlimit="10"/>
<path d="M25.7925 31.0551L27.3047 33.6712" stroke="white" stroke-width="0.7" stroke-miterlimit="10"/>
<path d="M3.54736 27.3047L6.16352 25.7925" stroke="white" stroke-width="0.7" stroke-miterlimit="10"/>
<path d="M3.54736 9.91406L6.16352 11.4263" stroke="white" stroke-width="0.7" stroke-miterlimit="10"/>
<path d="M25.7925 6.16376L27.3047 3.54761" stroke="white" stroke-width="0.7" stroke-miterlimit="10"/>
<path d="M31.0547 25.7925L33.6708 27.3047" stroke="white" stroke-width="0.7" stroke-miterlimit="10"/>
<path d="M9.91406 33.6712L11.4263 31.0551" stroke="white" stroke-width="0.7" stroke-miterlimit="10"/>
<path d="M14.103 1.80859L14.8894 4.72719" stroke="white" stroke-width="0.7" stroke-miterlimit="10"/>
<path d="M32.4917 14.8894L35.4103 14.103" stroke="white" stroke-width="0.7" stroke-miterlimit="10"/>
<path d="M22.3296 32.4916L23.116 35.4102" stroke="white" stroke-width="0.7" stroke-miterlimit="10"/>
<path d="M1.80859 23.1158L4.72719 22.3295" stroke="white" stroke-width="0.7" stroke-miterlimit="10"/>
<path d="M19 20.9952L16.5887 18L15 19.992L19 27L23 19.992L21.4113 18L19 20.9952Z" stroke="white" stroke-miterlimit="10"/>
<path d="M19 9L15 16.0108L19 21L23 16.0108L19 9Z" stroke="white" stroke-miterlimit="10"/>
</svg>
