<svg xmlns="http://www.w3.org/2000/svg" viewBox="0 0 52 40.89"><defs><style>.cls-1{fill:#5a62a8;stroke:#5a62a8;}.cls-2{fill:#fff;}</style></defs><g id="Isolation_Mode" data-name="Isolation Mode"><path class="cls-1" d="M60.48,31.66a25.5,25.5,0,0,1-51,.1,4.33,4.33,0,0,1,2.43-2.16c1.4-.54,3.47-.64,6.39.52a6.88,6.88,0,0,0,5.36.06,10.75,10.75,0,0,0,4-3.14,26.16,26.16,0,0,0,2.69-4.1c.33-.61.62-1.18.88-1.67l0-.11c.27-.53.49-.95.67-1.24a5.63,5.63,0,0,1,3.84-2.58c1.75-.28,4,.26,6.38,2.67a10.2,10.2,0,0,0,8.49,3.21,10.78,10.78,0,0,0,6.8-3.68A25.38,25.38,0,0,1,60.48,31.66Z" transform="translate(-8.98 -16.77)"/><path class="cls-2" d="M41.74,39.5a3.21,3.21,0,0,1-1.16,2.55,6.06,6.06,0,0,1-3.21,1.24v2.76h-.95V43.33a15,15,0,0,1-2.36-.25,9.39,9.39,0,0,1-2-.6V41.27a10.68,10.68,0,0,0,2.1.72,10.09,10.09,0,0,0,2.27.29v-6a11.53,11.53,0,0,1-2.52-1,3.32,3.32,0,0,1-1.2-1.22,3.6,3.6,0,0,1-.37-1.71,3.15,3.15,0,0,1,1.1-2.44,5.27,5.27,0,0,1,3-1.23V26.45h.95v2.22a12.29,12.29,0,0,1,4.11.85l-.39,1.05a10.8,10.8,0,0,0-3.72-.84v5.69a8.85,8.85,0,0,1,3.43,1.69A3.18,3.18,0,0,1,41.74,39.5Zm-1.29,0a2.1,2.1,0,0,0-.74-1.65,6.21,6.21,0,0,0-2.34-1.12v5.52a4,4,0,0,0,2.25-.88A2.38,2.38,0,0,0,40.45,39.46Zm-6.84-7.09A2.21,2.21,0,0,0,34.27,34a5.36,5.36,0,0,0,2.15,1.09V29.8a3.58,3.58,0,0,0-2.11.89A2.29,2.29,0,0,0,33.61,32.37Z" transform="translate(-8.98 -16.77)"/></g></svg>