<svg width="25" height="27" viewBox="0 0 25 27" fill="none" xmlns="http://www.w3.org/2000/svg">
<path d="M12.7284 18.4202L12.7284 18.4201L12.7369 18.4243C12.7891 18.4497 12.8567 18.4467 12.9175 18.3981C12.918 18.3977 12.9184 18.3974 12.9189 18.397L23.5649 9.59048L23.5662 9.58938C23.603 9.55914 23.626 9.51447 23.626 9.45786C23.626 9.41387 23.603 9.36112 23.5607 9.32633L23.5597 9.32554L12.9154 0.537945L12.9137 0.536473C12.8693 0.499467 12.7961 0.486069 12.7284 0.517572C12.6739 0.542908 12.6319 0.60451 12.6319 0.675762L12.6319 5.2927L12.6319 5.77496L12.1499 5.79237C9.16161 5.9003 6.96153 6.54638 5.33719 7.4956C3.71645 8.44271 2.64244 9.70692 1.92656 11.0966C0.481446 13.9017 0.491652 17.2155 0.505533 19.4765L0.505533 19.4796L0.505533 20.014C0.505533 20.0931 0.559134 20.1611 0.632378 20.1801L0.641525 20.1825L0.647604 20.1843C0.648398 20.1844 0.649649 20.1846 0.651386 20.1848C0.657471 20.1856 0.666348 20.1861 0.677689 20.1861C0.745331 20.1861 0.801886 20.1518 0.831711 20.0989L0.832131 20.0982C2.65539 16.8788 4.35889 15.1192 6.21176 14.1835C8.05762 13.2514 9.98419 13.1753 12.1299 13.1671L12.6319 13.1652L12.6319 13.6671L12.6319 18.262C12.6319 18.3364 12.6719 18.3939 12.7284 18.4202Z" stroke="#000"/>
<path d="M0.000166699 26.3283L0.000166958 23.3642C0.000166991 22.9895 0.303187 22.6865 0.677831 22.6865C1.05247 22.6865 1.3555 22.9895 1.3555 23.3642L1.3555 25.6561L22.6386 25.6561L22.6386 13.8769C22.6386 13.5022 22.9416 13.1992 23.3162 13.1992C23.6909 13.1992 23.9939 13.5022 23.9939 13.8769L23.9939 26.3228C23.9939 26.6974 23.6909 27.0004 23.3162 27.0004L0.67783 27.0004C0.303187 27.0004 0.000166667 26.6974 0.000166699 26.3283Z" fill="#000"/>
</svg>
