<svg width="21" height="23" viewBox="0 0 21 23" fill="none" xmlns="http://www.w3.org/2000/svg">
<path d="M8 8.5H16.0417V7.5H8V8.5ZM4.375 13H16.0417V12H4.375V13ZM4.375 17.5H16.0417V16.5H4.375V17.5ZM1.048 21.2649L0.5 21.8051L0.5 1.19493L1.048 1.7351C1.43733 2.11887 2.06267 2.11887 2.452 1.7351L3.5 0.702074L4.548 1.7351C4.93733 2.11887 5.56267 2.11887 5.952 1.7351L7 0.702074L8.048 1.7351C8.43733 2.11887 9.06267 2.11887 9.452 1.7351L10.5 0.702074L11.548 1.7351C11.9373 2.11887 12.5627 2.11887 12.952 1.7351L14 0.702074L15.048 1.7351C15.4373 2.11887 16.0627 2.11887 16.452 1.7351L17.5 0.702074L18.548 1.7351C18.9373 2.11887 19.5627 2.11887 19.952 1.7351L20.5 1.19493V21.8051L19.952 21.2649C19.5627 20.8811 18.9373 20.8811 18.548 21.2649L17.5 22.2979L16.452 21.2649C16.0627 20.8811 15.4373 20.8811 15.048 21.2649L14 22.2979L12.952 21.2649C12.5627 20.8811 11.9373 20.8811 11.548 21.2649L10.5 22.2979L9.452 21.2649C9.06267 20.8811 8.43733 20.8811 8.048 21.2649L7 22.2979L5.952 21.2649C5.56267 20.8811 4.93733 20.8811 4.548 21.2649L3.5 22.2979L2.452 21.2649C2.06267 20.8811 1.43733 20.8811 1.048 21.2649Z" stroke="black"/>
<path d="M5.33496 4.2168V5.25928H4.82227V4.2168H5.33496ZM5.27344 9.79834V10.7109H4.76416V9.79834H5.27344ZM5.95703 8.71826C5.95703 8.58154 5.92627 8.4585 5.86475 8.34912C5.80322 8.23975 5.70182 8.13949 5.56055 8.04834C5.41927 7.95719 5.23014 7.87288 4.99316 7.79541C4.70605 7.70654 4.45768 7.59831 4.24805 7.4707C4.04069 7.3431 3.88005 7.18473 3.76611 6.99561C3.65446 6.80648 3.59863 6.57747 3.59863 6.30859C3.59863 6.02832 3.65902 5.78678 3.77979 5.58398C3.90055 5.38118 4.07145 5.2251 4.29248 5.11572C4.51351 5.00635 4.77327 4.95166 5.07178 4.95166C5.3042 4.95166 5.51156 4.98698 5.69385 5.05762C5.87614 5.12598 6.02995 5.22852 6.15527 5.36523C6.28288 5.50195 6.37972 5.66943 6.4458 5.86768C6.51416 6.06592 6.54834 6.29492 6.54834 6.55469H5.91943C5.91943 6.40202 5.9012 6.26188 5.86475 6.13428C5.82829 6.00667 5.7736 5.89616 5.70068 5.80273C5.62777 5.70703 5.5389 5.63411 5.43408 5.58398C5.32926 5.53158 5.2085 5.50537 5.07178 5.50537C4.88037 5.50537 4.72201 5.53841 4.59668 5.60449C4.47363 5.67057 4.38249 5.764 4.32324 5.88477C4.264 6.00326 4.23438 6.14111 4.23438 6.29834C4.23438 6.44417 4.264 6.57178 4.32324 6.68115C4.38249 6.79053 4.48275 6.88965 4.62402 6.97852C4.76758 7.0651 4.96468 7.15055 5.21533 7.23486C5.50928 7.32829 5.75879 7.4388 5.96387 7.56641C6.16895 7.69173 6.32503 7.84668 6.43213 8.03125C6.53923 8.21354 6.59277 8.44027 6.59277 8.71143C6.59277 9.00537 6.52669 9.25374 6.39453 9.45654C6.26237 9.65706 6.07666 9.80973 5.8374 9.91455C5.59814 10.0194 5.31787 10.0718 4.99658 10.0718C4.8029 10.0718 4.61149 10.0456 4.42236 9.99316C4.23324 9.94076 4.06234 9.85531 3.90967 9.73682C3.757 9.61605 3.63509 9.45768 3.54395 9.26172C3.4528 9.06348 3.40723 8.8208 3.40723 8.53369H4.04297C4.04297 8.72738 4.07031 8.88802 4.125 9.01562C4.18197 9.14095 4.25716 9.24121 4.35059 9.31641C4.44401 9.38932 4.54655 9.44173 4.6582 9.47363C4.77214 9.50326 4.88493 9.51807 4.99658 9.51807C5.20166 9.51807 5.37484 9.48617 5.51611 9.42236C5.65967 9.35628 5.76904 9.26286 5.84424 9.14209C5.91943 9.02132 5.95703 8.88005 5.95703 8.71826Z" fill="black"/>
</svg>
