<svg width="37" height="37" viewBox="0 0 37 37" fill="none" xmlns="http://www.w3.org/2000/svg">
<path d="M18.6094 35.7812C28.214 35.7812 36 27.9952 36 18.3906C36 8.78605 28.214 1 18.6094 1C9.0048 1 1.21875 8.78605 1.21875 18.3906C1.21875 27.9952 9.0048 35.7812 18.6094 35.7812Z" stroke="white" stroke-width="0.7" stroke-miterlimit="10"/>
<path d="M18.6093 32.7568C26.5435 32.7568 32.9755 26.3248 32.9755 18.3906C32.9755 10.4564 26.5435 4.02441 18.6093 4.02441C10.6751 4.02441 4.24316 10.4564 4.24316 18.3906C4.24316 26.3248 10.6751 32.7568 18.6093 32.7568Z" stroke="white" stroke-width="0.7" stroke-miterlimit="10"/>
<path d="M18.6094 1V4.02446" stroke="white" stroke-width="0.7" stroke-miterlimit="10"/>
<path d="M32.9756 18.3906H36" stroke="white" stroke-width="0.7" stroke-miterlimit="10"/>
<path d="M18.6094 32.7568V35.7813" stroke="white" stroke-width="0.7" stroke-miterlimit="10"/>
<path d="M1.21875 18.3906H4.24321" stroke="white" stroke-width="0.7" stroke-miterlimit="10"/>
<path d="M30.9037 6.09619L28.7715 8.22843" stroke="white" stroke-width="0.7" stroke-miterlimit="10"/>
<path d="M28.7715 28.5527L30.9037 30.685" stroke="white" stroke-width="0.7" stroke-miterlimit="10"/>
<path d="M8.44718 28.5527L6.31494 30.685" stroke="white" stroke-width="0.7" stroke-miterlimit="10"/>
<path d="M6.31494 6.09619L8.44718 8.22843" stroke="white" stroke-width="0.7" stroke-miterlimit="10"/>
<path d="M1.80859 13.8843L4.72719 14.6706" stroke="white" stroke-width="0.7" stroke-miterlimit="10"/>
<path d="M22.3296 4.50844L23.116 1.58984" stroke="white" stroke-width="0.7" stroke-miterlimit="10"/>
<path d="M32.4917 22.1106L35.4103 22.897" stroke="white" stroke-width="0.7" stroke-miterlimit="10"/>
<path d="M14.103 35.1916L14.8894 32.2729" stroke="white" stroke-width="0.7" stroke-miterlimit="10"/>
<path d="M9.91406 3.32886L11.4263 5.94501" stroke="white" stroke-width="0.7" stroke-miterlimit="10"/>
<path d="M31.0547 11.2075L33.6708 9.69531" stroke="white" stroke-width="0.7" stroke-miterlimit="10"/>
<path d="M25.7925 30.8362L27.3047 33.4523" stroke="white" stroke-width="0.7" stroke-miterlimit="10"/>
<path d="M3.54736 27.086L6.16352 25.5737" stroke="white" stroke-width="0.7" stroke-miterlimit="10"/>
<path d="M3.54736 9.69531L6.16352 11.2075" stroke="white" stroke-width="0.7" stroke-miterlimit="10"/>
<path d="M25.7925 5.94501L27.3047 3.32886" stroke="white" stroke-width="0.7" stroke-miterlimit="10"/>
<path d="M31.0547 25.5737L33.6708 27.086" stroke="white" stroke-width="0.7" stroke-miterlimit="10"/>
<path d="M9.91406 33.4523L11.4263 30.8362" stroke="white" stroke-width="0.7" stroke-miterlimit="10"/>
<path d="M14.103 1.58984L14.8894 4.50844" stroke="white" stroke-width="0.7" stroke-miterlimit="10"/>
<path d="M32.4917 14.6706L35.4103 13.8843" stroke="white" stroke-width="0.7" stroke-miterlimit="10"/>
<path d="M22.3296 32.2729L23.116 35.1916" stroke="white" stroke-width="0.7" stroke-miterlimit="10"/>
<path d="M1.80859 22.897L4.72719 22.1106" stroke="white" stroke-width="0.7" stroke-miterlimit="10"/>
<path d="M14.9229 20.1352L19.2024 9.4364L24.3378 11.1482L14.9229 20.1352ZM10.35 17.6512L17.4743 10.946L12.3714 22.4276C11.0876 21.2381 10.35 19.5623 10.35 17.7984V17.6512ZM25.4992 22.5244L20.006 17.489L25.5148 11.9802C28.5696 14.8036 28.5958 19.666 25.506 22.5182L25.4992 22.5244ZM19 25.6208L13.6405 23.3877L19 18.4748L24.3595 23.3877L19 25.6208Z" stroke="white" stroke-width="0.7"/>
</svg>
