<svg width="365" height="362" viewBox="0 0 365 362" fill="none" xmlns="http://www.w3.org/2000/svg">
<path d="M14.6237 196.986L22.7638 184.38L30.904 172.791L36.6134 161.768L44.3578 151.763L52.611 142.718L60.4685 134.408L65.0473 125.364L72.0003 117.845L74.0919 114.849L77.4836 109.931L80.4796 100.265L82.9104 99.6431L84.0975 95.2904L85.1715 86.8111L89.1285 76.1272L93.99 74.9966L99.869 74.6009L109.931 71.3788L118.75 67.8175L126.268 70.1351L134.634 67.7044L140.965 60.7514L146.844 51.085L152.723 38.0268L159.676 26.0427L167.986 25.5905L175.9 25.3644L183.645 22.3118L191.332 28.0778L198.455 36.3875L205.012 45.4321L212.135 50.9154L220.84 52.0459L228.585 47.5236L236.499 43.4536L245.487 46.5627L254.758 41.3055L264.085 45.4886L274.712 49.1065L282.4 47.6367L288.505 48.6542L294.667 49.9544L299.246 53.233L300.263 66.4608L302.751 70.9265L302.298 83.6455L303.712 88.1678L308.29 90.5985L309.308 100.435L310.156 110.214L310.495 120.05L309.817 130.169L309.421 139.948L310.721 149.332L314.056 150.745L317.787 152.271L320.331 161.372L323.044 163.125L323.384 172.735L326.04 174.431L326.662 184.21L327.227 185.736L327.058 187.432L325.871 196.759L326.38 198.116L325.475 207.556L323.384 215.923L314.678 225.759L307.103 229.49L305.464 230.733L302.298 233.786L294.328 237.517L283.248 239.947L273.525 243.283L260.184 244.357L245.713 244.131L231.807 243.622L218.353 242.887L205.352 241.643L193.311 241.304L181.666 242.096L169.682 243.791L156.737 246.222L142.831 248.483L129.094 248.822L118.806 244.639L107.726 242.322L96.7034 240.23L86.5282 237.686L76.0704 235.538L63.5776 234.408L53.1197 232.09L41.7575 230.055L28.4732 228.529L22.8203 224.402L22.4812 221.858L21.9724 218.127L21.2375 212.644L20.2766 210.1L19.5982 208.235L18.9199 206.935L18.185 205.408L18.0719 205.182L17.7328 204.334L16.15 200.547L15.0759 198.116L14.6237 196.986L13.8888 195.12V195.064L13.0974 192.972L11.6277 189.241L11.4015 188.902L7.10537 183.475L3.60059 178.444L5.91826 169.004L6.54008 166.517L6.25744 164.255L7.89677 157.472L8.00983 156.85L8.97081 153.006L17.9589 143.227L32.3737 135.935L42.888 128.868L51.8761 122.255L58.2073 115.132L63.4645 107.727L67.5911 99.7562L67.0823 87.8852L62.2774 70.757L63.5776 57.7553L71.1524 51.3676L77.0879 51.0284L84.154 52.159L91.955 54.3071L102.356 60.8644L111.344 57.8684L118.637 52.6678L124.516 44.245L129.32 31.526L134.747 17.8461L141.926 8.0666L149.953 7.6709L159.224 16.3198L167.986 25.5905L176.183 32.487L183.758 30.7911L191.332 38.1964L198.229 47.6367L205.578 52.9504L214.396 53.6853L220.84 52.0459L231.016 51.6502L237.743 49.8979L247.974 51.8764L255.662 48.8803L266.742 51.6502L274.486 60.073L278.5 72.9616L281.213 82.9672L282.118 84.8891L282.457 85.4544L284.944 86.8676L286.414 91.8987L287.375 93.4815L288.845 98.5691L289.071 99.417L289.579 101.169L290.54 104.505L291.219 105.409L293.084 108.688L295.571 109.536L298.341 120.615L297.324 133.108L298.567 143.849L298.624 144.244L298.737 144.527L300.037 148.258L302.411 154.759L307.951 165.443L308.008 177.087L311.399 188.845L315.809 201.338L318.522 214.396L318.239 215.357L316.996 219.654L314.678 225.759L310.552 237.291L307.442 249.783L305.916 263.52L300.885 275.73L293.197 286.018L287.318 290.993L283.983 293.706L283.644 294.045L282.457 294.498L270.812 299.868L257.301 300.942L253.627 298.455L242.887 301.846L240.23 300.829L238.025 300.037L228.415 305.803L220.162 315.3L211.287 324.684L201.338 331.637L190.88 335.82L180.422 339.551L175.504 336.103L164.99 335.707L159.959 332.994L150.01 329.941L146.618 328.019L143.792 326.832L141.135 325.532L139.609 323.893L136.556 319.201L135.426 317.505L124.346 317.674L123.159 316.431L123.046 316.261L122.141 315.244L121.18 314.283L119.428 312.304L117.506 310.439L116.884 309.817L115.81 308.63L115.075 307.951L114.001 306.821L112.249 305.125L108.631 301.959L107.274 300.716L106.709 300.094L106.37 299.585L102.356 293.311L93.3682 289.636L88.9589 282.287L77.7663 281.326L70.361 276.748L65.7822 268.494L64.8777 257.076L62.8427 246.505L63.5776 234.408L70.0218 220.332L73.4701 208.404L75.3921 197.325L77.201 186.358L78.9534 175.392L80.0839 164.199L81.158 152.554L81.4406 139.892L83.4191 127.173L87.998 115.415L92.0115 102.865L97.3817 91.0508L103.543 79.9146L112.814 75.4488L113.719 75.0531L124.176 80.593L133.843 78.4449L143 82.9672L152.045 86.6415L161.485 90.9377L171.208 95.46L181.383 98.5126L192.293 102.922L203.147 109.818L214.34 116.602L224.119 125.759L232.598 135.369L242.661 143.283L255.38 150.462L268.098 158.49L276.973 167.76L284.718 176.974L287.318 185.736L291.841 193.933L298.511 202.186L304.673 210.326L311.626 218.297L314.678 225.759L310.099 236.951L306.708 249.218L306.934 249.501L307.216 249.67L307.669 249.84L308.121 249.896H309.308L310.099 249.783L310.891 249.614L311.626 249.331L312.36 248.879L313.152 248.427L313.887 247.861L314.169 237.008L314.678 225.759L311.117 218.862L303.938 211.513L297.437 204.052L290.936 196.477L285.622 188.845L281.665 180.818L273.638 172.283L263.746 163.69L250.688 156.115L238.195 149.162L227.963 141.587L218.805 132.882L208.856 124.12L197.664 116.997L186.528 110.044L175.391 104.9L164.877 101.226L154.871 96.9297L144.64 91.3334L134.238 85.5109L124.176 80.593L114.68 85.3979L107.048 94.3294L101.621 106.087L97.834 118.863L92.916 130.338L88.0545 141.87L86.5282 154.476L84.9454 166.46L83.9279 178.105L83.2495 189.354L82.4016 200.377L81.6102 211.287L79.4621 222.819L76.0704 235.538L73.9223 248.314L74.7702 259.506L76.353 270.19L77.7663 281.326L85.1715 285.792L93.3682 289.636L99.1906 294.498L101.565 296.307L104.844 298.681L105.013 298.794L106.879 300.377L107.331 300.716L110.779 303.542L112.418 304.955L114.623 306.877L116.262 308.856L117.223 309.873L119.541 312.304L121.18 314.283L122.198 315.357M100.773 340.682L87.037 332.994L82.1755 325.475L100.773 340.682ZM21.2375 212.644L29.1516 199.303L35.0871 187.093L42.2097 175.618L49.9541 165.103L56.2288 155.211L61.5425 145.601L66.2909 136.217L69.0608 126.099L74.6006 118.863L21.2375 212.644Z" stroke="url(#paint0_linear_50_1387)" stroke-linecap="round" stroke-linejoin="round"/>
<path d="M277.2 263.068L262.728 266.12L248.2 268.042L235.481 271.264L224.063 276.409L212.587 282.175L200.603 288.506L187.601 292.406L174.43 294.667L161.372 295.798L148.71 296.194L135.821 297.946L123.441 298.342L111.005 298.794L102.356 293.311L98.6818 285.171L96.986 274.6L96.3642 263.237L95.5728 252.384L96.7033 240.23L97.8339 228.642L99.021 217.336L98.6818 206.822L98.06 195.968L99.0775 184.38L101.791 172.509L103.939 160.355L106.822 147.919L111.796 136.33L116.488 124.459L121.632 112.701L129.038 103.826L136.669 96.5342" stroke="url(#paint1_linear_50_1387)" stroke-linecap="round" stroke-linejoin="round"/>
<path d="M356.735 144.47L346.447 154.701L336.272 164.085L331.636 172.508L329.488 180.761L327.453 189.24L326.379 198.115L327.284 199.642L325.758 208.573L324.231 215.639L323.553 216.544L314.678 225.758L307.103 228.811L304.785 230.167L302.072 232.146L293.932 234.972L282.683 236.442L272.847 238.873L260.184 239.608L245.091 238.194L231.015 236.894L217.901 235.82L205.125 234.294L193.367 233.842L181.835 234.124L169.851 235.424L156.963 236.951L143.339 237.855L129.264 238.138L118.071 234.916L106.878 232.259L97.8337 228.641L88.7326 225.532L79.4619 222.819L70.0216 220.331L59.1116 218.353L47.6928 216.374L35.1999 214.509L21.2373 212.643L20.2763 210.382L19.8241 209.252L19.7676 209.195" stroke="url(#paint2_linear_50_1387)" stroke-linecap="round" stroke-linejoin="round"/>
<path d="M306.933 249.5L303.372 262.276L297.041 273.808L289.635 284.661L280.195 293.536L267.815 298.228L253.627 298.454L250.631 296.476L248.143 294.78L245.882 292.801M6.53955 166.516L10.8923 161.259L15.5276 155.606L20.5587 144.696L36.2171 137.347L48.9926 130.79L54.9847 132.712L60.468 134.408L66.2904 136.217L70.417 137.404L74.4871 138.478L77.7657 139.156L81.4401 139.891L88.054 141.87L97.2682 144.866L106.822 147.918L120.049 152.667L134.012 157.924L146.618 162.559L158.093 166.516L182.909 174.939L194.611 179.687L205.521 183.984L216.883 188.223L228.528 192.463L241.812 197.211L265.385 206.03L278.669 210.891L286.696 214.17L293.31 216.996L301.054 220.162L308.629 223.61L314.678 225.758L319.2 231.355L321.913 235.481L323.1 239.212L322.648 241.304L321.97 244.808L321.461 248.144L319.709 250.292L319.313 250.744L318.691 252.044V252.157L317.73 254.418L317.391 255.379L316.713 257.132L316.43 258.262L315.865 260.184L316.091 265.95L313.773 268.833L312.812 270.133L312.134 271.942L311.625 273.525L309.986 276.86L308.573 279.008L307.498 281.043L307.329 289.184L305.35 292.406L305.011 292.971L304.842 293.423L304.05 294.78L303.768 295.232L303.598 295.458L301.846 298.511L301.45 299.133L301.337 299.302L300.602 300.489L298.906 303.372L298.454 304.107L297.776 305.181L297.606 305.52L295.232 310.325L294.497 311.117L289.748 315.469L286.696 319.37L284.548 323.949L283.926 325.362L278.669 327.51L272.79 328.188L272.111 328.471L270.642 329.432L269.963 330.223L261.428 336.442L6.53955 166.516Z" stroke="url(#paint3_linear_50_1387)" stroke-linecap="round" stroke-linejoin="round"/>
<path d="M303.542 179.065L307.668 190.597L313.491 202.468L316.826 214.791L316.317 216.318M305.238 268.776L303.372 275.334L302.298 277.425L300.207 280.365L297.606 283.982L297.38 284.152L296.476 284.887L295.119 286.357L294.893 286.526L288.957 290.879L287.035 292.518L286.64 292.801L286.074 293.197L285.34 293.705L285.17 293.762L284.152 294.327L283.248 294.892L281.778 295.514L280.026 296.249L273.299 300.319L272.96 300.658L272.564 300.715L260.071 301.563L250.066 305.463L242.265 312.473L235.933 322.931L229.094 333.502L221.971 345.542L215.244 354.248L213.774 356.113L305.238 268.776ZM262.841 75.7871L272.79 83.7011L280.139 94.7808L285.566 107.161L288.053 120.841L288.109 134.634L291.275 146.335L296.306 157.358L301.337 168.551L303.203 180.026L302.411 181.157L306.651 192.349L305.973 193.48L305.351 194.724L304.503 196.08L303.146 197.437L301.394 198.907L299.811 200.489L298.511 202.185L297.437 204.051L296.589 205.973L295.571 208.008L294.893 210.156L294.271 212.361L293.762 214.622L293.31 216.996L292.914 219.37L292.632 221.801L292.519 224.345L292.688 226.945L292.971 229.602L293.48 232.259L293.932 234.972L294.328 237.516L294.667 240.003L295.063 242.377L295.289 244.638L295.684 246.786L296.08 248.822L296.306 250.63L296.702 252.326L287.714 260.523L287.827 262.275L278.443 270.811L265.328 275.842L251.705 279.291L239.382 283.417L227.511 287.431L217.053 294.497L206.143 301.563L194.724 309.081L182.457 313.208L170.36 312.36L158.941 311.681L147.579 312.925L143.283 309.364L130.564 313.264L119.541 312.303L117.223 309.873L116.488 308.968L262.841 75.7871ZM279.517 300.376L278.047 312.869L274.43 323.439L267.985 328.753L267.42 329.205L261.598 328.81L279.517 300.376Z" stroke="url(#paint4_linear_50_1387)" stroke-linecap="round" stroke-linejoin="round"/>
<path d="M2.97852 146.335L3.48727 145.544L5.91801 135.651L11.8535 128.359L14.7365 120.954L18.75 117.053L19.3718 115.301L20.8416 115.018L26.2684 116.375H28.3034L28.6991 115.81L32.8822 109.365L34.352 108.687L34.7477 107.67L36.6131 102.017L37.1784 100.434L39.1569 94.1593L41.4746 92.9722L49.3886 95.4029L57.6983 98.3424L63.4642 99.6426L67.5908 99.7556L69.9651 98.512L76.0702 100.095L80.4794 100.264M245.148 74.035L255.831 79.8575L267.137 86.4148L275.39 96.9857L281.665 109.083L286.753 121.632L286.979 135.651L290.031 147.635L295.062 158.715L300.489 169.851L302.411 181.157L245.148 74.035ZM136.669 96.5335L147.466 101.734L154.871 96.9292L161.485 90.9371L168.268 88.5629L177.37 89.0717L187.432 92.4069L197.946 97.1553L209.082 102.412L220.105 109.479L229.263 119.315L237.46 129.377L247.465 137.63L260.128 145.035L271.49 153.797L280.365 163.577L287.827 173.356L289.466 182.853L287.318 185.736L285.622 188.845L283.644 192.067L282.23 195.459L281.156 199.077L280.308 202.921L279.8 206.934L278.669 210.891L277.312 214.792L275.447 218.522L273.808 222.253L272.734 226.097L272.225 230.111L272.338 234.407L272.847 238.873L273.525 243.282L274.599 247.861L276.182 252.666L277.086 256.849L276.973 259.958L277.199 263.067L136.669 96.5335ZM80.4794 100.264L81.6665 88.3368L82.571 74.996L87.0933 64.7643L91.9547 54.3065L100.66 49.8973L80.4794 100.264ZM296.532 187.545L303.146 197.437L307.442 207.104L312.925 216.996L296.532 187.545ZM216.148 80.7054L225.589 87.9976L235.142 95.629L246.222 102.243L255.323 111.74L265.272 120.841L276.804 129.772L282.57 141.7L286.809 153.514L292.406 164.481L294.384 175.391L297.663 185.679L304.503 196.081L308.46 206.199L313.491 216.544L216.148 80.7054ZM314.339 228.528L313.491 237.347L313.152 248.426L312.756 248.822L312.36 248.991L312.304 249.274L310.89 259.619L310.777 260.297L310.551 260.919L314.339 228.528ZM245.882 292.801L235.764 298.624L225.702 304.05L216.714 312.53L207.386 321.8L196.872 327.001L186.301 333.219L175.504 336.102L245.882 292.801ZM119.654 254.362L108.122 252.779L95.5726 252.383L85.1148 250.009L73.9221 248.313L62.8424 246.504L51.254 244.865L38.2524 243.734L28.7556 240.795L119.654 254.362ZM274.712 49.1059L282.061 57.9244L283.587 72.9045L284.944 86.8671L274.712 49.1059ZM8.8575 237.46L13.1537 226.776L16.8846 216.77L15.4148 212.474L17.7325 204.334L8.8575 237.46ZM102.356 60.8638L112.022 66.8559L118.749 67.8169L127.003 64.5947L133.503 57.9809L138.365 45.2619L143.961 31.582L150.632 18.9195L159.224 16.3192L167.647 15.6409L175.787 14.2842L177.2 15.6974L183.644 22.3113L102.356 60.8638ZM356.509 149.501L355.096 151.366L349.669 158.489L339.494 167.307L333.615 175.335L356.509 149.501ZM318.804 179.292L319.709 190.541L322.479 202.581L322.535 202.638L321.461 214.848L316.939 222.084L314.678 225.758L307.386 232.259L303.089 239.777L303.485 241.134L303.937 242.547L304.39 243.791L305.011 245.034L305.407 246.052L305.69 246.9L305.972 247.691L306.425 248.426L306.651 248.935L306.707 249.218L301.62 261.089L294.61 272.055L287.714 283.417L278.273 292.462L264.593 295.854L250.631 296.476L240.23 300.828L231.637 307.894L223.78 317.617L215.357 327.284L206.03 335.48L195.911 340.455L185.679 344.016L180.422 339.55L170.077 339.777L168.551 339.098L163.746 337.289L157.811 334.689L155.097 334.011L154.928 333.898L151.536 331.806L147.975 329.658L147.353 329.262L143.339 326.888L141.135 325.531L139.043 323.949L138.252 323.496L137.686 323.214L136.104 322.253L130.338 319.596L124.346 317.674L123.215 316.43L123.046 316.261L122.198 315.356L318.804 179.292Z" stroke="url(#paint5_linear_50_1387)" stroke-linecap="round" stroke-linejoin="round"/>
<path d="M88.9587 282.287L87.5455 271.377L85.9061 260.975L85.1147 250.009L86.528 237.686L88.7326 225.532L89.8632 214.339L90.2589 203.542L89.1283 192.689L89.9197 181.1L92.4635 169.286L94.6116 157.189L97.2684 144.865L103.091 133.842L107.5 122.084L111.853 109.761L118.41 99.586L126.042 91.4458L134.238 85.5103L143 82.9665L150.858 80.3662L158.489 80.4227L166.347 83.3057L174.487 82.8535L183.644 83.6449L193.593 86.3583L204.277 90.1457L215.357 95.3463L225.306 103.939L235.085 112.87L242.943 123.385L252.666 132.09L265.441 139.721L275.277 149.388L283.191 159.733L289.636 170.077L287.827 173.356L284.718 176.974L281.665 180.818L278.726 184.775L275.39 188.845L272.338 192.971L269.455 197.211L267.137 201.507L265.385 206.03L264.141 210.721L263.293 215.526L262.615 220.501L261.937 225.419L261.541 230.393L260.863 235.085L260.184 239.608V244.356L261.032 249.557L262.163 254.757L262.445 259.054V262.615L262.728 266.12L263.35 269.511L264.085 272.62L265.328 275.843L267.137 279.291L269.342 282.683L271.377 285.565L273.412 287.996L275.843 290.427M166.516 324.683L155.55 326.097L144.866 326.775L139.608 323.892L139.043 323.948L138.252 323.496L166.516 324.683Z" stroke="url(#paint6_linear_50_1387)" stroke-linecap="round" stroke-linejoin="round"/>
<path d="M348.821 127.398L345.147 137.687L335.819 148.71L329.94 158.376L327.453 167.421L327.397 176.409L328.245 178.5L327.057 184.266L325.362 194.328L324.57 204.673L323.1 216.035L323.327 216.488L323.27 217.336L323.44 217.844L323.213 218.297L323.1 218.749L322.761 219.371L322.592 219.314L314.678 225.758L307.555 226.55L301.393 226.946H283.869L272.733 226.098L261.936 225.419L245.713 221.632L233.05 219.597L221.349 218.071L209.025 216.035L196.928 214.114L184.944 212.361L172.621 211.4L159.45 209.987L146.674 207.217L133.955 204.617L120.332 202.299L108.461 199.246L98.0596 195.968L89.128 192.689L83.249 189.354L77.2005 186.358L69.5691 183.645L60.8637 180.988L52.2713 178.331L42.2092 175.617L30.9034 172.791L17.0539 169.625L6.53955 166.516M242.886 301.846L234.689 309.082L227.567 319.427L219.483 328.81L211.174 339.607L201.62 346.843L191.275 349.274L181.044 346.504L175.447 343.734L173.525 342.434L173.299 342.264L169.794 339.777L168.551 339.099L160.58 335.594L157.358 334.746L155.097 334.011L154.984 333.898L150.009 329.941L146.618 328.019L144.865 326.775L139.608 323.892L137.517 322.762L136.951 322.592L134.464 321.631L129.829 319.822L124.345 317.674L242.886 301.846Z" stroke="url(#paint7_linear_50_1387)" stroke-linecap="round" stroke-linejoin="round"/>
<path d="M89.1284 76.127L89.6372 75.2226L94.6682 66.8563L102.356 60.8643M322.988 218.862L322.818 218.692L314.678 225.759L315.978 235.708L317.109 244.865L316.6 250.122L316.317 253.288L314.565 260.467L314.452 260.863L313.774 268.833L312.36 274.599V281.326L322.988 218.862Z" stroke="url(#paint8_linear_50_1387)" stroke-linecap="round" stroke-linejoin="round"/>
<path d="M233.559 58.0379L242.943 63.3516L252.214 69.9089L258.997 66.7998L266.233 63.8038L274.486 60.0729L282.061 57.9248L287.827 58.4336L291.784 61.0904L295.854 63.8038L300.263 66.4606V79.6318L299.359 92.69L300.885 103.43L301.959 114.171L302.637 124.911L302.298 135.821L302.75 146.223L305.294 150.745L308.007 155.663V155.719L310.382 156.454L312.756 157.359L315.074 158.489L317.448 159.846L319.2 169.399L319.257 169.795L321.066 171.208L323.383 172.735V172.791L325.305 182.288L325.418 182.74L325.079 193.311L324.514 204.391L324.683 205.013L323.27 216.262L323.609 216.657L323.836 216.827L323.666 217.166L323.101 217.901L323.157 218.353L322.761 218.862L322.592 219.314V219.88L322.422 220.501L322.196 221.123H322.14L321.97 221.462V221.745L321.744 222.367L321.687 222.423H321.631L314.678 225.759L308.855 222.876L301.281 218.579L293.762 214.622L287.544 211.061L279.8 206.935L267.137 201.508L256.623 196.646L245.204 191.615L231.807 186.358L219.54 181.384L208.404 176.579L197.946 171.378L186.697 165.329L173.695 160.637L161.768 156.624L150.462 152.554L138.195 147.41L124.12 141.079L111.796 136.33L103.091 133.843L92.9157 130.338L83.4189 127.172L78.8966 126.664L75.2788 126.438L72.735 126.664L69.0606 126.098L65.0471 125.364L61.8815 124.911L57.0765 123.724L48.9929 130.79L42.8878 128.868L34.8607 126.211L25.0247 133.504L14.1712 141.474L6.93555 151.141L8.00959 156.85" stroke="url(#paint9_linear_50_1387)" stroke-linecap="round" stroke-linejoin="round"/>
<path d="M254.588 307.951L247.465 315.865L241.417 326.436L234.52 336.159L227.115 345.825L222.593 349.556L218.579 352.892M337.12 101.734L335.65 112.305L333.841 122.763L326.945 134.465L323.214 144.64L321.97 154.023L323.044 163.125L325.418 165.16L327.453 167.421L329.771 169.851L328.245 178.5L329.488 180.762L330.675 183.192L328.245 191.219L327.284 199.642L328.245 201.338L329.149 203.09L330.223 204.956L331.015 206.878L331.636 208.856L327.792 214.735L324.91 218.353L322.818 220.162L322.592 219.936L322.196 220.219L314.678 225.758L308.347 224.345L300.998 221.801L292.914 219.371L286.074 217.392L277.312 214.792L264.141 210.722L250.744 206.482L226.21 198.794L214.396 195.063L202.977 191.502L191.897 188.223L179.518 184.436L166.912 180.309L155.097 176.465L142.887 172.621L130.055 168.608L116.319 164.255L103.939 160.355L94.6116 157.189L86.528 154.476L81.1577 152.554L76.5224 150.858L71.774 149.162L66.969 147.466L61.5423 145.601L52.6107 142.718L36.2174 137.347L32.3734 135.934L25.0247 133.504L18.637 131.186L18.5804 130.96L18.0151 130.621L13.5494 129.038L11.8535 128.359L337.12 101.734Z" stroke="url(#paint10_linear_50_1387)" stroke-linecap="round" stroke-linejoin="round"/>
<path d="M52.7237 51.5927V51.5362L57.4156 45.5442L58.4331 44.244L60.9204 42.322L61.203 42.0959L61.2596 41.9829L62.164 41.0219L63.2381 40.1174L63.8033 40.0044L64.4817 39.5521L65.4992 38.7042H66.2341L70.926 38.4216L76.8615 35.5386L82.5709 29.9988L86.5279 24.2328L92.4069 21.4629L98.1728 18.2973L104.73 16.5449L111.457 15.0187L119.71 17.3363L127.624 19.0322M236.499 43.4526L245.656 37.9693L254.757 41.3045L262.163 40.1739L271.716 44.0179L282.4 47.6357L287.827 58.4327L287.657 74.3173L288.279 88.1103L291.218 99.3595L291.727 100.49L294.045 105.917L295.571 109.535L297.832 110.722L299.019 112.813L301.959 114.17L304.955 115.809L306.82 118.24L310.495 120.049L315.243 121.688L323.044 122.536L333.841 122.762L342.32 124.515L348.821 127.398L236.499 43.4526ZM257.132 319.03L250.8 327.509L244.3 336.102L243.621 337.176L239.099 344.468L238.081 346.164L232.824 347.068L231.637 347.577L218.579 352.891L257.132 319.03ZM307.894 233.785L304.39 243.79L296.702 252.326L296.871 253.796L297.154 255.153L288.222 263.971L279.404 273.185L267.137 279.29L253.909 283.417L241.304 287.148L229.15 290.54L218.975 297.606L208.63 305.689L197.776 314.451L186.018 321.009L307.894 233.785ZM67.4777 84.2098L76.9745 88.4495L81.6664 88.3364L85.1712 86.8101L67.4777 84.2098ZM304.616 136.951L305.124 147.126L308.686 153.401L310.382 156.454L312.078 161.428L313.773 166.459L313.83 166.798L315.526 167.646L316.769 178.5L317.9 189.862L319.596 196.25L321.122 202.072L321.179 202.129L321.461 214.848L316.939 222.083L314.678 225.758L307.16 228.075L303.598 229.658L301.959 230.506L293.48 232.259L282.683 233.163L272.338 234.407L260.862 235.085L244.752 232.428L230.902 230.676L218.296 229.545L205.86 228.075L194.102 227.341L182.401 226.945L170.36 227.397L157.471 227.906L144.244 227.397L129.942 227.284L117.393 225.023L107.896 220.953L99.0207 217.335L89.8631 214.339L81.6099 211.286L73.4697 208.403L63.7468 206.029L50.6887 204.277L41.1919 201.62L29.1512 199.302L14.6234 196.985L304.616 136.951ZM26.3813 242.773L16.5453 240.681L8.85742 237.459L26.3813 242.773ZM39.1568 94.1589L38.8742 84.0968L39.7221 79.6875L40.57 74.9956L40.7396 72.1692L40.8527 70.869L39.1568 94.1589ZM140.287 332.88L137.969 324.4L137.686 323.213L140.287 332.88ZM140.174 348.877L130.168 348.821L122.141 349.725L121.802 349.612L121.293 349.669L114.057 347.634L107.613 343.564L140.174 348.877ZM87.9411 318.352L85.9061 308.572L85.5104 297.38L83.2492 289.692L87.9411 318.352ZM72.5088 45.6007L76.6354 39.6652L78.1051 37.4606L78.3312 37.2345L78.5008 37.1779L72.5088 45.6007ZM161.824 361.031L155.267 353.739L150.01 345.655L161.824 361.031ZM98.0597 23.5545L104.73 16.5449L107.33 13.8881L111.514 9.64844L98.0597 23.5545ZM184.605 51.6493L192.519 56.8499L199.077 54.9845L205.577 52.9494L212.135 50.9144L219.992 45.3746L228.98 38.0824L237.516 33.6166L246.561 29.1508L247.239 29.377L252.779 31.2424L255.323 32.0338L261.71 34.1819L184.605 51.6493Z" stroke="url(#paint11_linear_50_1387)" stroke-linecap="round" stroke-linejoin="round"/>
<path d="M312.812 261.032L311.795 264.368L310.608 273.864L310.382 274.939L309.93 276.295L309.986 276.861L309.873 277.878L309.647 285.17M88.5631 29.8865L89.0718 28.7559L92.407 21.4637L88.5631 29.8865ZM90.4285 28.7559L93.9898 26.3252L94.0463 26.2687L98.0599 23.5553L105.635 24.5728L113.944 27.6254L122.311 31.3563L129.32 31.5258L135.595 28.1341L143.961 31.5824L152.723 38.0266L161.372 45.2623L169.512 50.9152L177.596 55.5506L185.792 59.9033L192.519 56.8507L201.112 59.2249L209.082 66.0649L217.449 71.7178L227.737 74.2616L234.859 69.2305L242.943 63.3515L250.687 58.9423L258.771 54.7592L266.742 51.6501L274.712 49.1063L90.4285 28.7559ZM322.592 83.08L324.966 92.0116L326.888 101.113L326.606 111.288L323.044 122.537L319.2 133.334L318.013 142.944L317.787 152.271L322.592 83.08ZM46.9014 112.136L53.7979 105.974L57.6984 98.3428L57.3592 87.3762L54.3632 73.244L53.4587 59.5076L58.0375 50.5195L65.3297 44.6405L72.735 39.3268L75.1657 38.4789L76.0702 38.0832L78.2748 37.2352H78.3879L78.5009 37.1787L80.536 35.3698L81.7796 34.2958L82.3449 33.7305L83.1928 33.3348L87.4325 31.0736L99.4166 39.8921L110.044 47.8061L118.636 52.6676L125.759 54.4765L133.503 57.9813L140.965 60.7512L148.597 63.8603L157.019 70.8133L164.82 75.7313L172.508 77.3141L180.874 75.166L190.258 76.4097L200.207 79.3491L210.552 84.2106L220.332 91.6724L230.281 99.4734L240.343 107.557L249.274 117.167L258.601 126.494L271.151 134.521L279.348 145.205L285 156.398L291.049 167.082L292.688 177.653L296.532 187.545L295.289 189.524L293.254 191.672L291.84 193.933L290.936 196.477L289.918 199.077L288.901 201.79L288.336 204.73L287.94 207.839L287.544 211.061L286.696 214.17L286.074 217.392L285.622 220.727L284.774 223.893L283.87 226.946L283.078 230.055L282.683 233.164V236.442L283.248 239.947L284.209 243.509L285.17 247.013L285.848 250.235L286.414 253.175L286.922 255.945L287.601 258.545L287.714 260.524L277.652 268.268L264.085 272.621L250.066 275.504L237.855 279.63L226.267 284.322L215.357 290.88L203.995 297.607L191.785 302.185L179.405 306.086L166.968 308.573L155.154 307.895L151.366 304.39L148.71 296.193L146.562 287.318L144.583 279.178L142.718 271.264L142.378 260.241L142.831 248.483L143.339 237.856L145.092 217.505L146.675 207.217L149.331 196.533L152.214 186.358L155.097 176.465L158.093 166.516L161.768 156.624L166.007 147.127L170.53 137.687L175.448 127.851L180.874 117.563L186.527 110.044L192.293 102.922L197.946 97.1557L204.277 90.1461L210.552 84.2106L216.148 80.7058L46.9014 112.136ZM18.2413 249.557L16.5455 240.682L16.3759 231.185L18.0152 221.293L18.4109 211.796L18.0717 205.182L18.2413 249.557ZM93.9898 26.3252L95.5726 23.2727L98.1729 18.2981L98.6817 17.959L105.296 13.154L111.514 9.64923L118.976 9.31006L124.12 6.70974L127.003 5.29652L133.786 1.16992L93.9898 26.3252ZM53.6283 268.325L44.6968 268.212L40.5702 261.202L36.6697 253.797L32.0343 246.392L26.3815 242.774L25.0248 239.269L23.2159 234.407L16.3759 231.185L13.1537 226.776L12.0232 221.915L10.7795 217.11L11.0622 212.135L10.7795 204.334L10.1577 200.038L53.6283 268.325Z" stroke="url(#paint12_linear_50_1387)" stroke-linecap="round" stroke-linejoin="round"/>
<path d="M354.983 154.814L354.248 156.51L351.648 162.672L342.942 170.755L336.385 178.33L332.145 185.735L329.602 193.31L328.245 201.337L326.266 209.704L323.61 216.657V216.939L323.666 217.335L323.553 217.844L323.044 218.239L314.678 225.758L307.781 233.502L303.937 242.547L296.306 250.63L287.601 258.544L277.426 265.837L263.35 269.511L249.048 271.885L236.612 275.673L225.193 280.873L213.831 286.809L202.299 293.875L189.58 297.662L176.748 300.941L163.916 303.598L151.366 304.389L138.704 306.368L126.211 307.668L114.171 306.82L112.136 305.237M20.2764 122.649L26.2684 116.375L29.2079 109.083L32.3735 101.79L34.6912 94.1024L38.1394 86.9798L38.8743 84.0968L41.5312 82.514L50.3496 85.51L57.3592 87.3755L63.6339 88.7887L67.0822 87.8843L20.2764 122.649ZM186.019 321.009L182.457 313.208L179.405 306.085L176.748 300.941L174.43 294.666L172.452 287.657L171.095 275.503L170.191 263.802L169.738 253.457L169.682 243.79L169.851 235.424L170.36 227.397L171.265 219.709L172.621 211.4L174.43 202.807L176.748 193.706L179.518 184.435L182.91 174.938L186.697 165.329L190.597 156.171L194.611 147.861L199.133 139.552L203.995 131.411L208.856 124.119L214.339 116.601L220.105 109.478L225.306 103.938L230.281 99.4726L235.142 95.6287L241.36 90.5976L248.2 85.3405L255.832 79.8572L262.841 75.7871L186.019 321.009Z" stroke="url(#paint13_linear_50_1387)" stroke-linecap="round" stroke-linejoin="round"/>
<path d="M109.422 341.359L104.109 335.31L99.8125 327.509L95.9685 319.652L95.1206 307.611L92.6899 299.075L88.5633 293.253L87.2631 291.84M289.579 101.168L290.767 104.391L290.993 106.199L290.88 120.388L291.614 133.164L294.497 144.526L299.585 155.323L303.599 166.685L304.277 178.274L308.234 189.918L314.056 202.016L317.448 214.622L317.109 215.865L316.318 220.274L314.678 225.758L307.329 227.284L301.733 228.754L292.971 229.602L283.079 230.054L272.225 230.11L261.541 230.393L244.922 226.888L231.637 225.023L219.484 223.723L195.516 221.235L183.475 219.822L171.265 219.709L158.263 219.144L145.092 217.505L131.299 216.148L118.297 213.887L108.461 210.099L98.6819 206.821L90.2591 203.542L82.4016 200.376L75.3921 197.324L66.3475 194.723L56.9637 192.18L46.6189 189.636L35.0871 187.092L22.7638 184.379L8.51859 181.496L3.60059 178.443L289.579 101.168ZM183.645 354.53L183.192 354.191L177.37 349.16L167.873 350.63L167.082 350.46L183.645 354.53ZM35.5958 276.181L31.6954 268.946L30.3387 260.014L28.3602 251.422L26.3817 242.773L35.5958 276.181ZM130.621 42.6047L138.365 45.2615L146.844 51.084L154.815 55.2106L163.012 61.5418L170.869 65.7814L178.896 67.3077L185.793 59.9024L130.621 42.6047ZM159.959 332.993L155.55 326.096L151.536 318.917L147.579 312.925L159.959 332.993ZM183.645 22.3108L191.389 19.8801L199.473 15.4709L207.217 14.5664L183.645 22.3108Z" stroke="url(#paint14_linear_50_1387)" stroke-linecap="round" stroke-linejoin="round"/>
<path d="M28.9253 102.017L31.1864 94.612L34.6912 87.9982L37.2915 80.7625L38.0829 76.9185L38.9874 72.7354L40.7398 69.0045L42.2661 65.7824L45.6013 58.8293L45.7709 58.6032M137.743 335.933L130.281 333.05L122.424 332.033L113.831 332.711L104.108 335.311L95.9684 333.615L87.0368 332.994L72.2263 326.945L70.0217 316.826L65.5559 310.665L65.2167 299.811L66.1212 288.336L64.2557 280.252L62.3903 277.256L137.743 335.933ZM343.508 188.619L338.194 194.498L333.559 200.49L331.015 206.878L327.567 213.435L326.775 214.453L343.508 188.619ZM324.627 75.7314L327.454 83.1367L324.627 75.7314ZM158.489 80.4233L164.82 75.7314L170.869 65.7824L177.596 55.5507L184.605 51.6502L158.489 80.4233ZM251.366 25.3643L259.223 25.4209L266.911 29.2083L251.366 25.3643ZM175.787 10.6104L183.644 11.0061L191.445 13.776L199.472 15.4718L207.386 18.9201L214.679 25.4209L221.688 32.3739L228.98 38.0833L236.499 43.4535L175.787 10.6104ZM363.801 181.723L357.753 186.754L350.913 190.428L349.161 191.389L343.564 195.742L343.225 196.025L342.66 196.986L340.455 200.999V204.278L341.19 207.726L342.264 211.344L343.055 215.075L340.399 218.071L338.194 221.18L336.272 224.289L334.859 227.568L333.785 230.903L332.315 234.125L330.506 237.234L328.697 240.23L326.832 243.169L324.062 245.713L321.461 248.144L321.631 251.705L323.723 256.171L325.079 260.241L363.801 181.723Z" stroke="url(#paint15_linear_50_1387)" stroke-linecap="round" stroke-linejoin="round"/>
<path d="M319.765 70.3043L320.67 71.4348L322.196 73.9786L324.457 76.8616L327.453 83.0798M45.9402 58.0375L53.4585 59.5073L59.5636 59.7899L63.5772 57.7549L71.4912 60.016L78.5573 61.4293L87.0931 64.7645L94.668 66.856L102.017 68.7215L109.931 71.3783L116.997 72.4524L122.537 71.0391L126.268 70.1347L134.068 72.6785L142.435 76.6355L150.462 75.7876L157.019 70.813L163.011 61.5423L169.512 50.9149L176.748 44.3011L184.096 40.4006L191.332 38.196L198.455 36.387L206.03 32.4866L214.678 25.4205L222.932 21.8591L230.28 21.7461L238.59 24.6856L246.561 29.1514L246.617 29.2079L246.843 29.3775L253.796 35.4826L262.163 40.1745L269.398 39.9483L270.303 40.231L275.447 41.7007L279.178 41.9834L287.205 42.4921H287.374L293.593 44.1315L293.762 44.188L298.624 47.9189L298.963 49.3321L300.15 53.8544L301.507 58.942L305.633 62.8425L309.59 67.0821L309.081 79.0662L308.29 90.5981L45.9402 58.0375ZM25.5333 108.744L28.9251 102.017L32.3733 101.791L36.4434 102.017L25.5333 108.744ZM308.29 90.5981L315.752 91.5025L324.966 92.0113L335.311 92.5201L308.29 90.5981ZM10.5532 192.576L10.1575 200.038L10.6663 204.786L10.7793 208.63V213.435L10.7228 215.357L10.7793 217.109L8.06597 226.154L7.10498 232.146L7.3311 233.333L7.16151 234.859L8.17903 240.738L10.3836 246.335L10.7228 246.448L18.2411 249.557L21.1241 257.81L23.4983 266.063L27.0596 273.582L35.5955 276.182L40.4004 282.57L42.9442 290.54L44.1878 299.754L47.1273 307.725L58.7722 316.769L59.6202 317.448L69.7953 316.826L70.3041 316.769L79.9705 316.656L87.9411 318.352L91.1067 327.227L95.9681 333.615L100.773 340.681L109.422 341.359L115.584 345.938L121.802 349.613L122.141 349.726L124.459 348.765L131.864 345.712L136.782 346.673L138.082 347.521L138.421 347.804L140.174 348.878L146.901 353.287L153.91 355.718L161.824 361.031L171.264 358.657L175.561 357.809L177.709 357.64L178.783 356.453L178.33 355.774L174.091 353.739L173.13 353.174L168.155 350.574L167.081 350.461L159.224 349.556L158.998 349.443L150.914 346.391L149.105 344.921L141.248 345.09L133.164 344.355L127.455 338.816L122.424 332.032L118.806 322.648L114.962 315.017L110.496 309.477L107.839 304.051L107.161 303.598L105.013 301.902L101.395 299.019L95.1767 295.967L88.5629 293.254L84.4928 290.371L10.5532 192.576ZM14.7364 120.954L19.3717 115.301L19.6544 114.679L22.1416 108.574L24.5158 101.734L27.1161 94.9508L29.9426 88.2804L34.7475 82.9667L37.2913 80.7621L39.7221 79.688L14.7364 120.954ZM354.757 160.015L353.117 167.138L346.051 174.487L339.324 181.553L334.406 188.506L331.184 195.628L329.149 203.09L326.718 210.891L325.588 214.113L324.909 215.922L324.74 216.657L323.779 217.844L322.705 218.41L314.678 225.758L309.364 236.16L306.198 248.031L298.115 257.527L289.805 267.194L282.004 277.652L271.377 285.566L257.132 288.449L244.186 291.275L233.785 297.098L223.384 302.524L213.774 310.325L203.768 318.465L192.971 324.457L181.892 329.432L170.812 331.354L159.959 332.993L354.757 160.015Z" stroke="url(#paint16_linear_50_1387)" stroke-linecap="round" stroke-linejoin="round"/>
<path d="M336.611 251.422L334.124 253.797L331.693 256.227L331.184 258.036M245.543 21.2939L251.366 25.364L259.11 28.9253L265.894 34.6347L272.62 39.8354L272.903 40.0615L281.269 39.4962L290.936 42.153L293.762 44.1881L294.271 45.036L295.684 47.4102L299.246 53.2327L301.507 58.9421L302.75 70.9262L305.351 75.3919L303.711 88.1674L305.52 97.8904L306.82 107.783L310.156 110.214L316.487 111.344L326.605 111.288L335.65 112.305L343.112 114.623L245.543 21.2939ZM191.445 49.7844L198.229 47.6363L205.012 45.4317L212.644 40.6833L221.688 32.3736L229.998 28.36L238.59 24.6857L245.091 26.6642L248.652 28.0774L251.309 29.208L255.323 32.0344L191.445 49.7844ZM213.774 356.114L207.669 352.496L201.62 346.843L195.911 340.455L190.88 335.82L186.301 333.219L181.892 329.432L177.765 326.097L173.865 319.087L162.672 317.222L151.536 318.918L139.721 323.666L137.517 322.762L136.104 322.253L134.464 321.631L213.774 356.114ZM174.487 353.796L173.13 353.174L168.551 351.083L167.873 350.63L162.389 343.055L157.358 334.746L155.097 334.011L174.487 353.796ZM40.8527 70.8696L47.8058 72.1133L54.3631 73.2438L60.0725 73.6395L62.2771 70.7566L66.6298 69.6825L82.5709 74.9962L89.1283 76.1268L40.8527 70.8696ZM47.5796 261.767L40.5701 261.202L30.3384 260.015L21.1242 257.81L14.1712 254.079L11.3447 248.426L47.5796 261.767ZM360.749 175.957L356.735 181.553L350.574 187.036L349.556 187.828L343.564 192.293L343.281 192.633L339.55 197.72L334.689 203.09L331.636 208.856L332.484 210.948L360.749 175.957ZM361.936 187.601L358.092 193.311L354.926 197.042L348.991 200.49L343.677 203.882L341.19 207.726L337.629 211.513L334.859 215.583L328.527 218.636L328.019 218.862L327.906 218.918L323.496 221.406L321.744 222.367L361.936 187.601ZM309.703 221.123L314.678 225.758L316.882 234.859L318.578 242.943L318.126 246.391L317.674 249.953L316.769 256.397L316.713 256.68V257.527L316.996 262.163L316.091 265.95L314.508 271.038L314 276.069L313.943 276.634L309.703 221.123Z" stroke="url(#paint17_linear_50_1387)" stroke-linecap="round" stroke-linejoin="round"/>
<path d="M154.928 333.897L148.936 332.088L140.287 332.88M332.484 210.947L328.075 216.148L324.91 218.353L323.327 219.483L323.157 219.709L322.931 220.218L322.592 220.557L322.422 220.501L321.97 221.009L314.678 225.758L314.621 236.724L314.734 247.239L314.678 247.295L313.943 255.718L314.226 256.283L313.265 261.032V262.728L311.795 264.367L310.438 265.95L309.082 267.363L306.82 277.029L304.05 281.269L301.959 284.491L301.902 284.887L298.737 288.335L297.719 298.002L332.484 210.947ZM107.161 303.598L102.073 299.132L97.2119 294.836L92.5766 293.649L89.0718 292.801L107.161 303.598ZM307.951 225.475L301.168 225.193L292.519 224.345L284.774 223.892L273.808 222.253L262.615 220.501L246.9 216.487L234.972 214.169L222.875 211.739L210.495 208.969L198.794 206.821L186.923 204.729L174.43 202.807L161.315 200.263L149.331 196.533L136.669 193.65L123.046 190.823L108.8 187.827L99.0774 184.379L89.9197 181.1L83.9277 178.104L78.9531 175.391L71.4913 172.734L64.5383 170.19L59.4507 167.872L49.9539 165.103L36.6131 161.767L23.9507 158.432L15.5279 155.606L8.97058 153.005L6.93555 151.14L307.951 225.475ZM37.348 100.49L43.8488 102.13L53.7979 105.974L59.903 107.669L63.4643 107.726L67.4778 108.065L72.4523 109.026L77.4834 109.931L79.0662 109.817L37.348 100.49ZM309.308 221.801L314.678 225.758L317.787 233.841L319.992 240.738L319.539 246.617L319.483 249.556L319.313 250.744L309.308 221.801ZM358.262 170.473L355.718 176.578L356.735 181.552L357.753 186.753L356.566 191.897L354.926 197.041L354.531 199.189L353.626 202.242L353.57 202.468L353.287 203.994L352.665 207.612L350.404 210.212L346.447 212.587L343.055 215.074L337.798 217.222L337.346 217.618L336.102 218.353L327.679 220.275L321.687 222.988L321.518 223.044L321.292 223.723L321.066 224.458L320.896 225.193L320.67 225.927L320.5 226.606L320.048 228.076L319.879 228.867L319.652 229.545L319.483 230.28L322.535 234.124L323.609 237.12L323.496 239.438L322.931 242.264L324.062 245.713L324.344 248.652L326.775 252.609L328.98 256.453L358.262 170.473ZM355.435 165.216L354.531 171.773L348.539 178.5L341.755 185.001L336.554 191.445L332.371 198.002L330.223 204.955L327.171 212.134L326.379 214.283L325.927 215.526L324.74 216.657L324.062 217.222L355.435 165.216ZM138.082 347.521L131.864 345.712L124.798 344.299L119.145 338.533L138.082 347.521ZM116.884 309.816L110.496 309.477L103.6 307.216L95.1203 307.611L76.0702 309.59L65.5558 310.664L56.6243 309.194L47.1275 307.724L39.5526 299.358L36.6131 296.136L116.884 309.816ZM135.425 317.504L130.564 313.264L126.211 307.668L123.441 298.341L122.367 286.187L121.237 275.164L120.389 264.593L119.654 254.361L135.425 317.504ZM346.73 240.399L346.504 240.681L346.617 241.19L343.451 245.373L342.49 246.221L342.433 246.391L342.264 246.73L339.098 249.783L336.894 252.213L336.272 252.779L346.73 240.399Z" stroke="url(#paint18_linear_50_1387)" stroke-linecap="round" stroke-linejoin="round"/>
<path d="M314.678 225.758L320.161 227.736L325.305 228.754L327.397 229.206L328.641 229.432L333.785 230.902L335.65 231.298L342.377 233.276L351.535 236.046L353.513 236.498M192.859 351.647L186.923 349.838L177.37 349.16L172.452 343.62L171.547 342.546L168.947 340.172L163.746 337.289L192.859 351.647ZM337.855 248.822L336.215 250.235L333.389 252.892L332.089 254.248L329.149 256.679L327.171 258.262L327.114 258.318L325.079 260.24L322.366 263.067L321.348 264.141L320.444 265.328L337.855 248.822ZM182.74 354.474L179.518 356.17L179.122 356.113L176.635 356.678L173.187 357.47L170.53 358.092L163.803 352.778L159.45 349.782L159.168 349.556L153.458 343.225L148.936 332.088L147.353 329.262L182.74 354.474Z" stroke="url(#paint19_linear_50_1387)" stroke-linecap="round" stroke-linejoin="round"/>
<path d="M196.024 352.27L191.671 355.492L187.262 357.527L183.983 359.053M352.496 213.096L352.665 218.749L354.87 225.08L354.813 225.702L354.531 230.903L351.535 236.047L346.73 240.4L346.503 240.682L346.164 240.965L346.051 241.078L344.016 242.943L342.151 244.696L341.133 245.657L337.855 248.822L337.063 249.614L336.215 250.236L334.237 251.705L333.219 252.723L332.145 253.853L328.98 256.454L327.171 258.263L326.492 260.58L326.436 263.237L322.648 265.668L321.574 266.629L318.352 270.247L316.995 272.508L316.148 274.656L314.226 278.896L312.304 282.683L310.89 285.453L309.364 288.505L307.329 290.88L305.011 293.65L304.277 294.724L303.768 295.458L301.846 298.681L301.111 299.811L301.054 299.868L352.496 213.096ZM362.332 189.637L358.092 193.311L356.396 196.194L354.813 198.964L353.626 202.243L349.669 205.295L344.751 208.122L342.264 211.344L338.137 214.396L336.046 217.901L336.159 218.466L335.706 219.653L335.48 219.88L334.519 220.784L333.332 221.915L331.523 224.006L330.223 226.946L328.64 229.433L327.34 231.977L326.153 234.521L324.91 237.064L362.332 189.637ZM318.804 251.366L318.691 252.044L318.296 253.005L317.73 254.419L318.126 258.489L316.995 262.163L316.374 267.194L316.204 272.338L318.804 251.366Z" stroke="url(#paint20_linear_50_1387)" stroke-linecap="round" stroke-linejoin="round"/>
<path d="M29.9429 88.2803L34.6913 87.9976L38.1395 86.9801M187.771 353.23L184.266 357.3L177.539 357.809L176.522 357.866L187.771 353.23ZM325.079 260.241L322.366 263.067L322.649 265.498L321.575 266.628L319.879 268.211L319.766 268.437L318.183 270.925L316.996 272.507L314.226 278.895L312.7 280.252L325.079 260.241ZM321.292 72L325.475 74.996L328.867 81.836L329.036 85.2842L321.292 72ZM61.4294 115.244L66.4039 116.375L72.0002 117.845L74.8267 117.901L61.4294 115.244ZM106.935 300.546L102.074 299.132L100.604 298.398L95.177 295.967L92.8028 293.875L106.935 300.546ZM239.495 336.724L234.52 336.159L229.094 333.502L223.949 330.788L219.484 328.81L215.357 327.284L211.287 324.683L207.387 321.8L203.769 318.465L200.66 316.656L197.777 314.452L194.724 309.081L191.785 302.185L189.58 297.663L187.601 292.406L185.68 283.53L183.927 271.942L182.683 260.919L181.949 250.857L181.666 242.095L181.836 234.124L182.401 226.945L183.475 219.823L184.945 212.361L186.923 204.729L189.297 196.702L191.898 188.223L194.611 179.687L197.946 171.377L201.168 163.407L204.843 155.719L209.082 147.975L213.661 140.456L218.805 132.881L224.119 125.759L229.263 119.315L235.086 112.87L240.343 107.557L246.222 102.243L253.005 96.5335L260.524 90.6545L267.137 86.4148L272.79 83.7014L278.047 81.9491L280.874 82.8535L239.495 336.724ZM324.91 237.064L328.697 240.229L329.545 242.208L333.163 245.261L337.855 248.822L324.91 237.064Z" stroke="url(#paint21_linear_50_1387)" stroke-linecap="round" stroke-linejoin="round"/>
<path d="M268.437 312.247L264.48 312.416L259.449 310.381L254.588 307.95M104.391 301.789L99.7555 300.884L92.6894 299.075L85.5103 297.38L77.031 297.04L65.2165 299.81L54.1934 300.658L44.1878 299.754L36.6129 296.136L31.1296 290.427L29.0381 282.004L27.0596 273.581L20.3327 269.567L17.1105 264.763L16.3756 263.688L15.6973 262.727L15.3016 261.201L14.7363 259.223L14.2275 256.057L13.2666 253.57V253.513L11.2315 248.143L10.7793 247.126L104.391 301.789ZM66.234 38.7042L70.4171 36.6691L76.8614 35.5386L81.7794 34.2949L66.234 38.7042ZM297.719 298.001L293.366 299.415L288.505 299.81L284.096 300.376H279.517L297.719 298.001ZM317.787 152.27L321.97 154.023L326.153 156.001L329.94 158.375L333.502 161.089L336.272 164.085L342.942 170.755L346.051 174.486L348.538 178.5L350.178 182.683L350.573 187.036L349.16 191.388L348.651 195.854L348.991 200.489L349.669 205.294L350.404 210.212L351.647 215.413L349.612 219.992L346.843 224.401L344.581 228.867L342.377 233.276L338.929 237.233L336.102 241.303L333.163 245.26L329.997 248.991L326.775 252.609L323.722 256.17L321.179 259.845L321.348 263.971L320.444 265.328L318.974 267.419L318.522 268.041L316.769 271.263L317.787 152.27ZM268.55 39.326L271.772 39.8347L272.903 40.0609L279.178 41.9828L268.55 39.326ZM333.615 175.334L336.385 178.33L339.324 181.552L341.755 185.001L343.507 188.618L333.615 175.334ZM27.1161 94.9502L31.1862 94.6111L34.6909 94.1023L39.1567 94.1588L27.1161 94.9502Z" stroke="url(#paint22_linear_50_1387)" stroke-linecap="round" stroke-linejoin="round"/>
<path d="M15.1322 260.863L13.6624 257.471L13.4363 255.266L11.3447 248.426M6.82243 153.232L5.91797 149.558L12.7014 140.344L17.5064 132.882L6.82243 153.232ZM262.106 34.4653L265.894 34.6348L274.09 34.1826L280.987 36.2177L289.862 39.2702L262.106 34.4653ZM287.205 42.4923H287.318L294.384 49.615L294.667 49.9541L295.854 63.8037L294.836 78.6142L294.328 91.8419L296.476 102.526L298.624 111.175L299.019 112.814L300.263 119.598L300.998 123.328L300.32 134.747L300.941 145.431L287.205 42.4923Z" stroke="url(#paint23_linear_50_1387)" stroke-linecap="round" stroke-linejoin="round"/>
<path d="M288.844 98.5687L291.218 99.3601L293.31 101.169L293.592 101.791L293.706 101.96L297.606 110.214L297.832 110.722L298.737 115.301L300.037 121.689L298.624 133.843M80.4227 288.053L77.144 286.414L66.1209 288.336L54.8717 289.579L42.9442 290.54L31.1296 290.427L80.4227 288.053ZM81.7228 103.374L84.7754 101.565L92.0111 102.865L101.621 106.087L111.853 109.761L121.632 112.701L132.146 115.81L145.77 123.611L158.771 131.581L170.529 137.687L182.344 142.378L194.611 147.862L204.842 155.719L214.735 162.333L226.436 168.043L239.155 173.922L252.779 180.196L263.18 186.697L272.338 192.972L281.156 199.077L288.335 204.73L294.893 210.156L302.072 215.583L309.873 220.784L314.678 225.758L319.765 229.207L324.005 231.524L325.136 233.107L324.288 235.086L323.609 237.121L323.835 239.664L326.831 243.169L326.888 245.487L324.344 248.652L321.631 251.705L319.935 255.21L321.178 259.845L318.691 263.52L318.748 267.703L318.522 268.946L318.239 269.907L316.769 271.264L316.713 271.434L316.204 272.338L314.056 276.465L313.943 276.634L312.699 280.252L312.36 281.326L309.76 285L309.647 285.17L309.364 285.622L307.329 289.184L305.35 292.406L305.011 292.971L304.785 293.028L301.846 296.137L297.719 298.002L295.797 306.877L295.741 307.047L292.575 310.495L291.784 311.173L290.992 311.625L288.901 313.095L283.417 313.152L278.047 312.869L272.959 312.417L268.437 312.247L267.476 313.604L262.502 320.614L256.057 328.245L249.896 336.724L247.182 339.098L242.66 343.112L238.081 346.165L233.333 347.182L232.768 347.239L227.115 345.825L221.971 345.543L216.431 342.66L211.174 339.607L206.029 335.481L201.338 331.637L196.872 327.001L192.971 324.458L189.523 323.836L186.018 321.009L173.865 319.087L170.36 312.36L166.968 308.573L163.916 303.598L161.372 295.797L159.054 289.014L157.189 281.27L156.85 267.872L156.623 256.736L156.736 246.222L156.963 236.951L157.471 227.906L158.263 219.144L159.45 209.987L161.315 200.264L164.029 190.032L166.912 180.309L170.077 170.586L173.695 160.637L177.878 151.14L182.344 142.378L187.149 133.334L192.406 124.459L197.663 116.997L203.147 109.818L209.082 102.413L215.357 95.3466L220.331 91.6722L225.588 87.9979L231.185 84.2104L238.081 78.8967L245.147 74.0353L81.7228 103.374ZM284.944 86.8673L288.279 88.1109L291.614 89.6372L294.327 91.8418L299.358 92.6897L303.259 94.6117L305.52 97.8904L309.307 100.434L317.108 100.999L326.888 101.113L337.12 101.734L284.944 86.8673ZM352.665 218.749L349.612 219.992L342.999 220.388L339.72 223.836L337.289 227.511L335.65 231.298L334.689 235.368L332.315 238.873L329.545 242.208L326.888 245.487L352.665 218.749ZM67.3646 280.139L64.2555 280.252L51.9322 282.174L40.4004 282.57L29.0381 282.004L24.007 276.691L20.3327 269.568L67.3646 280.139ZM20.1631 213.661L18.4107 211.796L18.2976 209.591L18.1846 205.408L20.1631 213.661ZM57.4155 45.5448L57.8677 44.6403L58.1504 44.1881L58.6026 43.3402L62.1639 41.0225L63.5206 40.0615L64.4816 39.5527L57.4155 45.5448Z" stroke="url(#paint24_linear_50_1387)" stroke-linecap="round" stroke-linejoin="round"/>
<path d="M115.527 308.516L113.662 307.668L107.839 304.051M287.374 93.4811L285.17 92.8028L280.139 94.7813L275.39 96.9859L269.907 100.321L262.106 106.144L255.323 111.74L249.274 117.167L242.943 123.385L237.46 129.377L232.598 135.369L227.963 141.587L223.327 148.37L218.749 155.38L214.735 162.333L211.569 169.286L208.404 176.578L205.521 183.984L202.977 191.502L200.886 199.246L198.794 206.821L196.929 214.113L195.515 221.236L194.102 227.341L193.367 233.842L193.311 241.304L193.989 250.348L194.95 259.054L196.307 268.381L198.172 278.16L200.603 288.505L202.299 293.875L203.995 297.606L206.143 301.563L208.63 305.69L211.061 308.121L213.774 310.325L216.714 312.53L220.162 315.3L223.78 317.617L227.567 319.426L231.355 320.613L235.933 322.931L241.417 326.436L246.109 327.227L250.8 327.51L256.058 328.245L261.597 328.81L268.663 322.705L274.429 323.44L279.46 322.535L283.191 319.539L286.922 316.317L288.957 314.621L290.144 312.982L291.784 311.173L292.575 310.495L293.367 299.415L295.288 289.805L295.684 289.523L295.854 289.41L296.08 289.24L298.285 288.279L301.902 286.301L305.011 284.039L307.499 281.043L309.873 277.878L312.36 274.599L314.508 271.038L316.374 267.194L318.691 263.519L318.126 258.488L319.935 255.21L319.087 251.083L319.483 249.557L320.896 247.239L321.97 244.808L322.931 242.265L323.496 239.438L324.91 237.064L324.288 235.086L323.27 232.824L319.596 229.941L314.678 225.758L310.664 219.484L303.259 212.813L296.589 205.973L289.918 199.077L283.644 192.067L278.726 184.775L270.077 176.917L259.958 169.06L245.939 162.05L233.729 155.38L223.327 148.37L213.661 140.456L203.995 131.412L192.406 124.459L180.874 117.562L169.399 111.683L158.15 106.2L147.466 101.734L139.213 106.765L132.147 115.81L128.02 128.868L124.12 141.078L120.049 152.667L116.319 164.255L111.909 175.9L108.8 187.828L108.461 199.246V210.1L107.896 220.953L106.878 232.259L107.726 242.321L108.122 252.779L108.405 263.859L108.744 275.447L109.083 287.94L111.005 298.793L114.397 306.877L115.075 307.951L115.527 308.516L287.374 93.4811ZM309.929 57.3027L311.23 59.2247L317.391 65.2733L319.426 69.8521V69.9652L320.331 71.9437L321.066 72.2828L323.553 74.4875L324.627 75.7311L328.867 81.8362L330.167 86.6411L309.929 57.3027ZM356.735 230.789L354.531 230.902L344.582 228.867L337.289 227.511L334.859 227.567L330.223 226.945L328.584 227.341L327.397 229.207L326.153 231.129L325.136 233.107L356.735 230.789ZM193.424 351.704L191.445 352.778L184.266 357.301L178.952 356.848L177.709 357.64L175.561 357.809L170.53 358.092L169.229 358.601L161.824 361.032L149.162 354.418L146.901 353.287L141.7 348.934L139.721 347.295L133.164 344.356L124.798 344.299L115.584 345.938L107.613 343.564L100.773 340.681L94.0463 335.707L87.0367 332.993L83.1362 325.136L79.9706 316.656L76.0701 309.59L77.0311 297.041L77.1442 286.414L76.8615 285.792L193.424 351.704ZM21.0677 227.68L20.4459 225.589L18.0151 221.293L16.8846 216.77L18.2978 209.648L21.0677 227.68ZM302.411 181.157L300.772 182.457L299.076 183.984L297.663 185.679L296.532 187.545L302.411 181.157ZM4.78742 162.672L3.65685 160.976L2.97851 154.532L2.80892 152.384L1 150.349L4.78742 162.672Z" stroke="url(#paint25_linear_50_1387)" stroke-linecap="round" stroke-linejoin="round"/>
<path d="M319.426 69.8525L319.765 70.3048L320.67 71.4353L321.065 72.2833L321.574 73.6965L324.344 78.8971L325.192 80.0277L327.453 83.0803V83.1368L329.036 85.2849L329.432 85.7936M300.941 145.431L302.75 146.223L305.124 147.127L307.838 148.145L307.894 148.201L311.456 154.985L312.36 156.681L312.756 157.359L312.925 158.15L315.469 167.534L315.526 167.647L317.561 168.608L319.257 169.795L319.313 170.021L321.065 180.31L321.687 191.333L322.818 197.721L323.835 203.204L300.941 145.431ZM325.135 233.107L326.153 234.521L330.506 237.234L332.315 238.873L336.102 241.304L342.151 244.696L325.135 233.107ZM192.632 351.705L191.445 352.779L185.905 357.414L183.983 359.053L176.352 357.923L192.632 351.705ZM306.424 271.83L306.368 271.886L305.407 272.904L304.107 275.052L303.711 275.221L302.411 276.748L300.772 278.896L297.606 283.983L297.267 284.662L306.424 271.83ZM303.542 179.066L304.276 178.275L305.294 177.709L306.594 177.314L308.007 177.088L309.816 177.031L311.456 177.144L313.321 177.427L315.017 177.879L316.769 178.501L318.804 179.292L303.542 179.066ZM317.73 201.338L316.713 201.282L315.808 201.338L315.017 201.508L314.338 201.791L313.773 202.186L313.208 202.695L312.36 203.26L311.625 203.882L310.777 204.617L309.59 205.352L308.459 206.2L307.442 207.104L306.424 208.065L305.52 209.139L304.672 210.326L303.937 211.514L303.259 212.814L302.637 214.17L302.072 215.584L301.676 217.053L301.28 218.58L301.054 220.162L300.998 221.802V223.441L301.167 225.193L301.393 226.946L301.733 228.755L301.959 230.507L302.072 232.147L302.298 233.786L302.524 236.838L303.089 239.778L295.684 246.787L286.413 253.175L282.456 256.002L277.651 259.45L276.973 259.959L262.445 262.615L247.804 264.255L234.35 266.233L222.762 270.643L210.382 273.921L198.172 278.161L185.679 283.531L172.451 287.658L159.054 289.014L146.561 287.319L134.408 286.584L122.367 286.188L109.083 287.94L98.6814 285.17L88.9585 282.287L317.73 201.338ZM315.978 215.131L315.356 215.414L314.734 215.753L313.491 216.545L312.36 217.449L311.851 218.014L311.399 218.58L310.89 219.145L310.438 219.767L310.042 220.445L309.703 221.123L309.307 221.802L309.025 222.537L308.742 223.215L308.459 224.006L308.233 224.741L307.668 226.211L307.442 226.889L307.329 227.285L307.272 227.681L307.159 228.076V228.416L307.103 228.811V229.15L315.978 215.131Z" stroke="url(#paint26_linear_50_1387)" stroke-linecap="round" stroke-linejoin="round"/>
<path d="M5.52231 168.269L5.35272 167.93L5.91801 159.903L6.03107 158.207L4.10909 156.115L3.82645 153.345L3.43075 150.293L3.03504 146.788L2.97852 146.336L3.5438 145.149L5.57884 141.248L5.91801 135.652L10.6664 131.525L13.5494 129.038L20.2763 122.65L23.2723 123.385H25.2508L29.0383 117.111L29.6601 116.036L31.6951 115.98L34.2389 116.15L44.0749 119.654L52.4411 113.549L58.2071 115.132L61.4292 115.245L67.4778 108.066L69.9651 98.5126L67.4778 84.2108L66.6299 69.6829L71.4913 60.0165L77.0877 51.0284L81.6665 40.7402L81.7796 40.4576L87.4324 31.0738L88.563 29.8867L90.4284 28.7561L97.325 28.6996L108.009 36.444L116.827 41.4751L124.515 44.245L130.62 42.6057L135.595 28.1343L142.039 15.5284L149.953 7.6709L158.941 7.78396L160.637 9.31023L167.647 15.6414L175.9 25.3644L183.757 30.7911L191.332 28.0778L199.077 24.4599L207.386 18.9201L214.961 18.4114L219.879 20.5029L222.932 21.8596L229.998 28.3604L237.516 33.6176L245.656 37.9703L253.796 35.483L261.71 34.1829L262.502 34.7482L268.55 39.327L269.285 39.8357L269.511 39.9488L270.246 40.2314L273.582 41.5881L278.952 43.7362L287.318 42.4926L287.714 42.4361L290.936 42.1534L299.019 42.8318L304.446 46.8453L305.633 48.9934L305.972 49.3326L305.633 62.8429L305.351 75.3923L309.082 79.0667L314.621 81.667L315.752 91.503L317.109 101L316.487 111.345L315.243 121.689L313.66 131.865L313.378 141.418L314.056 150.745L317.391 159.677L317.448 159.846L320.331 161.372L321.066 171.208L323.496 181.327V181.44L323.666 192.294L324.231 200.434L324.118 203.486L322.14 215.188L317.109 222.48L314.678 225.815L314.508 226.381L310.551 237.347L307.046 249.614L304.955 263.237L299.359 275.221L291.388 285.453L285.453 291.445L282.796 294.158L282.739 294.667L281.722 295.854L275.673 300.433H275.447L275.39 300.49L272.96 300.659L270.812 299.868L267.816 298.229L264.593 295.854L261.484 292.971L258.884 290.484L245.882 292.802L244.187 291.276L242.83 289.58L241.304 287.149L239.382 283.418L237.855 279.631L236.612 275.674L235.481 271.264L234.351 266.233L233.785 261.485L233.05 255.832L232.146 249.557L231.807 243.622L231.015 236.895L230.902 230.677L231.637 225.024L233.05 219.597L234.972 214.17L237.007 208.574L239.212 202.865L241.812 197.212L245.204 191.615L248.822 185.906L252.779 180.197L256.792 174.544L259.958 169.06L263.746 163.69L268.098 158.49L271.49 153.798L275.277 149.388L279.347 145.205L282.57 141.701L284.492 139.1L285.905 137.122L286.979 135.652L288.109 134.634L289.636 133.786L291.614 133.165L294.271 132.543L296.25 132.486L297.324 133.108L298.624 133.843L299.698 144.753L299.811 144.979L301.054 147.975L303.824 154.702L303.937 154.928L305.746 155.267L306.199 156.172L307.951 159.846L309.364 162.786L310.608 165.499L310.721 165.725L311.456 177.144L313.773 188.732L313.83 188.845L315.13 192.972L317.73 201.282L318.804 201.508L319.935 201.791L321.179 202.13L322.535 202.638L323.836 203.204L324.457 203.826L322.535 215.47L316.996 222.197L314.678 225.815L314.508 226.381L314.395 226.889L314.339 227.228L314.113 228.133L311.851 237.799L311.23 241.248L309.703 249.896L308.403 262.389L306.99 265.781L306.199 268.325L305.916 270.756L305.464 272.847L305.407 272.904L305.068 273.978L303.316 279.744L303.203 280.026L302.863 280.592L300.263 284.549L298.285 288.279L296.193 289.297L295.458 289.58H295.345L292.519 290.088L288.053 292.067L287.205 292.519L286.47 292.971L284.944 293.367L284.435 293.819L282.739 294.667L280.195 293.537L278.273 292.463L275.843 290.428L261.484 292.971L248.144 294.78L238.025 300.037L235.764 298.624L233.785 297.098L231.411 294.045L229.15 290.541L227.511 287.432L226.267 284.322L225.193 280.874L224.062 276.408L222.762 270.643L221.066 263.463L219.766 256.454L218.805 249.501L218.353 242.887L217.901 235.821L218.296 229.546L219.484 223.724L221.349 218.071L222.875 211.74L224.402 205.239L226.21 198.795L228.528 192.463L231.807 186.358L235.425 180.14L239.156 173.922L242.095 167.93L245.939 162.051L250.687 156.115L255.379 150.462L260.128 145.036L265.441 139.722L271.151 134.521L276.804 129.773L279.913 126.72L283.191 124.007L286.753 121.633L288.053 120.841L289.466 120.446L290.879 120.389L293.31 120.163L296.193 120.05L298.341 120.615L300.037 121.689L300.998 123.329L302.637 124.911L305.011 126.438L304.616 136.952L306.312 138.591L309.421 139.948L313.378 141.418L318.013 142.944L323.214 144.64L329.375 146.505L335.82 148.71L343.281 151.141L346.447 154.702L349.669 158.49L351.648 162.673L353.117 167.138L354.531 171.774L355.718 176.579L350.178 182.684L343.508 188.619L343.564 192.294L343.225 196.025L343.055 199.869L343.677 203.882L344.751 208.122L346.447 212.588L345.825 216.714L342.999 220.388L338.194 221.18L333.558 222.028L331.523 224.006L326.775 224.515L321.009 224.798L314.678 225.759L307.16 230.168L302.411 235.312L294.667 240.004L284.209 243.509L274.599 247.861L261.032 249.557L246.674 250.123L232.146 249.557L218.805 249.501L206.312 250.01L193.989 250.349L181.948 250.857L169.738 253.458L156.624 256.736L142.378 260.241L129.32 259.506L119.654 254.362L118.806 244.639L118.071 234.916L117.393 225.024L118.297 213.888L120.332 202.299L123.046 190.824L126.268 179.518L130.055 168.608L134.012 157.924L138.195 147.41L141.87 136.048L145.77 123.611L151.479 113.436L158.15 106.2L164.877 101.226L171.208 95.46L177.37 89.0723L183.644 83.6455L190.258 76.4098L197.098 69.796L202.977 68.3262L211.739 74.0356L217.448 71.7179L224.515 66.5173L234.859 69.2307L245.148 74.0356L252.214 69.909L262.841 75.788L269.172 73.1312L274.147 72.5093L278.5 72.9616L283.587 72.905L287.657 74.3183L290.936 76.6359L294.836 78.6144L300.263 79.632L302.298 83.6455L303.259 94.6121L303.881 105.466L304.955 115.81L305.011 126.438L306.764 128.416L309.816 130.169L313.66 131.865L319.2 133.334L326.945 134.465L336.837 135.539L345.147 137.687L351.365 140.74L356.735 144.47L356.509 149.501L354.983 154.815L354.757 160.016L355.435 165.216L358.262 170.474L360.749 175.957L363.801 181.723L362.049 187.319L362.332 189.637L358.148 195.912L354.757 202.13L352.778 207.5L352.665 207.726L352.496 213.096L351.648 215.414L345.825 216.714L340.398 218.071L335.707 219.654L335.254 219.88L334.915 219.993L333.106 221.745L327.114 223.102L321.179 224.119L314.678 225.759L308.629 235.199L305.69 246.9L297.493 256.341L288.844 265.611L280.478 275.391L269.342 282.683L255.888 286.697L242.83 289.58L231.411 294.045L221.236 300.603L211.061 308.121L200.659 316.657L189.523 323.836L177.765 326.097L166.516 324.684L162.672 317.222L158.941 311.682L155.154 307.895L143.283 309.365L138.704 306.369L135.821 297.946L134.408 286.584L132.542 277.369L130.62 268.834L129.32 259.506L129.094 248.822L129.264 238.139L129.942 227.285L131.299 216.149L133.956 204.617L136.669 193.65L139.778 182.966L142.887 172.622L146.618 162.56L150.462 152.554L154.362 142.209L158.772 131.582L163.746 121.124L169.399 111.684L175.391 104.9L181.383 98.5126L187.432 92.4075L193.593 86.3589L200.207 79.3493L206.199 75.9011L216.148 80.706L221.575 78.1057L231.185 84.2108L241.36 90.5985L253.005 96.534L262.106 106.144L271.433 115.98L279.913 126.72L284.492 139.1L288.166 151.084L293.819 162.164L296.419 173.3L299.076 183.984L305.351 194.724L309.59 205.352L313.773 216.318L314.678 225.815L314.508 226.381L314.452 226.833L314.226 227.85L311.569 237.743L310.043 244.357L308.968 249.896L309.308 250.066L307.668 262.842L307.612 263.011L306.99 265.781L306.651 268.551L306.425 270.982L306.538 271.547L306.425 271.83L306.312 272.056L304.22 276.295L303.033 278.783L302.242 280.422L301.733 281.553L299.019 285.001L295.571 289.523L295.289 289.806L293.932 290.484L289.41 293.141L288.336 294.554L284.096 300.377L283.417 313.152L279.46 322.536L277.821 323.893L272.847 328.132L272.79 328.189L267.42 329.206L265.441 331.58L261.428 336.442L256.171 337.912L249.896 336.725L244.3 336.103L239.495 336.725L232.824 347.069L223.327 349.387L218.579 352.892L213.774 356.114L202.808 353.288L197.098 352.553L196.307 352.27L195.459 351.931L194.837 351.987L193.424 351.705L192.858 351.648L192.632 351.705L183.644 354.531L182.74 354.475L181.101 354.362L180.931 354.305H180.818L174.487 353.796L172.734 353.288L171.999 353.118L163.803 352.779L155.267 353.74L146.901 353.288L141.248 345.091L135.595 339.042L127.455 338.816L119.145 338.534L113.831 332.711L109.761 324.684L105.861 317.109L103.6 307.217L99.7557 300.885L95.1769 295.967L92.8027 293.876L92.7461 293.819L89.0718 292.802L87.2628 291.841L84.4929 290.371L83.2493 289.693L82.1187 289.071L81.7796 288.732L79.4053 286.018L76.6354 282.796L68.0996 280.422L67.4778 279.913L62.6729 273.017L56.2851 265.894L53.1195 255.889L51.254 244.865L53.1195 232.09L59.1115 218.353L63.7469 206.03L66.3472 194.724L69.5694 183.645L71.4913 172.735L74.3178 161.881L76.5224 150.858L77.766 139.157L78.8966 126.664L80.7055 113.662L84.7756 101.565L90.5415 90.6551L96.0813 79.2363L106.765 75.0531L111.514 73.866L116.997 72.4528L123.554 71.7179L133.843 78.4449L142.435 76.6359L150.858 80.3668L155.041 83.0237L159.733 86.0197L166.347 83.3063L172.508 77.3143L178.896 67.3087L187.771 66.913L197.098 69.796L206.199 75.9011L211.739 74.0356L221.575 78.1057L227.737 74.2617L238.081 78.8971L248.2 85.3414L260.523 90.6551L269.907 100.321L277.708 111.514L283.191 124.007L285.905 137.122L288.957 149.162L294.497 160.242L298.68 171.435L300.772 182.458L305.972 193.481L310.777 204.617L314.395 215.923L314.678 225.759L307.216 230.903L302.524 236.838L295.062 242.378L285.17 247.014L276.182 252.666L262.163 254.758L247.465 255.662L233.05 255.832L219.766 256.454L207.104 257.358L194.95 259.054L182.683 260.92L170.19 263.803L156.85 267.873L142.718 271.264L130.62 268.834L120.389 264.594L108.405 263.859L96.364 263.237L85.9062 260.976L74.77 259.506L64.8775 257.076L53.1195 255.889L40.9093 254.758L40.6266 254.306L37.6872 248.766L29.7731 241.869L28.7556 240.795L24.516 235.877L24.4594 235.425L24.2333 235.029L23.8376 234.69L22.7636 232.994L21.4634 230.903L21.9156 219.88L21.5765 218.297L20.3894 214.736L20.4459 213.605L20.3328 211.796L19.7675 209.196L18.9196 206.935L18.1847 205.013L17.789 204.108L15.0757 198.116L14.6234 196.986L13.9451 195.064L13.8886 194.951L13.0972 192.972L11.2882 190.202L7.10511 183.475L3.60033 178.444L5.52231 168.269V168.043L6.25718 164.255L6.53983 158.546L6.82247 153.232L6.879 152.328L6.93553 151.141L5.91801 149.558L4.73091 147.975L3.20463 146.505V146.11L5.40925 143.792L10.6099 138.309L18.2978 131.243V130.79L23.2723 123.385L23.668 122.876L27.9642 116.828L28.3034 116.376L29.6601 116.036L29.7731 115.867L34.352 108.688L37.0653 108.518L43.8488 102.13L49.3886 95.4035L50.3496 85.5109L47.8058 72.1136L45.9403 58.038L46.9013 57.1335L52.7238 51.5937L58.0375 50.5197L64.6514 50.9719L71.1522 51.3676L75.1092 45.9408L77.1442 43.1709L81.7796 40.4576L89.4675 42.0969L100.66 49.8979L110.044 47.8063L116.827 41.4751L122.311 31.3564L127.624 19.0332L134.747 17.8461L142.039 15.5284L150.632 18.9201L159.676 26.0427L168.551 36.5571L176.748 44.3015L184.605 51.6502L191.445 49.7848L199.077 54.9854L207.612 56.7378L214.396 53.6853L223.554 55.8334L233.559 58.038L240.908 54.3071L250.687 58.9424L258.997 66.7999L269.172 73.1312L278.047 81.9496L279.065 83.5324L285.17 92.8032L286.753 97.8907L289.183 105.861L289.466 120.446L289.636 133.786L292.745 145.318L297.719 156.228L302.411 167.478L303.542 179.066L303.203 180.027L307.16 191.389L306.651 192.35L311.625 203.882L315.017 215.584L314.678 225.872L314.452 227.002L311.117 237.63L309.082 246.335L308.403 249.953L307.046 263.237L306.538 263.52L306.425 263.746L305.577 266.12L301.959 275.73L301.733 276.069L298.906 280.422L296.476 284.888L296.363 285.792L295.345 286.753L295.289 287.432L293.084 289.523L292.519 290.088L289.862 290.597L288.957 290.88L285.113 293.593L284.887 294.045L283.926 295.119L279.517 300.377L276.408 300.433H275.39L272.225 301.281L269.681 302.581L268.89 304.164L264.65 312.078L264.48 312.417L257.132 319.031L252.327 317.901L247.465 315.866L242.265 312.474L238.195 310.495L234.69 309.082L231.637 307.895L228.415 305.803L225.702 304.051L223.384 302.525L221.236 300.603L218.975 297.607L217.053 294.498L215.357 290.88L213.831 286.81L212.587 282.174L210.382 273.921L208.404 265.216L207.104 257.358L206.312 250.01L205.351 241.643L205.125 234.295L205.86 228.076L207.499 222.48L209.026 216.036L210.495 208.97L212.248 201.96L214.396 195.064L216.883 188.224L219.54 181.384L222.875 174.657L226.437 168.043L229.772 161.655L233.729 155.38L238.195 149.162L242.66 143.283L247.465 137.63L252.666 132.091L258.601 126.494L265.272 120.841L271.433 115.98L277.708 111.514L281.665 109.083L285.566 107.161L289.183 105.861L290.992 106.2L291.727 107.501L291.784 108.235L293.31 120.163L294.271 132.543L296.193 144.018L299.585 152.724L300.376 154.928L305.011 166.064L305.294 177.709L309.025 189.411L314.678 201.677L318.013 214.509L317.109 215.866L314.678 225.759L307.273 231.581L302.807 238.308L295.289 244.639L285.848 250.236L277.086 256.85L262.445 259.054L247.522 260.072L233.785 261.485L221.066 263.463L208.404 265.216L196.307 268.381L183.927 271.943L171.095 275.504L157.189 281.27L144.583 279.178L132.542 277.369L121.237 275.165L108.744 275.447L96.9858 274.6L87.5455 271.377L76.3528 270.19L65.7819 268.494L56.2851 265.894L49.0494 261.937L48.9364 261.881L45.3751 258.715L41.6442 255.38L40.9658 254.814L40.9093 254.758V254.701L40.6832 254.136L38.2524 243.735L41.7572 230.055L47.6927 216.375L50.6888 204.278L56.9634 192.181L60.8639 180.988L64.5383 170.191L67.9865 159.564L71.774 149.162L74.4874 138.478L75.2788 126.438L77.2007 114.284L78.9531 110.044L79.0662 109.818L81.723 103.374L82.9101 99.7562L82.9667 99.4735L84.0972 95.2904L84.2103 95.0643L85.1713 86.8111L88.5065 84.7195L91.8982 81.9496L96.0813 79.2363L103.543 79.9146L114.679 85.3979L126.042 91.4465L136.669 96.534L144.639 91.3334L152.045 86.6415L159.733 86.0197L168.268 88.5635L174.487 82.8541L180.874 75.1662L187.771 66.913L194.272 63.8039L202.977 68.3262L209.082 66.0651L215.696 62.1646L223.554 55.8334L231.015 51.6502L240.908 54.3071L247.974 51.8764L258.771 54.7593L266.233 63.8039L274.147 72.5093L274.486 72.9616L279.856 81.3278L281.213 82.9672L282.287 85.0587L282.852 86.0197L286.414 91.8987" stroke="url(#paint27_linear_50_1387)" stroke-linecap="round" stroke-linejoin="round"/>
<path d="M141.587 338.985L137.743 335.932L132.825 329.318L129.829 319.822M5.5223 168.211L5.35271 167.929L4.78742 162.672L4.7309 161.767L3.65685 160.976L2.52628 154.588L2.46975 153.401L1.22612 150.914L1 150.348L3.03503 146.787L5.5223 168.211Z" stroke="url(#paint28_linear_50_1387)" stroke-linecap="round" stroke-linejoin="round"/>
<path d="M171.999 353.117L164.707 351.082L159.167 349.556L159.054 349.5L158.998 349.443M149.105 344.921L144.979 341.642L143.509 338.929L140.287 332.88L132.825 329.319L125.815 325.475L123.045 317.73L122.989 316.769L122.48 316.148L114.962 315.017L105.861 317.109L95.9681 319.652L87.941 318.352L149.105 344.921ZM108.631 301.959L107.783 301.111L107.161 300.715L106.935 300.546L103.995 298.285L101.564 296.306L99.1903 294.497L91.5024 290.484L83.1361 289.24L82.1186 289.07L80.5923 288.109L77.8224 286.3L76.8049 285.679L71.6043 282.57L67.9864 280.308L67.4777 279.913L66.9689 279.8L60.9768 276.464L58.9418 274.203L58.7722 274.034L54.1934 269.003L53.8542 268.324L46.3924 260.523L41.4744 255.323L40.8526 254.701L38.7611 252.496L38.0262 251.422L108.631 301.959ZM12.9274 192.689L11.6273 189.241L8.5182 181.496L17.054 169.625L23.9505 158.432L32.3733 148.257L43.1138 139.608L54.9848 132.712L61.8813 124.911L66.4036 116.375L72.4522 109.026L76.07 100.095L76.9745 88.4499L74.7699 72.3958L78.5573 61.4292L84.1536 52.1585L89.4673 42.0964L99.4164 39.8918L108.009 36.4435L113.944 27.625L119.71 17.3368L125.985 7.1051L131.016 3.31768L133.786 1.16959L141.813 1L150.575 5.18313L159.224 7.67039L167.647 9.93154L175.787 14.2842L183.701 14.8495L191.445 13.7755L199.133 12.871L206.482 14.1712L207.217 14.5669L207.669 14.793L214.226 18.0151L215.074 18.3543L221.745 20.672L226.323 21.2373L230.28 21.746L238.025 21.0112L245.543 21.2938L250.009 27.3989L251.309 29.2078L259.11 28.9252L266.911 29.2078L273.186 33.5605L273.299 33.6171L274.486 34.1824L281.269 39.4961L289.862 39.2699L296.193 41.7007L299.019 42.8313L305.69 49.1625L305.972 49.3321L309.081 55.211L309.929 57.3026L310.382 58.3767L311.682 61.5423L314.339 70.8695L321.009 73.5264L322.592 83.0797L328.301 85.3409L329.432 85.7931L330.167 86.641L335.311 92.52L337.12 101.734L338.589 106.991L343.112 114.623L342.49 122.198L348.821 127.398L349.047 132.542L351.365 140.682V140.739L343.281 151.14L333.502 161.089L329.771 169.851L333.615 175.335L330.675 183.192L332.145 185.736L334.406 188.506L336.554 191.445L338.194 194.498L339.55 197.72L340.455 200.999L335.876 205.804L332.484 210.948L333.615 213.209L334.858 215.583L335.989 218.014L335.028 219.879L334.915 219.992L327.453 221.688L321.348 223.441L314.678 225.758L309.76 236.612L306.538 248.652L298.963 258.658L290.936 268.72L283.757 279.687L273.412 287.996L258.884 290.484L257.131 288.449L255.888 286.696L253.909 283.417L251.705 279.291L250.065 275.503L249.048 271.886L248.2 268.042L247.804 264.254L247.522 260.071L247.465 255.662L246.674 250.122L245.713 244.13L245.091 238.195L244.752 232.429L244.921 226.889L245.713 221.632L246.9 216.487L248.652 211.456L250.744 206.482L253.288 201.507L256.623 196.646L259.732 191.671L263.18 186.697L266.515 181.779L270.077 176.917L273.638 172.282L276.973 167.76L280.365 163.577L283.191 159.733L285 156.397L286.809 153.514L288.166 151.084L288.957 149.162L290.031 147.636L291.275 146.335L292.745 145.318L294.497 144.526L296.193 144.018L297.719 143.905L298.624 144.244L299.698 144.753L300.941 145.431V145.544L302.92 149.501L305.69 155.097L305.746 155.267L308.007 155.719L309.194 158.546L310.495 161.542L312.36 166.064L312.417 166.177L313.321 177.426L315.073 188.901V189.015L316.6 194.215L318.691 201.168L318.748 201.394L318.804 201.507L319.991 214.339L319.426 215.131L317.335 219.823L314.678 225.758L308.629 235.198L305.407 246.052L297.154 255.153L297.493 256.34L298.115 257.527L298.963 258.658L300.15 259.902L301.62 261.089L303.372 262.276L304.955 263.237L305.916 263.519H306.764L307.046 263.237L307.668 262.841L308.403 262.389L309.307 261.88L310.495 249.783L312.134 237.799L314.169 228.359L314.339 227.511L314.508 226.776L314.678 225.815L316.6 220.218L318.239 215.357L319.03 214.339L316.713 201.281L315.582 197.72L312.699 188.788L312.077 186.188L309.816 177.03L309.421 165.499L309.307 165.272L303.937 154.928L302.411 154.758H300.998L300.376 154.928L299.585 155.323L297.719 156.228L296.306 157.358L295.062 158.715L294.497 160.241L293.819 162.163L292.405 164.481L291.049 167.081L289.636 170.077L291.275 180.14L295.288 189.523L301.393 198.907L306.425 208.065L312.643 217.222L314.678 225.758L307.555 232.881L303.485 241.134L296.08 248.822L286.922 255.945L277.199 263.067L277.425 265.837L277.651 268.268L278.443 270.812L279.404 273.186L280.478 275.39L282.004 277.652L283.757 279.687L285.848 281.835L287.714 283.417L289.636 284.661L291.388 285.453L293.197 286.018L295.345 286.753L296.702 285.735L297.267 284.661L298.454 283.587L300.206 282.739L301.733 281.552L303.202 280.026L304.898 278.556L306.82 277.03L309.081 275.56L310.608 273.468L312.19 271.603L314.112 269.003L314.565 265.724L315.073 262.728L315.865 259.958L315.978 258.601L316.261 257.075L316.487 253.005L316.939 251.592L317.674 249.952L318.522 248.257L319.539 246.617L320.783 244.978L321.8 243.226L322.648 241.304L321.292 236.781L318.974 232.089L314.678 225.758L316.769 221.575L320.5 214.452L320.67 213.548L319.935 201.677L318.126 195.346L316.374 189.41V189.241L315.017 177.878L313.83 166.799L312.417 166.177L310.721 165.725L309.421 165.499L307.951 165.442L306.368 165.668L305.011 166.064L303.598 166.686L302.411 167.477L301.337 168.551L300.489 169.851L298.68 171.434L296.419 173.3L294.384 175.391L292.688 177.652L291.275 180.14L289.466 182.853L293.253 191.671L299.811 200.49L305.52 209.139L312.134 217.731L314.678 225.758L319.991 228.472L324.683 230.167L326.153 231.128L327.34 231.976L332.315 234.124L334.689 235.368L338.929 237.234L346.786 240.456L346.899 240.512L353.513 236.499L356.452 231.355L356.735 230.789L354.813 225.419L346.843 224.402L339.72 223.836L336.272 224.288L331.523 224.006L329.884 225.419L328.584 227.341L325.927 227.398L320.613 226.267L314.678 225.758L308.12 234.407L305.011 245.034L296.871 253.796L287.827 262.276L288.222 263.972L288.844 265.611L289.805 267.194L290.936 268.72L292.632 270.416L294.61 272.055L297.041 273.808L299.358 275.221L300.885 275.73H301.959L302.976 275.447L303.937 274.938L303.994 274.769L304.785 272.225L305.577 268.55L306.311 265.554L306.764 263.519L307.894 249.896L311.569 237.742H312.19L312.699 237.629L313.095 237.516L313.491 237.347L313.886 237.12L314.395 236.894L314.904 236.612L315.808 235.933L316.656 235.085L317.108 234.577L317.561 234.124L318.465 232.994L318.861 232.429L319.087 231.75L319.257 231.015L314.678 225.758L316.034 216.544L315.978 215.131L312.36 203.26L307.159 191.389L307.668 190.597L308.233 189.919L309.025 189.41L310.099 189.015L311.399 188.845L312.699 188.788L313.83 188.845L315.073 189.015L316.374 189.41L317.9 189.862L319.709 190.541L321.687 191.332L323.666 192.293L325.079 193.311L325.362 194.328L325.588 195.459L324.853 205.804L325.136 206.651L325.475 207.556L325.757 208.573L326.266 209.704L326.718 210.891L327.171 212.135L327.566 213.435L327.792 214.735L328.075 216.148L328.245 217.618L322.026 221.236L314.678 225.758L315.582 236.103L316.374 245.769L315.695 251.309L315.243 254.644L315.186 254.927L314.056 260.976L313.264 262.728L312.134 271.151L311.569 272.225L310.608 273.864L309.873 274.995L308.742 277.595L308.686 277.821L306.481 280.252L304.503 282.683L301.902 284.887L299.867 286.47L297.832 288.279L296.193 289.353L295.345 289.749L291.105 291.388L290.483 291.671L285.848 293.48L285.057 293.593L283.643 294.045L283.078 294.836L278.669 298.341L277.764 298.963L275.673 300.433L273.242 300.376L272.62 300.715L272.281 301.168L270.698 301.563L269.737 302.524L267.25 303.711L263.519 302.637L260.071 301.563L257.301 300.941L246.108 303.316L238.194 310.495L231.354 320.613L223.949 330.789L216.431 342.66L207.669 352.496L197.098 352.552L196.307 352.269L195.459 351.93L194.498 351.082L191.276 349.273L185.679 344.016L175.447 343.734L174.317 343.394L171.547 342.547L162.389 343.055L153.458 343.225L144.979 341.642L141.587 338.985L135.595 339.042L130.281 333.05L125.815 325.475L118.806 322.648L109.761 324.683L99.8121 327.51L91.1067 327.227L83.1361 325.136L82.1751 325.418L72.2261 326.945L59.6202 317.448L56.6241 309.195L54.1934 300.659L54.8717 289.579L51.9323 282.174L49.445 274.373L44.6966 268.211L31.695 268.946L23.4983 266.063L15.98 262.841L15.6973 262.728L15.3016 261.202L15.1321 259.788L14.7929 257.697L14.1711 254.079L11.2316 248.144L10.7793 247.126L10.3836 246.335L8.85737 237.46L7.3311 233.333L7.10498 232.146L12.023 221.914L15.4147 212.474L12.5317 208.517L10.7793 204.334L13.4927 196.194L10.5532 192.576L11.2881 190.202L12.9274 192.689Z" stroke="url(#paint29_linear_50_1387)" stroke-linecap="round" stroke-linejoin="round"/>
<path d="M305.69 270.699L304.729 273.751L304.616 273.978L303.994 274.882L304.05 275.165L303.372 276.804L301.054 281.1L300.206 282.74L297.097 285.679M291.049 104.278L291.218 105.409V106.2L291.727 107.5L293.084 108.688L296.193 120.05L296.249 132.486L296.928 137.969L297.719 143.905L297.776 144.131L299.076 148.427L300.546 153.232L300.998 154.758L306.368 165.669L306.594 177.313L310.099 189.015L315.017 201.508L291.049 104.278ZM8.06592 226.154L10.7228 215.357L12.5317 208.517L16.1495 200.547L8.06592 226.154ZM314.678 225.815L314.565 226.267L314.452 226.606L314.395 227.285L313.943 229.942L312.699 237.743L312.869 237.912L311.229 249.501L310.155 260.863L310.382 261.372L309.873 263.52L308.855 266.968L307.838 268.777L307.159 270.925L314.678 225.815Z" stroke="url(#paint30_linear_50_1387)" stroke-linecap="round" stroke-linejoin="round"/>
<path d="M313.095 237.517L312.869 237.686V237.912L311.625 249.331L311.23 249.557L310.891 249.783" stroke="url(#paint31_linear_50_1387)" stroke-linecap="round" stroke-linejoin="round"/>
<path d="M18.75 131.072L25.9291 124.572L26.551 123.837L26.7771 123.554L34.8607 126.211L44.0749 119.654L51.8758 122.254L57.0765 123.724M315.243 217.222L314.678 225.758L316.43 235.311L317.843 243.904L317.391 247.691L316.939 251.592L316.487 253.005L315.243 254.644L314.339 255.944L313.378 257.131L311.682 262.106L310.438 265.837L309.986 266.006L308.855 266.967L307.838 268.776L306.99 270.246L306.651 271.207L315.243 217.222ZM272.62 300.941L272.281 301.167L271.886 301.337L270.699 301.563L263.519 302.637L254.588 307.951L250.066 305.464L246.109 303.315L242.886 301.846L272.62 300.941ZM84.2103 95.0636L85.5104 91.898L85.6235 91.6719L86.4714 90.4283L91.8982 81.949L93.8767 80.14L94.9507 79.1791L97.0988 77.144L99.8687 74.6002L106.765 75.0525H113.718L120.106 72.9044L123.554 71.7173L134.069 72.6782L141.757 69.23L148.596 63.8598L154.815 55.2109L161.372 45.2618L168.551 36.5564L176.182 32.4863L84.2103 95.0636Z" stroke="url(#paint32_linear_50_1387)" stroke-linecap="round" stroke-linejoin="round"/>
<path d="M26.6075 123.498L31.4124 116.319L31.6951 115.979L31.7516 115.866L36.2174 109.705L37.0653 108.518M41.4745 255.323L41.0223 255.21L39.0438 254.588L36.6696 253.796L28.3599 251.422L18.2412 249.557L41.4745 255.323ZM271.094 301.789L269.738 302.524L267.25 303.711L259.449 310.382L252.327 317.9L246.109 327.227L240.286 335.65L239.495 336.724L271.094 301.789ZM342.49 122.198L342.32 124.515L336.837 135.538L329.375 146.505L326.153 156.002L325.418 165.159L326.04 174.43L327.397 176.409L327.227 185.736L327.001 187.093L325.588 195.459L325.871 196.759L325.023 206.199L323.609 216.714L323.722 216.883L323.892 217.166L323.949 217.844L322.705 219.201L314.678 225.758L308.064 225.08L300.998 223.44L292.632 221.801L285.622 220.727L275.447 218.522L263.293 215.526L248.652 211.456L237.007 208.573L224.401 205.238L212.248 201.96L200.886 199.246L189.297 196.702L176.748 193.706L164.029 190.032L152.214 186.358L139.778 182.966L126.268 179.518L111.909 175.9L101.791 172.508L92.4634 169.286L84.9451 166.46L80.0837 164.198L74.3177 161.881L67.9865 159.563L63.8034 157.698L56.2285 155.21L44.3575 151.762L32.3734 148.257L20.5589 144.696L17.9586 143.226L14.1712 141.474L12.7014 140.343L11.8535 139.326L10.6099 138.308L7.78342 136.838L5.91797 135.651L342.49 122.198Z" stroke="url(#paint33_linear_50_1387)" stroke-linecap="round" stroke-linejoin="round"/>
<path d="M292.01 291.614L291.501 292.801L288.505 299.811L288.901 313.095L287.487 314.678L283.191 319.539L281.721 322.083L278.669 327.51L270.416 329.714L265.441 331.58M5.57861 141.248L7.78323 136.838L8.91381 136.16L18.0149 130.62L5.57861 141.248Z" stroke="url(#paint34_linear_50_1387)" stroke-linecap="round" stroke-linejoin="round"/>
<path d="M99.2471 295.628L98.9644 295.515L97.212 294.837L92.7463 293.819L92.5767 293.65L92.4071 293.537L89.0719 292.802M278.669 327.51L272.451 328.415L272.395 328.471L270.812 329.715L269.964 330.224L278.669 327.51ZM31.1299 290.428L30.9604 290.088L26.7207 281.892L24.0073 276.691L31.1299 290.428ZM81.7231 103.374L82.9668 99.4735L83.9278 96.8167L84.0408 96.534L85.6802 91.6726L90.5416 90.655L97.3816 91.0507L107.048 94.3294L118.41 99.5866L129.038 103.826L139.213 106.766L151.48 113.436L163.746 121.124L175.448 127.851L187.149 133.334L199.133 139.552L209.082 147.975L218.749 155.38L229.772 161.655L242.095 167.93L256.793 174.544L266.516 181.779L275.391 188.845L282.231 195.459L288.901 201.791L295.571 208.009L302.637 214.17L310.269 220.106L314.678 225.759L318.692 232.712L320.783 238.082L320.387 239.439L319.992 240.739L319.426 241.926L318.578 242.943L317.109 244.865L316.374 245.77L315.582 246.561L314.621 253.91L313.943 255.719L313.378 257.132L312.304 258.206L311.456 259.28L311.399 259.337L310.834 261.541L310.269 263.972L309.986 266.007L309.308 275.391L308.969 276.239L306.312 280.196L304.729 282.514L303.316 284.435L301.903 286.301L301.846 296.137L299.246 301.677L298.567 303.147L295.967 306.708L295.741 307.047L81.7231 103.374ZM353.513 236.499L347.352 240.682L346.617 241.191L343.451 245.374L342.321 246.787L342.151 247.579L339.098 249.783L336.611 251.423L336.272 252.779L331.411 257.81L331.184 258.037L326.436 263.237L353.513 236.499ZM84.2104 95.0643L85.6236 91.6726L85.9063 91.0507L88.5066 84.7195L89.0719 83.702L93.9899 74.9966L94.8943 74.3182L102.017 68.7219L112.023 66.8564L119.71 62.3341L127.003 64.5953L134.634 67.7044L141.757 69.2306L150.462 75.788L158.489 80.4233L84.2104 95.0643ZM214.226 18.0156L215.074 18.3548L221.745 20.6725L228.924 21.1812L238.025 21.0116L245.091 26.6645L248.031 28.4169L249.5 29.2648L252.779 31.2433L214.226 18.0156ZM177.709 357.64L176.522 357.866L176.352 357.923L171.265 358.658L169.23 358.601L161.824 361.032L177.709 357.64Z" stroke="url(#paint35_linear_50_1387)" stroke-linecap="round" stroke-linejoin="round"/>
<path d="M40.9093 254.758L40.7963 254.645L39.4961 253.119L38.196 251.649L38.0264 251.423L34.6912 247.635L29.7732 241.869L28.7557 240.795L28.473 228.529L35.1999 214.509L41.192 201.621L46.6187 189.637L52.2716 178.331L59.4508 167.873L63.8035 157.698L66.9691 147.466L70.4173 137.404L72.735 126.664L74.8266 117.902L75.3919 115.697L77.2008 114.284L80.7056 113.662L87.9978 115.415L97.8338 118.863L107.5 122.085L116.488 124.459L128.02 128.868L141.87 136.048L154.362 142.209L166.007 147.127L177.878 151.141L190.597 156.172L201.168 163.408L211.57 169.286L222.875 174.657L235.425 180.14L248.822 185.906L259.732 191.672L269.455 197.212L280.308 202.921L287.94 207.839L294.271 212.361L301.676 217.053L309.195 222.141L314.678 225.759L321.857 221.802L322.196 221.123L322.592 220.558V219.936L322.762 219.371L322.988 218.862L322.931 218.297L323.496 217.506L323.553 217.449L323.666 217.053L323.61 216.714L323.553 216.092L322.931 215.866L322.535 215.47L322.14 215.188L321.688 214.905L321.235 214.736L320.727 214.566L320.274 214.453L319.766 214.34H319.257L318.805 214.396L318.296 214.453L317.731 214.566L317.165 214.736L316.543 214.905L315.639 215.301L315.526 216.997L314.678 225.759V226.098L314.169 228.585L313.943 229.659L312.699 237.63V237.686L312.53 237.743H312.021L311.682 237.799L311.399 237.743L311.173 237.686L310.834 237.517L310.551 237.347L309.138 235.934L308.799 235.482L308.46 234.916L308.121 234.408L307.894 233.786L307.668 233.22L307.499 232.599L307.329 231.92L307.216 231.242L307.16 230.564L307.103 229.829L307.216 228.359L307.329 227.624L307.555 226.55L307.668 226.211L314.678 225.759L320.783 225.533L326.436 225.985L329.884 225.42L331.524 224.006L333.332 221.915L334.52 220.784L335.311 219.88L336.328 218.806L337.346 217.619L337.798 217.223L338.137 214.396L337.629 211.513L337.12 208.687L335.876 205.804L334.689 203.091L333.559 200.49L332.371 198.003L331.184 195.629L329.602 193.311L328.245 191.22L327.453 189.241L327.058 187.432L327.284 185.849L327.058 184.267L325.418 182.74L323.496 181.44L321.066 180.31L318.805 179.292L317.561 168.608L315.074 158.603V158.489L314.904 158.207L314.508 157.415L310.721 149.332L307.838 148.145L306.312 138.591L306.764 128.416L306.82 118.241V107.783L303.881 105.466L300.885 103.431L296.476 102.526L293.31 101.169L291.614 89.6375L290.936 76.6359L291.784 61.0905L288.505 48.6542L285.453 47.0714L280.987 44.8102L278.952 43.7362L271.716 44.0188L264.085 45.4886L255.662 48.8803L245.487 46.5626L237.742 49.8978L228.585 47.5236L219.992 45.3755L212.644 40.6836L206.03 32.487L199.077 24.4599L191.389 19.8811L183.701 14.85L181.044 13.4368L175.787 10.6104L167.647 9.93201L159.224 7.67086L150.575 5.18359L148.144 5.975L141.926 8.06656L134.182 8.7449L125.985 7.10557L118.976 9.31019L111.457 15.0196L105.635 24.5729L97.325 28.6995L87.7151 31.2999L83.1928 33.3349L82.3449 33.7306L81.8927 34.5785L80.9317 36.2744L80.8186 36.557L77.1442 43.1709L72.5089 45.6016L64.6514 50.9719L64.1426 51.8763L61.1466 57.077L59.5638 59.7903L60.0726 73.6399L63.6339 88.7896L63.4643 99.6431L59.903 107.67L52.4412 113.549L46.9014 112.136L34.239 116.149L34.0694 116.319L26.9467 123.611L26.3815 123.837L25.0813 123.724L18.6936 131.017L18.524 131.299L17.5064 132.882L11.8536 139.326L5.18319 147.466L4.73096 147.975L5.07013 150.689L6.03112 158.207L6.53988 158.546M107.161 303.599L105.126 302.299L104.391 301.79L98.9078 298.172L97.2685 297.154L94.9508 296.024L107.161 303.599Z" stroke="url(#paint36_linear_50_1387)" stroke-linecap="round" stroke-linejoin="round"/>
<path d="M296.363 285.791L295.515 286.413L294.723 286.979L291.106 289.579L289.862 290.483L289.636 290.653L289.353 290.879L289.014 291.105M320.331 71.9434L320.5 72.3956L320.953 73.1305L321.122 73.5262L324.344 78.8964L320.331 71.9434ZM362.049 187.318L361.936 187.601L356.566 191.897L348.652 195.854L343.055 199.868L340.455 204.277L337.12 208.686L333.615 213.209L328.301 217.561L328.019 218.862L327.68 220.275L327.454 221.688L326.775 224.514L326.436 225.984L325.927 227.397L325.305 228.754L324.684 230.167L324.005 231.524L322.535 234.124L321.914 235.481L321.292 236.781L320.783 238.081L321.801 243.225L320.896 247.239L362.049 187.318ZM317.674 254.362L316.374 257.244L315.865 258.94V259.958L314.735 264.989L314.508 265.893L313.434 268.663L312.134 271.151L317.674 254.362ZM286.922 316.317L285.34 321.122L285.17 321.574L284.379 323.948L283.926 325.362L286.922 316.317ZM298.907 303.372L298.002 305.181L296.815 307.668L296.024 309.703L294.045 314.847L292.688 318.296L287.827 323.327L284.548 323.948L298.907 303.372ZM82.1189 289.07L80.5926 288.109L77.6531 286.3L76.8052 285.678L75.505 284.774L67.9867 280.308L66.9692 279.799L60.9771 276.464L58.9421 274.034L55.1547 269.455L54.3067 268.381L49.0496 261.936L82.1189 289.07ZM334.237 251.705L333.106 252.609L332.145 253.853L331.693 256.227L329.771 257.81L326.493 260.58L322.649 265.667L321.857 266.459L334.237 251.705ZM194.837 351.987L193.593 351.647L193.198 351.534L186.867 349.839L181.044 346.503L176.861 344.751L174.317 343.394L173.469 342.433L170.078 339.776L164.99 335.706L158.207 334.519L194.837 351.987ZM21.4636 230.902L21.0679 227.68L20.9548 226.38L20.8417 225.532L20.7287 223.384L20.3895 214.735L20.333 211.795L19.8242 209.252L21.4636 230.902Z" stroke="url(#paint37_linear_50_1387)" stroke-linecap="round" stroke-linejoin="round"/>
<path d="M317.674 201.224L317.73 201.337L319.992 214.226L320.5 214.509L316.939 222.083L314.678 225.758L317.335 234.35L319.426 241.925L318.974 245.147L318.522 248.256L317.674 254.361L316.713 256.679L316.6 257.188L315.865 258.94L314.904 263.406L314.508 265.893L313.604 268.324L313.434 268.889L312.134 271.942L310.551 275.051L308.742 277.708L308.686 277.821L307.555 279.743L305.011 284.039L304.898 292.97L304.785 293.197L303.598 295.458L301.563 298.963L301.054 299.867L300.885 300.263L300.32 300.771L298.567 303.146M18.75 117.053L20.8416 115.018L25.5334 108.743L29.2078 109.083L32.9952 109.026L36.6131 102.016L37.348 100.49L39.2134 97.0419L41.4745 92.9719L41.5311 82.514L40.8527 70.8691L44.2445 62.9551L44.5271 62.2768L45.7707 58.6024L45.9403 58.0936V58.0371L18.75 117.053ZM24.5159 235.876L24.2333 235.029L22.8201 224.401L21.9156 219.314L20.4459 213.604L18.9761 207.329L24.5159 235.876ZM310.156 261.201L310.043 261.427L308.855 265.045L307.555 268.776L307.046 270.189L310.156 261.201Z" stroke="url(#paint38_linear_50_1387)" stroke-linecap="round" stroke-linejoin="round"/>
<path d="M322.987 217.166L314.678 225.758L315.13 236.442L315.582 246.561L314.734 247.239L313.886 247.861V247.918L312.586 256.453L312.304 258.206L310.834 261.258L309.647 262.106L308.403 265.555L307.555 268.607L306.99 270.303L306.933 271.094L304.955 278.274L304.898 278.556L302.072 283.022L301.959 283.248L299.867 286.47" stroke="url(#paint39_linear_50_1387)" stroke-linecap="round" stroke-linejoin="round"/>
<path d="M103.995 298.285L99.2469 295.628L98.625 295.458L97.2118 294.837L91.5024 290.484L85.1712 285.792L76.6354 282.796L70.3607 276.747L62.6728 273.017L55.1545 269.455L53.8543 268.325L50.1234 264.424L47.9188 261.824L47.2404 260.976L45.375 258.715M322.309 219.71L314.678 225.815L314.621 226.267L313.491 237.347V237.46L312.756 248.822L311.512 258.997L311.456 259.28L310.777 260.298L310.155 261.202L309.647 262.107L308.855 265.046L306.933 270.303L306.651 271.208L322.309 219.71ZM290.144 312.982L289.409 313.774L289.014 314.169L288.731 314.791L287.996 316.544L286.526 319.314L284.491 323.949L283.926 325.362L290.144 312.982Z" stroke="url(#paint40_linear_50_1387)" stroke-linecap="round" stroke-linejoin="round"/>
<defs>
<linearGradient id="paint0_linear_50_1387" x1="165.414" y1="7.6709" x2="165.414" y2="340.682" gradientUnits="userSpaceOnUse">
<stop stop-color="#A6A6A6"/>
<stop offset="1" stop-color="#717171"/>
</linearGradient>
<linearGradient id="paint1_linear_50_1387" x1="186.386" y1="96.5342" x2="186.386" y2="298.794" gradientUnits="userSpaceOnUse">
<stop stop-color="#A6A6A6"/>
<stop offset="1" stop-color="#717171"/>
</linearGradient>
<linearGradient id="paint2_linear_50_1387" x1="188.251" y1="144.47" x2="188.251" y2="239.608" gradientUnits="userSpaceOnUse">
<stop stop-color="#A6A6A6"/>
<stop offset="1" stop-color="#717171"/>
</linearGradient>
<linearGradient id="paint3_linear_50_1387" x1="164.82" y1="130.79" x2="164.82" y2="336.442" gradientUnits="userSpaceOnUse">
<stop stop-color="#A6A6A6"/>
<stop offset="1" stop-color="#717171"/>
</linearGradient>
<linearGradient id="paint4_linear_50_1387" x1="216.657" y1="75.7871" x2="216.657" y2="356.113" gradientUnits="userSpaceOnUse">
<stop stop-color="#A6A6A6"/>
<stop offset="1" stop-color="#717171"/>
</linearGradient>
<linearGradient id="paint5_linear_50_1387" x1="179.744" y1="14.2842" x2="179.744" y2="344.016" gradientUnits="userSpaceOnUse">
<stop stop-color="#A6A6A6"/>
<stop offset="1" stop-color="#717171"/>
</linearGradient>
<linearGradient id="paint6_linear_50_1387" x1="187.375" y1="80.3662" x2="187.375" y2="326.775" gradientUnits="userSpaceOnUse">
<stop stop-color="#A6A6A6"/>
<stop offset="1" stop-color="#717171"/>
</linearGradient>
<linearGradient id="paint7_linear_50_1387" x1="177.68" y1="127.398" x2="177.68" y2="349.274" gradientUnits="userSpaceOnUse">
<stop stop-color="#A6A6A6"/>
<stop offset="1" stop-color="#717171"/>
</linearGradient>
<linearGradient id="paint8_linear_50_1387" x1="206.058" y1="60.8643" x2="206.058" y2="281.326" gradientUnits="userSpaceOnUse">
<stop stop-color="#A6A6A6"/>
<stop offset="1" stop-color="#717171"/>
</linearGradient>
<linearGradient id="paint9_linear_50_1387" x1="166.177" y1="57.9248" x2="166.177" y2="225.759" gradientUnits="userSpaceOnUse">
<stop stop-color="#A6A6A6"/>
<stop offset="1" stop-color="#717171"/>
</linearGradient>
<linearGradient id="paint10_linear_50_1387" x1="174.487" y1="101.734" x2="174.487" y2="352.892" gradientUnits="userSpaceOnUse">
<stop stop-color="#A6A6A6"/>
<stop offset="1" stop-color="#717171"/>
</linearGradient>
<linearGradient id="paint11_linear_50_1387" x1="178.839" y1="9.64844" x2="178.839" y2="361.031" gradientUnits="userSpaceOnUse">
<stop stop-color="#A6A6A6"/>
<stop offset="1" stop-color="#717171"/>
</linearGradient>
<linearGradient id="paint12_linear_50_1387" x1="168.523" y1="1.16992" x2="168.523" y2="308.573" gradientUnits="userSpaceOnUse">
<stop stop-color="#A6A6A6"/>
<stop offset="1" stop-color="#717171"/>
</linearGradient>
<linearGradient id="paint13_linear_50_1387" x1="187.63" y1="75.7871" x2="187.63" y2="321.009" gradientUnits="userSpaceOnUse">
<stop stop-color="#A6A6A6"/>
<stop offset="1" stop-color="#717171"/>
</linearGradient>
<linearGradient id="paint14_linear_50_1387" x1="160.524" y1="14.5664" x2="160.524" y2="354.53" gradientUnits="userSpaceOnUse">
<stop stop-color="#A6A6A6"/>
<stop offset="1" stop-color="#717171"/>
</linearGradient>
<linearGradient id="paint15_linear_50_1387" x1="196.363" y1="10.6104" x2="196.363" y2="335.933" gradientUnits="userSpaceOnUse">
<stop stop-color="#A6A6A6"/>
<stop offset="1" stop-color="#717171"/>
</linearGradient>
<linearGradient id="paint16_linear_50_1387" x1="180.931" y1="21.7461" x2="180.931" y2="361.031" gradientUnits="userSpaceOnUse">
<stop stop-color="#A6A6A6"/>
<stop offset="1" stop-color="#717171"/>
</linearGradient>
<linearGradient id="paint17_linear_50_1387" x1="186.64" y1="21.2939" x2="186.64" y2="356.114" gradientUnits="userSpaceOnUse">
<stop stop-color="#A6A6A6"/>
<stop offset="1" stop-color="#717171"/>
</linearGradient>
<linearGradient id="paint18_linear_50_1387" x1="182.599" y1="100.49" x2="182.599" y2="347.521" gradientUnits="userSpaceOnUse">
<stop stop-color="#A6A6A6"/>
<stop offset="1" stop-color="#717171"/>
</linearGradient>
<linearGradient id="paint19_linear_50_1387" x1="250.433" y1="225.758" x2="250.433" y2="358.092" gradientUnits="userSpaceOnUse">
<stop stop-color="#A6A6A6"/>
<stop offset="1" stop-color="#717171"/>
</linearGradient>
<linearGradient id="paint20_linear_50_1387" x1="273.157" y1="189.637" x2="273.157" y2="359.053" gradientUnits="userSpaceOnUse">
<stop stop-color="#A6A6A6"/>
<stop offset="1" stop-color="#717171"/>
</linearGradient>
<linearGradient id="paint21_linear_50_1387" x1="183.899" y1="72" x2="183.899" y2="357.866" gradientUnits="userSpaceOnUse">
<stop stop-color="#A6A6A6"/>
<stop offset="1" stop-color="#717171"/>
</linearGradient>
<linearGradient id="paint22_linear_50_1387" x1="181.213" y1="34.2949" x2="181.213" y2="312.416" gradientUnits="userSpaceOnUse">
<stop stop-color="#A6A6A6"/>
<stop offset="1" stop-color="#717171"/>
</linearGradient>
<linearGradient id="paint23_linear_50_1387" x1="153.458" y1="34.1826" x2="153.458" y2="260.863" gradientUnits="userSpaceOnUse">
<stop stop-color="#A6A6A6"/>
<stop offset="1" stop-color="#717171"/>
</linearGradient>
<linearGradient id="paint24_linear_50_1387" x1="185.425" y1="39.5527" x2="185.425" y2="347.239" gradientUnits="userSpaceOnUse">
<stop stop-color="#A6A6A6"/>
<stop offset="1" stop-color="#717171"/>
</linearGradient>
<linearGradient id="paint25_linear_50_1387" x1="178.868" y1="57.3027" x2="178.868" y2="361.032" gradientUnits="userSpaceOnUse">
<stop stop-color="#A6A6A6"/>
<stop offset="1" stop-color="#717171"/>
</linearGradient>
<linearGradient id="paint26_linear_50_1387" x1="215.555" y1="69.8525" x2="215.555" y2="359.053" gradientUnits="userSpaceOnUse">
<stop stop-color="#A6A6A6"/>
<stop offset="1" stop-color="#717171"/>
</linearGradient>
<linearGradient id="paint27_linear_50_1387" x1="183.39" y1="7.6709" x2="183.39" y2="356.114" gradientUnits="userSpaceOnUse">
<stop stop-color="#A6A6A6"/>
<stop offset="1" stop-color="#717171"/>
</linearGradient>
<linearGradient id="paint28_linear_50_1387" x1="71.2935" y1="146.787" x2="71.2935" y2="338.985" gradientUnits="userSpaceOnUse">
<stop stop-color="#A6A6A6"/>
<stop offset="1" stop-color="#717171"/>
</linearGradient>
<linearGradient id="paint29_linear_50_1387" x1="181.92" y1="1" x2="181.92" y2="353.117" gradientUnits="userSpaceOnUse">
<stop stop-color="#A6A6A6"/>
<stop offset="1" stop-color="#717171"/>
</linearGradient>
<linearGradient id="paint30_linear_50_1387" x1="161.541" y1="104.278" x2="161.541" y2="285.679" gradientUnits="userSpaceOnUse">
<stop stop-color="#A6A6A6"/>
<stop offset="1" stop-color="#717171"/>
</linearGradient>
<linearGradient id="paint31_linear_50_1387" x1="311.993" y1="237.517" x2="311.993" y2="249.783" gradientUnits="userSpaceOnUse">
<stop stop-color="#A6A6A6"/>
<stop offset="1" stop-color="#717171"/>
</linearGradient>
<linearGradient id="paint32_linear_50_1387" x1="168.297" y1="32.4863" x2="168.297" y2="307.951" gradientUnits="userSpaceOnUse">
<stop stop-color="#A6A6A6"/>
<stop offset="1" stop-color="#717171"/>
</linearGradient>
<linearGradient id="paint33_linear_50_1387" x1="174.204" y1="108.518" x2="174.204" y2="336.724" gradientUnits="userSpaceOnUse">
<stop stop-color="#A6A6A6"/>
<stop offset="1" stop-color="#717171"/>
</linearGradient>
<linearGradient id="paint34_linear_50_1387" x1="148.794" y1="130.62" x2="148.794" y2="331.58" gradientUnits="userSpaceOnUse">
<stop stop-color="#A6A6A6"/>
<stop offset="1" stop-color="#717171"/>
</linearGradient>
<linearGradient id="paint35_linear_50_1387" x1="188.76" y1="18.0156" x2="188.76" y2="361.032" gradientUnits="userSpaceOnUse">
<stop stop-color="#A6A6A6"/>
<stop offset="1" stop-color="#717171"/>
</linearGradient>
<linearGradient id="paint36_linear_50_1387" x1="171.434" y1="5.18359" x2="171.434" y2="303.599" gradientUnits="userSpaceOnUse">
<stop stop-color="#A6A6A6"/>
<stop offset="1" stop-color="#717171"/>
</linearGradient>
<linearGradient id="paint37_linear_50_1387" x1="190.937" y1="71.9434" x2="190.937" y2="351.987" gradientUnits="userSpaceOnUse">
<stop stop-color="#A6A6A6"/>
<stop offset="1" stop-color="#717171"/>
</linearGradient>
<linearGradient id="paint38_linear_50_1387" x1="169.625" y1="58.0371" x2="169.625" y2="303.146" gradientUnits="userSpaceOnUse">
<stop stop-color="#A6A6A6"/>
<stop offset="1" stop-color="#717171"/>
</linearGradient>
<linearGradient id="paint39_linear_50_1387" x1="311.427" y1="217.166" x2="311.427" y2="286.47" gradientUnits="userSpaceOnUse">
<stop stop-color="#A6A6A6"/>
<stop offset="1" stop-color="#717171"/>
</linearGradient>
<linearGradient id="paint40_linear_50_1387" x1="183.842" y1="219.71" x2="183.842" y2="325.362" gradientUnits="userSpaceOnUse">
<stop stop-color="#A6A6A6"/>
<stop offset="1" stop-color="#717171"/>
</linearGradient>
</defs>
</svg>
