<svg width="776" height="839" viewBox="0 0 776 839" fill="none" xmlns="http://www.w3.org/2000/svg">
<g clip-path="url(#clip0_0_1)">
<path d="M776 1.06738C775.601 0.707705 775.197 0.352488 774.791 -0.000488281H776V1.06738Z" fill="#434343"/>
<path d="M620.004 25.8679C602.143 48.1592 591.187 71.9942 589.944 91.2628C589.419 99.4082 590.638 106.611 593.566 112.672C596.716 119.195 601.867 124.414 608.874 128.183C625.376 137.058 639.923 151.839 653.99 166.132C667.337 179.693 679.945 192.501 694.055 200.668C701.619 205.047 708.887 207.652 716.274 208.635C724.544 209.734 732.771 208.791 741.427 205.751C754.131 201.289 765.748 194.353 776 185.115V186.297C765.795 195.376 754.265 202.21 741.679 206.631C732.907 209.71 724.566 210.666 716.18 209.551C708.693 208.555 701.332 205.918 693.677 201.488C679.469 193.267 666.826 180.419 653.437 166.816C639.412 152.567 624.909 137.831 608.517 129.014C601.349 125.158 596.076 119.807 592.84 113.112C589.834 106.892 588.585 99.5199 589.12 91.1958C590.377 71.7261 601.407 47.6901 619.388 25.2513C626.864 15.922 635.292 7.26506 643.948 -0.00227356H645.334C636.408 7.379 627.701 16.2638 620.004 25.8679Z" fill="#434343"/>
<path d="M631.729 28.1578C615.823 48.0407 605.745 69.7489 604.085 87.7151C603.357 95.5745 604.243 102.596 606.718 108.581C609.376 115.015 613.881 120.254 620.107 124.152C633.231 132.371 645.49 144.817 657.346 156.852C669.832 169.526 682.741 182.631 696.619 190.738C704.07 195.092 711.204 197.701 718.429 198.718C726.534 199.86 734.55 198.982 742.936 196.035C755.133 191.75 766.25 185.003 776 175.973V177.166C766.293 186.031 755.263 192.673 743.181 196.917C734.679 199.904 726.548 200.793 718.324 199.634C711.001 198.604 703.775 195.961 696.235 191.556C682.261 183.392 669.312 170.247 656.789 157.533C644.966 145.532 632.742 133.122 619.701 124.954C607.401 117.251 601.715 104.339 603.261 87.6168C606 58.0358 630.847 21.1004 659.301 -0.000106812H660.816C650.659 7.36777 640.67 16.9809 631.729 28.1578Z" fill="#434343"/>
<path d="M776 6.11253V7.31445C773.166 4.69391 770.196 2.25433 767.103 0.000167847H768.605C771.158 1.91252 773.626 3.94997 776 6.11253Z" fill="#434343"/>
<path d="M643.596 30.3186C629.683 47.7196 620.484 67.2227 618.362 83.8239C616.329 99.7258 620.817 112.281 631.341 120.132C641.028 127.359 650.212 136.782 659.937 146.757C684.662 172.12 710.231 198.348 744.438 186.333C756.041 182.258 766.583 175.761 775.772 167.029C775.848 166.955 775.924 166.881 776 166.807V168.021C766.799 176.689 756.267 183.147 744.685 187.215C710.023 199.389 684.276 172.98 659.377 147.438C649.677 137.488 640.514 128.089 630.881 120.902C620.074 112.84 615.463 99.9738 617.543 83.6966C619.688 66.9189 628.96 47.2392 642.978 29.7065C652.939 17.2472 664.463 6.94829 675.986 0.000411987H677.751C665.857 6.8902 653.89 17.4438 643.596 30.3186Z" fill="#434343"/>
<path d="M759.527 0.0444393C765.45 3.50274 770.957 7.62677 776 12.3674V13.585C770.856 8.6723 765.224 4.41422 759.146 0.862092C758.643 0.569433 758.137 0.281245 757.63 -0.000244141H759.449C759.476 0.0153942 759.5 0.028801 759.527 0.0444393Z" fill="#434343"/>
<path d="M696.607 0.862457C682.466 5.82874 667.926 16.9878 655.664 32.282C643.79 47.0915 635.48 64.2601 632.862 79.3823C630.142 95.0877 633.503 107.79 642.581 116.117C648.606 121.644 654.635 128.058 661.022 134.851C673.15 147.753 685.691 161.092 699.656 169.857C715.484 179.789 730.625 182.003 745.942 176.623C756.548 172.899 766.184 166.961 774.583 158.977C775.06 158.523 775.531 158.063 776 157.598V158.823C775.708 159.109 775.415 159.399 775.118 159.681C766.634 167.745 756.903 173.742 746.189 177.504C730.645 182.964 715.29 180.725 699.252 170.661C685.196 161.841 672.617 148.459 660.453 135.519C654.079 128.739 648.059 122.336 642.058 116.829C632.733 108.273 629.272 95.2641 632.052 79.2059C634.699 63.9228 643.08 46.5955 655.05 31.6654C667.395 16.2662 682.045 5.02449 696.311 0.00012207H699.214C698.344 0.272675 697.473 0.55864 696.607 0.862457Z" fill="#434343"/>
<path d="M759.768 6.27358C765.646 9.7073 771.073 13.8537 776 18.6636V19.8945C770.979 14.9037 765.42 10.6166 759.384 7.09123C754.245 4.09091 748.901 1.72283 743.396 0.00038147H746.285C750.909 1.6357 755.41 3.729 759.768 6.27358Z" fill="#434343"/>
<path d="M759.625 13.3195C751.036 8.30405 741.813 5.23669 732.211 4.20233C722.272 3.13223 712.36 4.30063 702.751 7.67627C690.638 11.9299 678.309 21.257 668.033 33.9397C658.114 46.1822 650.908 60.4243 647.749 74.0407C645.992 81.6052 645.562 88.6492 646.468 94.976C647.434 101.723 649.911 107.491 653.827 112.116C655.287 113.838 656.748 115.581 658.297 117.428C669.769 131.107 682.772 146.614 697.647 157.219C714.837 169.477 731.127 172.649 747.448 166.917C757.057 163.541 765.786 158.164 773.396 150.93C774.284 150.085 775.152 149.219 776 148.334V149.585C775.322 150.28 774.634 150.966 773.929 151.634C766.235 158.948 757.407 164.385 747.693 167.799C731.124 173.619 714.609 170.413 697.201 158.001C682.241 147.333 669.2 131.782 657.692 118.063C656.146 116.217 654.684 114.475 653.227 112.754C649.192 107.991 646.644 102.062 645.651 95.1256C644.727 88.6715 645.162 81.5002 646.948 73.8129C650.141 60.0556 657.411 45.6751 667.419 33.3253C677.791 20.5242 690.252 11.1033 702.501 6.80054C712.217 3.38914 722.238 2.20734 732.289 3.2886C741.996 4.33414 751.322 7.435 760.007 12.5063C765.849 15.9176 771.2 20.1087 776 25.0147V26.2702C771.111 21.1632 765.63 16.8247 759.625 13.3195Z" fill="#434343"/>
<path d="M759.866 19.5452C744.034 10.2985 725.932 8.50235 708.892 14.4874C698.877 18.0037 689.172 25.1393 680.826 35.1187C673.074 44.3878 666.855 55.7926 663.314 67.2286C660.901 75.0187 659.786 82.4737 660 89.3836C660.225 96.6755 661.934 102.982 665.076 108.127C672.402 120.117 684.486 136.792 700.452 148.128C716.776 159.718 733.093 162.772 748.952 157.202C759.308 153.565 768.516 147.315 776.002 138.997V140.297C768.529 148.398 759.415 154.495 749.2 158.083C733.099 163.737 716.548 160.652 700.011 148.907C683.926 137.487 671.764 120.709 664.396 108.648C661.162 103.355 659.406 96.8855 659.174 89.4149C658.958 82.3911 660.087 74.8244 662.532 66.9248C666.112 55.3681 672.396 43.8471 680.224 34.4865C688.666 24.3909 698.493 17.1704 708.644 13.6049C725.894 7.54619 744.221 9.3647 760.248 18.7253C766.097 22.1412 771.381 26.4149 776 31.4013V32.6903C771.303 27.4984 765.887 23.0616 759.866 19.5452Z" fill="#434343"/>
<path d="M760.105 25.7737C746.107 17.5994 730.098 16.011 715.033 21.3012C707.421 23.9753 700.374 28.8522 694.088 35.7957C688.382 42.1001 683.48 50.0019 679.914 58.6477C676.647 66.5674 674.574 74.9249 673.915 82.8133C673.244 90.8738 674.076 98.2573 676.323 104.166C682.179 119.57 693.033 133.16 706.1 141.446C712.924 145.773 720.085 148.534 727.389 149.656C735.199 150.853 742.96 150.127 750.456 147.496C760.377 144.01 769.109 137.815 776.002 129.52V130.861C769.109 138.915 760.478 144.942 750.704 148.376C743.092 151.05 735.21 151.787 727.277 150.572C719.871 149.435 712.61 146.635 705.694 142.25C692.473 133.866 681.489 120.115 675.564 104.528C673.264 98.4784 672.411 90.9408 673.094 82.7284C673.759 74.735 675.859 66.2747 679.164 58.2612C682.77 49.5149 687.731 41.5193 693.508 35.1388C699.89 28.0904 707.049 23.1376 714.788 20.421C730.065 15.0548 746.294 16.6656 760.489 24.9561C766.34 28.3742 771.555 32.7596 776.002 37.9292V39.2718C771.488 33.8654 766.139 29.2991 760.105 25.7737Z" fill="#434343"/>
<path d="M760.346 32.0022C748.18 24.898 734.269 23.5173 721.174 28.115C714.779 30.3624 709.015 34.3949 704.045 40.1029C699.578 45.2345 695.84 51.5948 692.937 59.0073C687.786 72.1547 685.724 87.9516 687.559 100.23C688.596 107.18 690.89 113.52 694.376 119.076C697.65 124.295 701.903 128.721 707.017 132.233C713.29 136.54 720.739 139.33 728.556 140.304C736.4 141.28 744.491 140.409 751.96 137.786C761.493 134.438 769.758 128.211 776.002 119.82V121.246C769.736 129.348 761.573 135.376 752.208 138.667C744.632 141.327 736.422 142.21 728.467 141.22C720.529 140.233 712.962 137.395 706.587 133.019C701.376 129.44 697.04 124.927 693.702 119.606C690.145 113.936 687.804 107.468 686.747 100.38C684.89 87.9337 686.972 71.9402 692.182 58.6365C695.126 51.1211 698.919 44.6692 703.456 39.4572C708.522 33.6375 714.402 29.5247 720.929 27.2325C734.233 22.5589 748.367 23.9619 760.73 31.1823C766.621 34.6227 771.771 39.1891 776.002 44.638V46.0566C771.722 40.3352 766.436 35.5588 760.346 32.0022Z" fill="#434343"/>
<path d="M727.315 34.9296C717.144 38.5018 709.903 46.8526 705.179 60.458C701.182 71.9722 699.774 85.0034 698.77 96.3121C697.757 107.715 700.671 116.615 707.433 122.768C712.683 127.546 720.165 130.473 729.065 131.235C737.062 131.918 745.727 130.797 753.464 128.08C762.937 124.754 770.678 118.125 776.002 109.683V111.303C770.457 119.631 762.74 125.788 753.712 128.96C745.877 131.713 737.103 132.845 729.002 132.155C719.933 131.38 712.295 128.382 706.913 123.485C699.924 117.124 696.907 107.954 697.951 96.2227C698.962 84.8537 700.379 71.7488 704.413 60.1273C706.629 53.7424 709.474 48.3897 712.864 44.2209C716.774 39.411 721.556 35.9907 727.072 34.0538C738.404 30.0727 750.443 31.268 760.971 37.4183C766.969 40.9213 772.068 45.7959 776.004 51.6871V53.2934C765.342 36.48 745.814 28.433 727.315 34.9296Z" fill="#434343"/>
<path d="M733.456 41.7432C720.005 46.4682 717.414 59.3452 714.413 74.2574C713.214 80.2112 711.976 86.3682 709.952 92.3867C706.509 102.634 706.948 110.411 711.257 115.507C719.971 125.81 742.17 122.863 754.966 118.371C764.394 115.06 771.742 107.773 776 98.6755V100.588C771.559 109.2 764.34 116.047 755.211 119.253C742.22 123.817 719.632 126.753 710.657 116.143C706.114 110.771 705.616 102.67 709.18 92.065C711.182 86.1068 712.416 79.981 713.607 74.0564C715.107 66.6081 716.522 59.5708 719.298 53.7556C722.428 47.1943 726.849 43.097 733.209 40.863C749.9 35.0008 767.583 43.2065 776 59.4837V61.3916C768.094 44.5246 750.26 35.8408 733.456 41.7432Z" fill="#434343"/>
</g>
<g clip-path="url(#clip1_0_1)">
<path d="M257.746 709.435C255.119 745.908 232.035 790.926 194.406 832.957C192.587 834.989 190.738 837.002 188.865 839H186.493C188.738 836.625 190.948 834.23 193.12 831.801C230.495 790.049 253.422 745.403 256.024 709.312C257.125 694.058 254.572 680.567 248.444 669.21C241.851 656.992 231.072 647.218 216.409 640.156C181.881 623.531 151.436 595.848 121.999 569.076C94.068 543.675 67.6875 519.68 38.1574 504.386C25.1823 497.663 12.6229 493.172 0 490.758V489C12.8968 491.429 25.7154 495.988 38.9497 502.849C68.6803 518.25 95.1391 542.314 123.158 567.793C152.507 594.482 182.854 622.081 217.158 638.599C232.153 645.817 243.191 655.842 249.965 668.388C256.249 680.038 258.871 693.847 257.746 709.435Z" fill="#282828"/>
<path d="M228.152 716.134C224.102 755.325 196.91 801.401 160.274 839H157.814C161.472 835.283 165.067 831.449 168.583 827.516C201.869 790.27 222.953 749.61 226.43 715.957C227.951 701.232 226.098 688.084 220.919 676.869C215.353 664.818 205.929 655.004 192.905 647.703C165.443 632.306 139.786 608.997 114.976 586.451C88.8496 562.71 61.8382 538.166 32.7923 522.976C21.6316 517.138 10.8036 512.981 0 510.385V508.608C11.0726 511.228 22.1647 515.464 33.5992 521.443C62.8408 536.731 89.9354 561.358 116.14 585.168C140.877 607.65 166.46 630.896 193.751 646.19C219.49 660.626 231.385 684.807 228.152 716.134Z" fill="#282828"/>
<path d="M145.039 824.622C140.589 829.608 135.986 834.407 131.267 839H128.782C133.923 834.059 138.926 828.873 143.753 823.472C172.872 790.877 192.117 754.345 196.558 723.249C200.813 693.465 191.418 669.945 169.4 655.239C149.133 641.699 129.912 624.055 109.562 605.368C75.3757 573.983 40.4267 541.898 0 530.218V528.382C40.95 540.037 76.2267 572.416 110.726 604.09C131.022 622.728 150.199 640.333 170.358 653.795C192.973 668.897 202.622 692.995 198.27 723.489C193.78 754.918 174.379 791.778 145.039 824.622Z" fill="#282828"/>
<path d="M119.783 820.945C114.037 827.365 108.046 833.393 101.879 839H99.2962C105.918 833.075 112.345 826.66 118.497 819.789C143.342 792.047 160.733 759.893 166.211 731.564C171.904 702.148 164.871 678.353 145.875 662.756C133.267 652.404 120.649 640.387 107.288 627.664C81.9097 603.502 55.6661 578.518 26.4441 562.098C17.5332 557.098 8.73482 553.151 0 550.232V548.406C9.01359 551.373 18.0957 555.428 27.2853 560.594C56.6981 577.117 83.0199 602.18 108.476 626.42C121.813 639.118 134.412 651.116 146.971 661.429C166.485 677.452 173.728 701.825 167.908 731.902C162.372 760.52 144.829 792.978 119.783 820.945Z" fill="#282828"/>
<path d="M93.8969 817.85C86.8836 825.597 79.4057 832.683 71.6441 839H68.8906C77.1853 832.409 85.1621 824.926 92.6204 816.689C113.377 793.756 128.455 767.082 135.067 741.574C138.74 727.407 139.645 714.214 137.747 702.358C135.722 689.719 130.543 678.916 122.346 670.253C119.294 667.026 116.233 663.76 112.995 660.303C88.9866 634.682 61.7746 605.637 30.655 585.77C20.2916 579.164 10.0895 573.968 0 570.173V568.327C10.3977 572.186 20.9078 577.504 31.5794 584.316C62.8848 604.3 90.175 633.423 114.252 659.123C117.49 662.58 120.546 665.841 123.598 669.064C132.04 677.986 137.37 689.092 139.449 702.084C141.386 714.175 140.471 727.607 136.735 742.01C130.054 767.778 114.839 794.711 93.8969 817.85Z" fill="#282828"/>
<path d="M67.1055 815.656C58.625 824.735 49.4745 832.565 39.9033 839H36.7635C47.0145 832.384 56.8106 824.142 65.8437 814.476C82.0662 797.116 95.0804 775.755 102.495 754.33C107.547 739.737 109.88 725.776 109.43 712.828C108.955 699.17 105.385 687.359 98.8071 677.717C83.4796 655.254 58.1897 624.026 24.7813 602.787C16.5159 597.533 8.25063 593.228 0.00488281 589.849V587.974C8.56364 591.431 17.1371 595.882 25.7105 601.328C59.3684 622.723 84.8148 654.147 100.235 676.737C106.999 686.649 110.677 698.769 111.161 712.765C111.616 725.923 109.249 740.095 104.133 754.889C96.6357 776.543 83.4894 798.12 67.1055 815.656Z" fill="#282828"/>
<path d="M69.3259 771.127C61.7795 787.508 51.3965 802.488 39.3116 814.437C28.2488 825.372 16.0709 833.599 3.01268 839H0V838.354C13.7429 833.079 26.5321 824.642 38.0987 813.207C50.0418 801.401 60.2976 786.597 67.7609 770.403C74.5981 755.569 78.9362 739.914 80.3105 725.134C81.7141 710.037 79.973 696.208 75.273 685.136C63.0169 656.282 40.3093 630.828 12.9604 615.304C8.70059 612.885 4.37719 610.735 0.00489072 608.845V606.959C4.67063 608.948 9.27769 611.23 13.8163 613.806C41.4879 629.51 64.4645 655.264 76.8674 684.465C81.6799 695.796 83.465 709.919 82.0369 725.296C80.6332 740.266 76.2414 756.118 69.3259 771.127Z" fill="#282828"/>
<path d="M42.0846 770.422C35.9272 784.496 27.9896 796.582 18.4967 806.347C12.8039 812.199 6.61715 817.115 7.90413e-06 821.097V819.074C6.15742 815.269 11.9285 810.622 17.2593 805.137C26.6104 795.524 34.4307 783.61 40.5049 769.727C51.2841 745.1 55.5977 715.512 51.7585 692.516C49.587 679.499 44.7892 667.619 37.4922 657.213C30.6404 647.438 21.7441 639.148 11.0384 632.571C7.52682 630.412 3.82944 628.463 -0.00488281 626.719V624.824C4.15223 626.675 8.14794 628.761 11.9431 631.092C22.8494 637.796 31.9168 646.248 38.9057 656.214C46.3493 666.836 51.2449 678.951 53.4604 692.227C57.3486 715.541 52.9909 745.501 42.0846 770.422Z" fill="#282828"/>
<path d="M30.0192 700.027C27.9064 721.324 24.9427 745.868 16.4964 767.64C12.1192 778.928 6.57312 788.487 0 796.092V793.467C5.88842 786.263 10.8329 777.468 14.8873 767.013C23.2505 745.447 26.1996 721.04 28.3026 699.855C30.4251 678.495 24.3264 661.825 10.1776 650.303C7.13556 647.825 3.72673 645.626 0.00489072 643.692V641.747C4.14244 643.829 7.91807 646.233 11.2682 648.961C25.8915 660.87 32.2005 678.054 30.0192 700.027Z" fill="#282828"/>
<path d="M6.51443 707.814C3.80498 715.027 1.77533 722.363 0 729.649V722.676C1.39385 717.51 2.97356 712.334 4.89561 707.211C12.0996 688.02 11.1802 673.446 2.16659 663.907C1.48678 663.187 0.758061 662.501 0 661.85V659.617C1.22268 660.577 2.36711 661.605 3.41861 662.717C12.9311 672.775 13.9679 687.951 6.51443 707.814Z" fill="#282828"/>
</g>
<defs>
<clipPath id="clip0_0_1">
<rect width="187" height="210" fill="white" transform="matrix(1 0 0 -1 589 210)"/>
</clipPath>
<clipPath id="clip1_0_1">
<rect width="258" height="350" fill="white" transform="matrix(1 0 0 -1 0 839)"/>
</clipPath>
</defs>
</svg>
