<svg width="35" height="39" viewBox="0 0 35 39" fill="none" xmlns="http://www.w3.org/2000/svg">
<path d="M19.1154 27.1344C18.821 27.3732 18.4231 27.4289 18.0809 27.2618C17.7387 27.1026 17.5238 26.7604 17.5238 26.3784L17.5238 19.7413C11.3165 19.7652 7.02705 20.2109 1.8304 29.3866C1.65532 29.697 1.32904 29.88 0.978883 29.88C0.899305 29.88 0.811765 29.872 0.732183 29.8482C0.302446 29.7367 0.00799304 29.3468 0.00799308 28.9091L0.00799315 28.1372C-0.0317974 21.6513 -0.103421 8.28165 17.5238 7.64501L17.5238 0.976101C17.5238 0.602069 17.7387 0.251912 18.0809 0.0927493C18.4231 -0.0664131 18.8289 -0.0186643 19.1154 0.220079L34.4905 12.9133C34.7133 13.0963 34.8486 13.3749 34.8486 13.6613C34.8486 13.9558 34.7213 14.2264 34.4985 14.4094L19.1154 27.1344Z" fill="white"/>
<path d="M-0.000138987 38.029L-0.000138613 33.7475C-0.000138565 33.2064 0.43756 32.7687 0.978709 32.7687C1.51986 32.7687 1.95756 33.2064 1.95756 33.7475L1.95756 37.0581L32.6998 37.0581L32.6998 20.0437C32.6998 19.5025 33.1375 19.0648 33.6786 19.0648C34.2198 19.0648 34.6575 19.5025 34.6575 20.0437L34.6575 38.0211C34.6575 38.5622 34.2198 38.9999 33.6786 38.9999L0.978708 38.9999C0.437559 38.9999 -0.000139034 38.5622 -0.000138987 38.029Z" fill="white"/>
</svg>
