<svg width="37" height="39" viewBox="0 0 37 39" fill="none" xmlns="http://www.w3.org/2000/svg">
<path d="M32.6454 21.4094C32.7247 20.8 32.7643 20.1703 32.7643 19.5C32.7643 18.85 32.7247 18.2 32.6256 17.5906L36.6474 14.3812C37.004 14.0969 37.103 13.5484 36.8851 13.1422L33.0813 6.39844C32.8435 5.95156 32.3483 5.80937 31.9124 5.95156L27.1774 7.90156C26.1869 7.12969 25.1369 6.47969 23.968 5.99219L23.2548 0.832812C23.1755 0.345312 22.7793 0 22.3038 0H14.6962C14.2207 0 13.8443 0.345312 13.765 0.832812L13.0518 5.99219C11.883 6.47969 10.8131 7.15 9.84237 7.90156L5.10741 5.95156C4.67156 5.78906 4.17627 5.95156 3.93853 6.39844L0.154531 13.1422C-0.0832077 13.5687 -0.00396184 14.0969 0.392269 14.3812L4.41401 17.5906C4.31495 18.2 4.2357 18.8703 4.2357 19.5C4.2357 20.1297 4.27533 20.8 4.37438 21.4094L0.352646 24.6188C-0.00396181 24.9031 -0.103019 25.4516 0.114908 25.8578L3.91872 32.6016C4.15646 33.0484 4.65175 33.1906 5.0876 33.0484L9.82255 31.0984C10.8131 31.8703 11.8631 32.5203 13.032 33.0078L13.7452 38.1672C13.8443 38.6547 14.2207 39 14.6962 39H22.3038C22.7793 39 23.1755 38.6547 23.235 38.1672L23.9482 33.0078C25.117 32.5203 26.1869 31.8703 27.1576 31.0984L31.8926 33.0484C32.3284 33.2109 32.8237 33.0484 33.0615 32.6016L36.8653 25.8578C37.103 25.4109 37.004 24.9031 36.6275 24.6188L32.6454 21.4094ZM18.5 26.8125C14.5773 26.8125 11.3679 23.5219 11.3679 19.5C11.3679 15.4781 14.5773 12.1875 18.5 12.1875C22.4227 12.1875 25.6321 15.4781 25.6321 19.5C25.6321 23.5219 22.4227 26.8125 18.5 26.8125Z" fill="white"/>
</svg>
