<svg width="247" height="136" viewBox="0 0 247 136" fill="none" xmlns="http://www.w3.org/2000/svg">
<path d="M123.5 136C170.539 136 213.624 125.13 247 107.088V10C247 4.47716 242.523 0 237 0H10C4.47716 0 0 4.47715 0 10V107.088C33.3758 125.13 76.4614 136 123.5 136Z" fill="url(#paint0_linear_0_1)"/>
<circle cx="124" cy="68" r="44" fill="white" fill-opacity="0.46"/>
<circle cx="124.5" cy="59.5" r="6" stroke="white" stroke-width="3"/>
<path d="M139.5 77.5C139.5 78.6212 138.432 80.1263 135.547 81.4378C132.797 82.6877 128.893 83.5 124.5 83.5C120.107 83.5 116.203 82.6877 113.453 81.4378C110.568 80.1263 109.5 78.6212 109.5 77.5C109.5 76.3788 110.568 74.8737 113.453 73.5622C116.203 72.3123 120.107 71.5 124.5 71.5C128.893 71.5 132.797 72.3123 135.547 73.5622C138.432 74.8737 139.5 76.3788 139.5 77.5Z" stroke="white" stroke-width="3"/>
<defs>
<linearGradient id="paint0_linear_0_1" x1="123.5" y1="0" x2="123.5" y2="136" gradientUnits="userSpaceOnUse">
<stop stop-color="#7DC180"/>
<stop offset="1" stop-color="#8CC98F"/>
</linearGradient>
</defs>
</svg>
