<svg width="24" height="26" viewBox="0 0 24 26" fill="none" xmlns="http://www.w3.org/2000/svg">
<path d="M4.14286 17.875V10.9235C4.14286 10.5778 4.63113 10.5063 4.73026 10.8375L7.08991 18.7208C7.12296 18.8312 7.28571 18.8074 7.28571 18.6922V7M15.5357 6.625L12.5369 4.71665C12.2093 4.5082 11.7907 4.5082 11.4631 4.71665L10.106 5.58028C9.81753 5.76384 9.64286 6.08205 9.64286 6.42395V13.375M9.64286 20.875V13.375M9.64286 13.375H14.75M16.3214 7L18.4821 8.3125M20.6429 9.625L18.4821 8.3125M18.4821 8.3125V19M1 7.59363V18.4064C1 18.7723 1.19989 19.109 1.52115 19.2843L11.5211 24.7388C11.8196 24.9016 12.1804 24.9016 12.4789 24.7388L22.4789 19.2843C22.8001 19.109 23 18.7723 23 18.4064V7.59363C23 7.22769 22.8001 6.89097 22.4789 6.71574L12.4789 1.26119C12.1804 1.09839 11.8196 1.09839 11.5211 1.26119L1.52115 6.71574C1.19989 6.89097 1 7.22769 1 7.59363Z" stroke="black"/>
</svg>
