<svg width="259" height="288" viewBox="0 0 259 288" fill="none" xmlns="http://www.w3.org/2000/svg">
<g clip-path="url(#clip0_1_215)">
<path d="M140.339 163.543C133.596 157.683 125.508 157.044 125.508 157.044L126.988 155.869C132.909 155.824 135.899 152.507 135.899 152.507C137.469 153.548 144.241 153.429 144.241 153.429C144.331 160.985 140.339 163.543 140.339 163.543Z" fill="#F7F7F7"/>
<path d="M78.5193 87.1258C73.1073 86.8878 69.6089 89.2229 69.6089 89.2229C85.0227 90.6953 93.9779 97.4625 97.9398 123.907C93.664 127.253 91.6307 131.819 91.6307 131.819C104.877 121.854 121.666 127.149 127.676 133.708C127.317 128.16 122.369 124.546 122.055 124.323C133.761 129.425 134.209 142.2 133.402 145.859C132.595 149.533 130.382 150.038 130.382 150.038C131.847 147.108 130.696 143.36 130.696 143.36C128.409 155.08 103.143 168.793 87.7437 159.914C72.3597 151.02 59.7715 128.681 56.7366 115.756C53.8213 103.367 56.3927 98.7416 56.6021 98.3846C50.6518 104.81 50.4126 115.459 56.3928 131.313C51.5488 129.082 44.9557 125.468 44.9557 125.468C46.6003 109.837 56.7815 90.1896 56.7815 90.1896C63.838 81.8013 70.8647 83.6009 78.5193 87.1258Z" fill="#F7F7F7"/>
<path d="M41.0687 129.558C48.9923 134.035 59.637 138.125 59.637 138.125C63.1653 145.071 69.0109 151.868 69.0109 151.868C53.5522 149.979 39.6484 140.207 39.6484 140.207C38.2879 135.359 41.0687 129.558 41.0687 129.558Z" fill="#F7F7F7"/>
<path d="M106.94 173.895C105.55 170.623 103.143 167.975 103.143 167.975C112.98 165.893 118.317 161.937 118.317 161.937C132.954 160.494 139.92 171.336 139.92 171.336C130.367 167.886 110.872 170.013 106.94 173.895Z" fill="#F7F7F7"/>
<path d="M72.0159 71.5984C72.0159 71.5984 74.5874 78.1277 79.207 82.4706C79.207 82.4706 74.408 79.139 65.677 78.9754C65.677 78.9754 67.5906 74.811 72.0159 71.5984Z" fill="#F7F7F7"/>
<path d="M102.32 101.211C105.221 104.423 107.658 112.886 105.445 119.474C105.445 119.474 101.079 103.605 96.2056 97.8046C96.4 97.9236 99.6292 100.11 102.32 101.211Z" fill="#F7F7F7"/>
<path d="M125.404 108.469L125.269 110.447C118.287 111.488 118.512 119.638 120.171 121.051C119.229 121.482 118.287 122.404 118.287 122.404C115.372 120.917 111.051 120.709 111.051 120.709C114.624 113.049 110.528 104.542 110.528 104.542C118.497 107.561 125.404 108.469 125.404 108.469Z" fill="#F7F7F7"/>
<path d="M136.676 21.4617C124.267 21.0304 108.106 25.061 99.6741 34.1929C99.6741 34.1929 98.6425 33.4196 97.2372 32.8544C97.2372 32.8544 106.462 22.6515 123.565 18.8143C140.668 14.9622 157.338 22.9044 163.422 29.151C168.266 34.3119 166.517 38.1343 166.517 38.1343C160.821 27.634 149.1 21.9079 136.676 21.4617Z" fill="#F7F7F7"/>
<path d="M101.902 65.4559C108.285 75.4654 115.686 81.2956 134.493 86.397C118.093 84.4487 104.279 75.6588 101.902 65.4559Z" fill="#F7F7F7"/>
<path d="M133.447 115.355C131.309 113.124 129.739 112.023 129.739 112.023C129.664 110.699 130.083 109.197 130.083 109.197C147.261 110.149 150.565 107.576 150.565 107.576C150.819 108.93 150.266 111.458 150.266 111.458C143.18 115.875 135.585 117.571 133.447 115.355Z" fill="#F7F7F7"/>
<path d="M86.9363 47.1175C86.1738 42.2095 88.7304 37.7476 92.6474 37.1527C96.5644 36.5429 100.362 40.038 101.109 44.9312C101.872 49.8393 99.3152 54.3012 95.3982 54.8961C91.4812 55.5059 87.6988 52.0256 86.9363 47.1175Z" fill="#F7F7F7"/>
<path d="M208.647 90.2045C193.248 90.2045 180.735 77.741 180.735 62.4367C180.735 47.1175 193.263 34.6689 208.647 34.6689C224.046 34.654 236.574 47.1027 236.574 62.4218C236.574 77.741 224.046 90.2045 208.647 90.2045Z" fill="#F7F7F7"/>
<path d="M162.137 82.0839C162.137 82.0839 158.638 87.7505 149.354 90.4574C140.07 93.1791 120.53 93.5509 108.3 82.5152C96.071 71.4943 95.1889 59.6406 95.1889 59.6406H97.2222C97.2222 59.6406 98.8667 74.7664 115.013 83.5266C131.174 92.2867 149.832 91.2754 162.137 80.0612V82.0839Z" fill="#F7F7F7"/>
<path d="M119.005 17.1039C99.674 22.9639 93.9331 31.9471 93.9331 31.9471C93.7985 31.9323 93.6639 31.9323 93.5294 31.9323C92.9613 31.9323 92.4081 31.9769 91.8549 32.0661C85.1273 33.1072 80.6272 40.2016 81.8382 47.9058C82.7801 53.8996 86.7569 58.5102 91.7653 59.7596C91.7653 59.7596 92.9762 74.9895 108.465 86.4416C123.953 97.8789 147.276 96.466 158.04 89.4014C155.259 100.303 134.852 101.88 121.681 100.05C139.233 106.104 152.479 101.344 152.479 101.344C149.623 108.216 121.487 107.74 100.526 96.2727C79.5658 84.8056 74.2285 68.4156 74.2733 68.014C74.3032 67.6125 74.8713 66.8391 74.8713 66.8391C85.2618 87.6463 107.119 94.5325 107.807 94.7259C92.2138 87.7356 67.8297 58.4507 79.5956 32.2595C91.3466 6.08305 119.767 3.748 136.362 7.64471C152.703 11.4968 160.298 23.2911 160.522 23.6629C156.994 20.8073 138.306 11.244 119.005 17.1039Z" fill="#F7F7F7"/>
<path d="M164.05 45.9575C163.168 46.4334 162.152 46.7011 161.09 46.7011C157.637 46.7011 154.826 43.905 154.826 40.4693C154.826 38.2086 156.037 36.2305 157.846 35.1299C155.663 32.2 153.331 29.7311 151.118 27.9612C167.698 36.0521 170.329 53.0072 166.562 66.4524C168.147 59.7298 166.786 52.4867 164.05 45.9575Z" fill="#F7F7F7"/>
<path d="M148.517 42.9829C148.517 41.912 149.399 41.0345 150.49 41.0345C151.567 41.0345 152.449 41.912 152.449 42.9829C152.449 44.0686 151.567 44.9461 150.49 44.9461C149.399 44.9461 148.517 44.0686 148.517 42.9829Z" fill="#F7F7F7"/>
<path d="M192.755 123.059C194.519 115.741 193.637 112.633 197.315 107.294C200.111 103.575 202.787 111.294 202.069 118.82C206.674 115.459 208.707 109.153 213.237 104.453C217.767 99.7529 218.918 109.346 210.815 122.94C215.509 121.988 218.604 115.31 224.823 111.845C231.028 108.379 225.84 116.693 223.418 119.861C221.011 123.014 217.782 127.268 215.749 128.815C219.217 128.398 223.852 124.844 228.845 122.97C233.839 121.096 231.252 126.108 229.144 128.086C227.066 130.079 216.75 137.233 214.089 138.408C218.081 139.256 223.672 136.801 225.945 136.326C228.232 135.85 225.436 145.785 202.248 149.607C204.536 140.579 200.918 128.919 192.755 123.059Z" fill="#F7F7F7"/>
<path d="M43.6102 178.282C48.1701 170.593 63.7334 157.163 72.1504 156.062C76.0824 160.702 81.8532 164.302 81.8532 164.302C55.2416 171.634 47.9159 190.195 47.9159 190.195C47.9159 190.195 39.9773 184.811 43.6102 178.282Z" fill="#F7F7F7"/>
<path d="M36.3144 243.009C39.2596 237.298 45.5238 233.833 45.5238 233.833C48.6634 243.857 63.3297 256.618 73.2717 256.529C83.124 269.23 69.5042 280.757 69.5042 280.757C39.6185 262.225 36.3144 243.009 36.3144 243.009Z" fill="#F7F7F7"/>
<path d="M76.486 250.669L75.9478 251.799C67.3962 254.119 52.6253 241.388 49.2166 228.196L50.009 227.556C59.5174 248.483 76.486 250.669 76.486 250.669Z" fill="#F7F7F7"/>
<path d="M57.0356 217.859C61.431 204.548 75.4993 191.058 75.9329 190.642C68.1437 193.482 61.8497 200.978 61.8497 200.978C55.8994 196.814 53.4924 190.195 53.4924 190.195C68.9511 168.645 88.9995 167.098 88.9995 167.098C92.4082 168.005 94.2919 167.856 94.2919 167.856C122.608 198.703 110.887 224.165 101.961 231.527C93.0211 238.904 88.4015 239.38 82.3167 244.422C68.7567 246.728 53.4924 230.65 57.0356 217.859Z" fill="#F7F7F7"/>
<path d="M42.0853 146.633C50.6369 151.362 62.1487 155.333 62.1487 155.333C53.627 157.981 43.5505 169.834 43.5505 169.834C40.5006 160.881 42.0853 146.633 42.0853 146.633Z" fill="#F7F7F7"/>
<path d="M25.5502 65.0692C38.7962 40.5734 42.3544 40.2016 64.2866 45.6897C64.2866 45.6897 54.9576 44.6486 49.9791 47.8909C49.9791 47.8909 64.0175 47.5489 70.1621 53.156C70.1621 53.156 70.6106 59.6108 72.1505 61.9459C72.1505 61.9459 70.79 63.106 70.7003 65.1287C70.7003 65.1287 61.7002 73.2047 52.7598 88.3305C43.8345 103.456 39.8278 123.684 39.8278 123.684C35.6865 123.327 33.4141 139.449 36.2098 143.033C36.2098 143.033 34.5055 165.462 38.7813 177.003C38.7813 177.003 35.7762 180.082 39.8876 186.433C39.8876 186.433 39.4092 188.559 35.9556 187.429C32.5021 186.299 26.5519 183.503 22.8143 171.336C19.0767 159.2 21.0053 135.82 21.5734 134.199C21.3043 134.823 10.0467 160.866 16.9239 181.034C16.9239 181.034 9.83739 171.842 7.80414 150.782C5.78584 129.737 7.56493 101.121 25.5502 65.0692Z" fill="#F7F7F7"/>
<path d="M117.48 253.822C105.564 246.876 102.081 240.109 102.081 240.109L103.726 239.038C110.124 246.356 120.231 253.405 125.404 253.837C125.419 253.822 127.422 259.429 117.48 253.822Z" fill="#F7F7F7"/>
<path d="M149.414 153.712C162.481 153.519 166.472 144.848 163.333 142.557C168.849 140.862 171.645 135.032 169.432 131.864C174.8 132.607 182.484 130.153 186.012 129.737C189.526 129.335 192.157 133.306 193.891 135.508C192.755 128.086 186.76 126.42 186.76 126.42C191.649 123.431 197.255 131.774 199.154 140.802C201.052 149.83 195.82 151.764 195.82 151.764C197.823 144.535 194.609 140.713 194.609 140.713C194.504 154.084 186.042 160.94 173.394 166.384C160.761 171.812 151.642 166.8 147.65 162.755C150.356 157.52 149.414 153.712 149.414 153.712Z" fill="#F7F7F7"/>
<path d="M108.674 234.368C120.709 218.618 122.294 204.369 110.199 179.606C118.691 173.211 128.409 175.798 134.209 174.936C140.668 179.665 146.469 187.414 150.55 198.286C154.632 209.158 155.499 221.637 146.618 233.803C137.753 245.969 125.837 248.616 125.837 248.616C114.116 245.523 108.674 234.368 108.674 234.368Z" fill="#F7F7F7"/>
<path d="M156.306 143.405C163.587 142.84 157.741 151.868 138.724 148.045C141.535 137.025 132.505 122.851 124.895 121.244C122.1 116.262 124.551 113.079 128.603 115.697C132.655 118.314 131.638 122.717 140.698 120.545C149.758 118.374 154.856 112.038 156.695 116.336C157.995 119.608 145.99 126.361 145.437 126.628C145.886 126.569 153.122 125.706 158.788 123.282C164.678 120.754 169.178 128.949 145.706 135.002C153.211 136.876 160.402 131.67 164.559 132.905C168.7 134.124 162.062 141.62 145.377 141.472C145.377 141.457 150.954 143.569 156.306 143.405Z" fill="#F7F7F7"/>
<path d="M100.437 259.325C93.2753 249.94 90.4945 244.392 98.6723 242.251C98.6723 242.251 106.596 252.84 116.104 257.005C125.613 261.169 130.801 266.271 119.588 278.184C119.573 278.169 107.598 268.725 100.437 259.325Z" fill="#F7F7F7"/>
<path d="M66.7683 283.032C61.6104 289.458 29.2878 259.265 33.6682 247.679C47.8561 272.324 66.7683 283.032 66.7683 283.032Z" fill="#F7F7F7"/>
<path d="M116.688 280.608C111.739 286.438 94.1873 265.884 86.0393 249.687L87.34 248.616C98.194 265.467 116.688 280.608 116.688 280.608Z" fill="#F7F7F7"/>
<path d="M151.313 20.3908L143.419 17.5204L138.321 16.9552L133.791 16.6131L130.367 16.8362L124.133 17.565C107.972 23.1721 102.216 33.8955 102.216 33.8955L100.063 36.3495C100.063 36.3495 97.5212 35.7843 94.3667 35.3976C91.1972 35.0258 88.7902 49.4377 95.9215 51.4158C103.053 53.3939 101.722 42.8639 101.722 42.8639L103.247 48.352L103.158 52.561L100.302 64.5189C99.1658 78.8862 121.741 91.2754 121.741 91.2754L118.227 90.4871L115.058 88.9106L112.083 87.334L109.108 85.5046L105.714 82.0987L102.993 79.258L98.6873 74.7217C98.792 79.4067 111.171 94.0715 126.824 97.0312C142.477 99.9909 155.663 94.949 155.663 94.949L153.495 97.8343L150.715 99.9612L147.889 100.839L143.06 101.686L138.62 101.924L134.673 101.701H131.907L129.41 101.136C120.306 101.924 100.496 91.1266 100.496 91.1266L98.9863 90.026L96.7588 88.5387L94.8002 86.5755L91.3318 84.5528C90.7039 88.8957 109.795 101.538 109.795 101.538L105.265 100.273C105.265 100.273 101.752 99.039 101.648 98.9795C101.558 98.9201 99.4349 96.8676 99.4349 96.8676L94.0228 94.473L89.0743 90.9184L83.0194 87.1407L80.0443 85.3708L77.9811 84.2702L75.604 82.7829L67.8149 80.195C67.9046 77.384 72.5093 70.8994 72.5093 70.8994L72.7933 66.7052L73.8399 64.3107H75.8283L77.1289 64.8461C77.1289 64.8461 78.2353 66.9283 78.2652 67.077C78.2951 67.2407 79.6256 71.2415 79.6256 71.2415L82.1971 73.3237L83.6473 72.5354C80.5227 69.1146 80.8964 57.7815 79.6555 49.1849C78.4147 40.5883 82.7652 30.4003 89.5377 31.0399C120.081 1.04904e-05 151.073 16.8065 160.148 23.9901L155.424 21.8335L151.313 20.3908Z" fill="#DADADA"/>
<path d="M19.4654 143.227C19.5252 143.137 20.4222 139.315 20.4222 139.315C20.4222 139.315 21.992 132.221 22.4554 129.99C22.9039 127.774 28.2562 101.27 38.1832 80.3289C38.1832 80.3289 22.1415 101.865 16.8191 125.067C23.786 85.9955 33.414 43.9496 59.338 46.8498L64.3463 47.7422L70.476 49.7054L72.4644 52.7544L73.1072 54.9705V57.4245L73.8697 62.9721L72.2551 67.0324L67.8148 70.6317L64.735 75.2572C64.735 75.2572 62.8812 78.8564 62.8363 78.9903C62.7915 79.139 57.514 85.5641 57.514 85.5641L55.5705 88.4495C55.5705 88.4495 55.3313 88.8362 54.9874 89.4311C56.8114 86.7986 58.6652 84.4041 58.6652 84.4041C58.6652 84.4041 63.2699 82.8721 64.0025 82.7978C64.735 82.7234 66.1105 82.2029 66.1105 82.2029C66.1105 82.2029 70.476 82.5301 71.358 82.6788C72.2252 82.8275 74.7219 83.4522 74.7966 83.4968C74.8714 83.5414 77.5923 84.5974 77.6671 84.5974C77.7269 84.5974 79.0575 85.2369 79.2817 85.4005C79.506 85.5642 79.805 87.1407 79.805 87.1853C79.805 87.2299 79.5957 87.6315 79.5658 87.691C79.5359 87.7505 77.9362 88.4793 77.9362 88.4793L76.5458 88.8511C64.2417 85.8616 58.1419 101.359 65.7367 118.731C65.2284 110 70.8049 100.363 70.8049 100.363C69.6686 105.91 80.2386 137.01 89.3732 143.346C105.714 131.908 123.49 134.273 127.527 139.494C128.214 138.378 128.827 135.85 128.827 135.85C129.934 136.742 131.13 139.419 131.13 139.419C131.174 131.373 126.525 125.81 126.525 125.81V123.966C125.224 123.208 123.236 122.062 123.176 121.988C123.086 121.869 121.636 119.013 121.636 119.013C121.636 119.013 122.727 113.957 122.802 113.912C122.877 113.867 125.703 112.797 125.703 112.797L130.262 114.566L128.693 114.745C123.819 115.251 126.659 118.21 130.816 120.456C134.972 122.687 145.572 126.732 157.487 116.768L157.801 119.921L157.083 120.813L153.256 123.698L149.728 125.186L145.467 126.628C145.467 126.628 157.562 130.034 164.26 125.215L164.185 129.023L163.123 131.417C163.123 131.417 160.776 131.581 160.716 131.581C160.657 131.581 156.47 132.86 156.47 132.86L150.43 134.214L148.502 134.838L145.721 135.002C145.721 135.002 158.922 138.973 166.906 133.485V135.656L163.721 140.029L162.152 140.475L156.59 141.472L153.525 141.918H150.43L145.377 141.472C145.377 141.472 154.213 149.131 160.014 144.773L160.507 146.9C161.598 145.844 163.168 144.297 163.168 144.297C163.168 144.297 168.401 147.317 173.753 146.915C173.753 146.915 168.057 151.228 163.736 151.793C163.736 151.793 181.826 154.218 194.28 138.051C194.28 138.051 195.177 143.479 194.863 144.922C197.434 143.048 199.034 135.552 195.282 129.826C195.282 129.826 195.775 128.844 195.775 128.755C195.775 128.666 194.355 126.39 194.355 126.39C194.355 126.39 190.782 124.219 190.782 124.055C190.782 123.892 190.438 122.256 190.333 121.914C190.243 121.572 191.066 116.455 191.066 116.455L192.71 110.878C192.71 110.878 194.953 107.219 194.953 107.13C194.953 107.041 195.685 105.747 195.745 105.643C195.805 105.553 197.36 104.988 197.36 104.988L200.081 105.018C200.081 105.018 201.037 105.687 201.127 105.836C201.217 106 202.084 107.442 202.084 107.532C202.084 107.621 202.084 109.316 202.084 109.316V110.015C202.084 110.015 200.125 105.985 198.675 107.546C197.24 109.108 196.194 117.452 199.004 121.81C201.83 126.152 208.677 121.066 211.682 115.489C214.672 109.911 217.049 104.289 213.386 103.099L213.416 102.192L215.24 101.478L216.616 101.999L218.006 102.772C218.006 102.772 218.455 104.036 218.455 104.096C218.455 104.155 218.679 108.275 218.679 108.275L218.021 111.25L217.109 114.105L215.539 117.675L212.46 121.482C212.46 121.482 210.202 126.019 205.283 129.96C205.283 129.96 216.631 126.108 223.508 116.797C228.068 110.848 224.031 111.309 224.031 111.309L226.378 109.971L227.216 109.629L228.217 109.777L229.039 110.328C229.039 110.328 229.189 111.279 229.189 111.443C229.189 111.622 228.606 113.362 228.546 113.763C228.486 114.15 227.38 115.801 227.365 115.845C227.35 115.89 226.857 117.125 226.603 117.556C226.348 118.002 226.632 118.88 226.632 118.88L224.928 122.39C224.928 122.39 224.196 123.341 223.852 123.565C223.508 123.803 218.888 126.747 218.888 126.747C218.888 126.747 214.896 130.867 210.785 132.191C219.367 131.938 232.732 126.048 229.757 121.616L231.566 121.096L232.747 122.092C232.747 122.092 233.151 122.851 232.986 123.208C232.822 123.565 232.583 125.647 232.583 125.647C232.583 125.647 232.134 127.565 232.089 127.655C232.044 127.744 229.712 129.93 229.637 129.93C229.563 129.93 228.337 131.016 228.337 131.016L226.319 132.488C226.319 132.488 222.372 135.463 222.297 135.508C222.222 135.552 214.119 138.363 214.119 138.363C214.119 138.363 221.908 141.829 227.096 138.408C227.096 138.408 228.382 142.899 219.92 145.978C211.458 149.057 202.009 151.511 202.009 151.511L197.614 152.671L195.625 153.563L192.845 154.738C192.845 154.738 191.918 156.3 191.768 156.419C191.619 156.538 187.776 160.673 187.687 160.717C187.597 160.762 181.587 164.316 181.512 164.361C181.438 164.406 174.665 168.288 174.665 168.288L167.698 170.34C167.698 170.34 158.549 170.652 158.474 170.652C158.399 170.652 155.409 169.775 154.931 169.582C154.452 169.388 145.661 165.848 145.661 165.848C145.661 165.848 144.615 162.487 144.585 162.428C144.555 162.353 145.602 159.304 145.871 158.784C146.125 158.263 147.351 151.719 147.351 151.719L151.103 150.723H147.59H142.103L138.754 149.681C138.754 149.681 137.394 149.652 137.334 149.592C137.259 149.518 136.437 148.551 136.482 148.075C136.527 147.599 136.272 141.338 136.392 140.966C136.512 140.594 135.944 134.585 135.944 134.585C135.944 134.585 132.101 128.859 132.071 128.8C132.056 128.77 131.324 128.056 130.457 127.223C131.683 129.544 134.045 134.124 134.045 134.124C134.045 134.124 135.495 136.549 135.54 136.98C135.57 137.411 135.824 142.632 135.854 143.078C135.884 143.524 134.434 148.908 133.895 149.667C133.357 150.425 131.174 151.496 130.636 152.344C130.098 153.192 127.691 152.597 127.601 152.686C127.512 152.775 124.716 154.634 124.492 155.021C124.267 155.393 120.276 157.951 119.767 158.293C119.259 158.635 117.39 159.81 117.3 159.899C117.211 159.988 111.156 161.342 110.737 161.669C110.319 161.981 107.059 163.112 106.327 163.558C105.594 164.004 101.453 164.034 100.182 164.465C98.9115 164.897 96.7288 164.495 96.0261 164.495C95.3235 164.495 89.6573 164.406 89.6573 164.406L86.1738 163.647C86.1738 163.647 82.4213 165.283 82.0475 165.685C81.8083 165.938 81.0608 166.473 80.5226 166.845L83.9612 166.012L90.0759 164.659L97.6557 165.953L111.694 163.93C126.091 162.799 133.357 165.209 141.685 171.307L146.229 183.131C123.804 173.954 119.812 183.101 124.626 195.832C137.992 193.661 144.301 202.897 144.301 202.897C115.013 216.327 117.271 239.767 125.314 243.366C133.357 246.966 139.502 242.206 139.502 242.206C139.502 242.206 136.018 246.058 135.929 246.148C135.839 246.237 130.95 249.36 130.801 249.449C130.636 249.539 126.749 250.52 126.615 250.52C126.48 250.52 121.741 249.286 121.741 249.286L117.869 247.114L115.282 245.597L110.588 242.474L108.121 238.622C106.417 242.965 117.435 254.447 117.435 254.447C117.435 254.447 118.96 255.398 117.016 255.146C115.088 254.893 107.329 248.081 104.413 246.757C101.498 245.434 104.099 256.142 111.38 265.289C118.661 274.421 125.164 273.142 125.164 273.142C125.164 273.142 121.801 278.556 121.771 278.66C121.741 278.749 119.962 280.578 119.962 280.578C119.962 280.578 118.631 279.76 118.407 279.508C118.183 279.255 115.327 277.648 115.267 277.529C115.207 277.41 114.445 276.146 114.385 276.042C114.325 275.953 112.352 274.183 112.352 274.183L112.232 274.019C112.232 274.019 110.707 272.324 110.648 272.22C110.588 272.131 108.495 270.271 108.495 270.271L103.516 265.2L100.033 261.229L96.2354 257.377L94.5311 256.96C97.8501 269.825 116.673 283.434 116.673 283.434C116.673 283.434 112.442 283.241 112.307 283.151C112.158 283.062 109.362 281.976 109.212 281.828C109.063 281.679 105.505 279.418 105.505 279.418L100.706 274.213L95.1441 268.026L91.6307 262.969C91.6307 262.969 87.4895 257.481 87.4446 257.243C87.3998 257.005 85.1124 253.42 85.1124 253.42L83.5874 248.691L86.2935 245.329C86.2935 245.329 92.8566 242.682 92.9912 242.533C93.1407 242.385 96.2205 240.258 96.6989 240.035C97.1773 239.797 101.782 237.819 101.782 237.819C101.782 237.819 105.729 231.632 105.863 231.483C106.013 231.334 109.616 228.464 109.616 228.464C109.616 228.464 112.322 222.038 112.561 221.28C112.8 220.521 114.699 216.654 114.699 216.654C114.699 216.654 115.267 208.623 115.312 208.43C115.357 208.236 114.744 203.18 114.744 203.18C114.744 203.18 113.084 196.412 112.98 196.234C112.89 196.041 111.081 189.244 111.081 189.244L109.466 182.714L107.134 179.457L102.245 171.322L97.6707 166.176L98.8817 171.232C91.7952 169.998 80.702 168.674 82.2867 186.641C82.2867 186.641 93.051 182.253 102.051 191.787C88.237 192.62 77.7867 206.675 72.4644 217.844C67.142 228.999 70.3713 249.137 93.5593 238.458L85.7702 245.553L82.4961 247.679C82.4961 247.679 80.7917 248.81 80.1638 248.527C79.5508 248.245 75.5142 246.549 75.5142 246.549C75.5142 246.549 70.4162 245.315 70.2517 245.181C70.0873 245.032 63.4344 242.578 62.9709 242.102C62.4925 241.626 59.7865 239.41 59.3529 238.934C58.9193 238.458 56.0788 235.528 56.0788 235.528C56.0788 235.528 60.3695 248.542 70.7002 252.573L66.3945 252.796L59.6968 249.658C51.9525 253.896 61.2068 274.956 72.1056 279.998L70.0125 282.958C70.0125 282.958 67.9793 281.947 67.9494 281.828C67.9195 281.709 65.8862 280.251 65.5723 279.939C65.2583 279.627 59.7715 276.131 59.7117 276.027C59.6519 275.938 53.4326 270.733 53.3728 270.643C53.313 270.554 48.2448 265.691 48.185 265.542C48.1252 265.378 42.8926 259.459 42.8926 259.459C42.8926 259.459 47.1086 273.544 65.5424 284.892C65.5424 284.892 64.0473 286.215 60.7881 284.549C57.529 282.884 52.0422 278.6 52.0422 278.6C52.0422 278.6 43.6102 271.863 43.5205 271.788C43.4308 271.729 34.939 261.169 34.939 261.169L30.6632 252.379C30.6632 252.379 31.2313 247.456 31.2313 247.367C31.2313 247.278 32.6815 243.366 32.6815 243.366C32.6815 243.366 34.9988 239.023 35.2529 238.741C35.5071 238.458 41.3377 234.398 41.562 234.115C41.7862 233.833 44.6268 231.349 44.6268 231.349C44.6268 231.349 47.9906 226.114 48.0205 226.024C48.0504 225.935 49.8893 224.329 49.8893 224.329C49.8893 224.329 52.4608 218.157 52.4907 218.023C52.5206 217.904 54.195 213.739 54.195 213.739L60.3695 203.373L56.318 202.109C56.318 202.109 53.5671 196.754 53.4027 196.368C53.2382 195.996 51.3096 192.843 51.3096 192.739C51.3096 192.635 51.2498 188.485 51.3395 188.485C51.4292 188.485 53.298 186.061 53.4027 185.674C53.4924 185.302 58.2466 179.621 58.2765 179.532C58.2914 179.457 61.8197 176.706 63.7483 175.189C62.4476 175.903 60.2798 176.988 60.1303 177.226C59.921 177.553 57.0356 180.35 56.6618 181.078C56.2881 181.807 55.122 182.432 54.9725 182.685C54.823 182.937 51.5937 186.819 51.5937 186.819C51.5937 186.819 49.8295 189.11 48.4541 191.118C47.0787 193.125 40.9042 190.582 43.1168 186.804C45.3295 183.027 61.3563 164.614 72.3896 161.208C67.8298 158.189 61.8048 146.082 61.8048 146.082C43.8045 140.535 38.1832 134.288 38.1832 134.288L38.3327 132.25L39.0802 129.425C38.542 130.466 37.6151 132.295 37.6151 132.295L37.3759 137.634C37.3759 137.634 37.8991 140.892 37.944 141.085C37.9888 141.278 38.7065 143.405 38.7065 143.643C38.7065 143.881 39.14 150.633 39.14 150.633C39.14 150.633 38.9905 155.779 38.9457 155.973C38.9008 156.166 39.3194 164.525 39.3194 164.525L42.2646 171.188L41.9357 174.594L40.6949 178.476L40.7397 182.402C40.7397 182.402 41.7862 185.704 41.7862 185.897C41.7862 186.09 42.16 187.935 42.16 187.935C42.16 187.935 39.454 191.385 35.836 190.671C32.218 189.957 26.806 186.18 26.7163 185.986C26.6266 185.793 22.0667 180.885 21.9172 180.736C21.7677 180.587 19.1065 165.655 19.1065 165.655L17.9703 160.45L18.2544 152.136C18.2693 152.15 19.4055 143.316 19.4654 143.227ZM64.9593 174.192L70.1919 170.637C69.4892 170.727 68.6371 170.89 68.0391 171.337C67.1271 172.021 65.6022 173.493 64.9593 174.192ZM47.9757 128.859C47.9757 127.729 47.7813 125.453 47.9757 117.957C48.17 110.461 51.8478 98.8308 51.8478 98.8308C51.8478 98.8308 50.4276 97.879 51.8478 94.6218C51.6086 95.0085 51.4442 95.2613 51.4292 95.2911C51.2797 95.4398 47.9159 102.147 47.871 102.341C47.8262 102.534 46.062 109.435 46.062 109.435L45.3295 114.447C45.3295 114.447 43.1168 121.021 43.072 121.155C43.0271 121.304 42.5936 125.602 42.2198 125.558C41.846 125.513 40.037 126.733 40.037 126.733C40.037 126.733 39.9473 127.089 39.8277 127.506C40.3958 127.298 41.6666 126.837 41.7713 126.777C41.9058 126.688 47.9757 128.859 47.9757 128.859Z" fill="#DADADA"/>
<path d="M65.4378 153.37C65.4378 153.37 64.5258 155.958 64.3614 156.24C64.1969 156.523 62.2683 157.683 62.0441 157.847C61.8198 158.01 59.7267 159.051 59.637 159.081C59.5473 159.111 57.4842 161 57.2599 161.193C57.0357 161.386 54.9127 162.145 54.9127 162.145L46.6751 168.704C45.0604 166.057 43.2066 151.972 45.3295 146.395C45.3295 146.395 62.074 152.418 62.358 152.507C62.6421 152.582 65.4378 153.37 65.4378 153.37Z" fill="#DADADA"/>
<path d="M121.502 119.95L121.816 121.423C121.816 121.423 121.038 122.181 120.978 122.256C120.933 122.33 119.723 123.892 119.723 123.892C119.723 123.892 117.495 124.338 117.42 124.368C117.345 124.397 109.392 123.654 109.392 123.654C109.392 123.654 100.855 122.687 100.885 122.583C100.915 122.494 99.6292 113.793 99.6292 113.674C99.6292 113.555 96.2056 102.237 96.1308 102.192C96.0561 102.147 93.8733 96.8527 93.8733 96.8527L95.6973 95.5587L100.003 98.9349C101.812 103.055 106.805 117.6 102.335 118.076L103.95 121.676C103.95 121.676 104.802 123.044 105.236 122.91C105.669 122.761 109.182 121.497 109.227 121.11C109.272 120.739 109.422 116.53 109.227 115.86C109.033 115.206 109.227 110.372 109.078 109.852C108.928 109.331 108.704 106.029 108.704 106.029L107.852 102.861L109.332 102.579L118.452 106.223C118.452 106.223 120.739 107.74 119.827 117.333L120.993 118.136L121.502 119.95Z" fill="#DADADA"/>
<path d="M143.419 116.47C143.419 116.47 141.101 117.006 140.758 117.006C140.414 117.006 137.244 117.987 136.676 117.794C136.108 117.601 133.103 116.664 133.103 116.664C133.103 116.664 131.967 115.875 131.832 115.756C131.713 115.637 130.472 114.269 130.337 114.18C130.218 114.091 128.439 112.291 128.409 112.202C128.379 112.112 128.214 111.25 128.214 110.625C128.214 110 129.545 107.532 129.545 107.532H148.816C144.824 109.51 144.316 110.402 144.406 115.384L143.419 116.47Z" fill="#DADADA"/>
<path d="M124.776 158.813C124.776 158.813 123.924 157.817 123.924 157.743C123.924 157.668 124.417 155.824 124.477 155.765C124.522 155.69 126.36 154.649 126.495 154.56C126.645 154.471 132.176 151.674 132.176 151.674L136.736 150.559L141.296 152.195C141.296 152.195 143.628 159.334 136.213 162.309L124.776 158.813Z" fill="#DADADA"/>
<path d="M229.473 83.4076C229.339 83.6009 226.199 86.0103 226.049 86.2037C225.915 86.397 221.863 89.1337 221.729 89.2675C221.579 89.4162 216.93 90.7846 216.93 90.7846C216.93 90.7846 210.381 92.4354 210.127 92.4354C209.888 92.4354 202.906 92.0636 202.906 92.0636C202.906 92.0636 199.303 91.2605 199.154 91.1564C199.004 91.0671 193.218 87.8397 193.218 87.8397L187.612 84.1512C187.612 84.1512 184.577 79.9422 184.233 79.4216C183.904 78.9011 182.335 77.1907 182.335 77.1907C182.335 77.1907 180.301 72.3718 180.301 72.2231C180.301 72.0744 179.016 67.9694 179.016 67.9694L179.389 60.3545V56.666L180.615 53.4385L182.663 50.1368C180.959 61.1874 187.821 67.9992 196.223 70.1409C196.223 72.4462 197.704 74.3499 199.647 74.7366C199.886 74.7961 200.14 74.8259 200.395 74.8259C202.518 74.8259 204.267 73.0411 204.536 70.7507C204.566 70.5425 204.581 70.3342 204.581 70.126C204.581 68.9362 204.192 67.8504 203.534 67.0176C205.119 67.3448 206.39 68.6833 206.808 70.4086C213.73 68.9957 219.785 64.3702 221.146 56.2942C224.196 67.2407 216.526 76.0455 216.122 76.5065C218.425 74.9449 224.001 70.0814 226.423 62.0946C226.722 62.169 227.036 62.1987 227.35 62.1987C229.787 62.1987 231.76 60.2355 231.76 57.8112C231.76 55.4613 229.907 53.5575 227.574 53.4385V53.2303C227.126 39.9339 220.338 36.0521 220.338 36.0521C220.338 36.0521 227.604 38.3276 227.754 38.3722C227.903 38.4169 232.837 45.1841 232.837 45.1841C232.837 45.1841 237.307 51.6984 237.352 51.9364C237.397 52.1744 238.877 59.2688 238.877 59.2688C238.877 59.2688 238.593 68.5792 238.593 68.7726C238.593 68.951 235.035 76.9973 234.885 77.7112C234.751 78.3954 229.623 83.2291 229.473 83.4076Z" fill="#DADADA"/>
<path d="M201.381 43.9793C200.081 43.9793 199.019 42.9234 199.019 41.6294C199.019 41.4212 199.049 41.2278 199.094 41.0345C199.468 41.5997 200.111 41.9864 200.843 41.9864C201.994 41.9864 202.936 41.0494 202.936 39.9041V39.8744C203.43 40.3057 203.729 40.9304 203.729 41.6294C203.743 42.9234 202.682 43.9793 201.381 43.9793Z" fill="#DADADA"/>
<path d="M222.985 43.9794C223.463 44.6189 223.732 45.3923 223.732 46.2103C223.732 48.471 221.684 50.3004 219.142 50.3004C216.616 50.3004 214.553 48.471 214.553 46.2103C214.553 45.5113 214.747 44.8569 215.091 44.2917C215.27 46.1359 216.96 47.5935 219.023 47.5935C221.22 47.5935 222.985 45.9723 222.985 43.9794Z" fill="#DADADA"/>
<path d="M206.33 61.1576C203.235 61.1576 200.724 58.8226 200.724 55.9521C200.724 55.1936 200.903 54.4648 201.232 53.8104C201.471 56.1008 203.4 57.8707 205.777 57.8707C208.288 57.8707 210.337 55.848 210.337 53.3344C210.337 52.9329 210.277 52.5313 210.172 52.1446C211.264 53.0965 211.951 54.4499 211.951 55.9521C211.951 58.8374 209.44 61.1576 206.33 61.1576Z" fill="#DADADA"/>
<path d="M189.81 57.6773C187.806 57.6773 186.177 56.1306 186.177 54.2119C186.177 53.5278 186.386 52.8882 186.76 52.3528C186.999 53.6616 188.165 54.6581 189.541 54.6581C191.11 54.6581 192.381 53.3939 192.381 51.8323V51.7579C193.039 52.3826 193.443 53.2452 193.443 54.2119C193.443 56.1306 191.828 57.6773 189.81 57.6773Z" fill="#DADADA"/>
<path d="M201.89 174.266C203.594 180.825 209.2 181.792 209.2 181.792C203.295 182.64 201.351 188.916 201.351 188.916C200.275 183.131 194.609 181.167 194.609 181.167C199.931 180.216 201.89 174.266 201.89 174.266Z" fill="#8F8F8F"/>
<path d="M2.48175 113.674C5.90538 86.635 15.7876 67.3448 23.6365 52.9775C31.5004 38.6102 37.8692 36.9444 50.278 36.9444C62.6719 36.9444 69.564 39.919 69.564 39.919C71.2684 30.8465 76.785 16.0925 96.8335 5.97893C116.897 -4.13468 141.027 -0.416441 154.527 9.60793C167.907 19.5431 167.967 29.2997 167.967 29.4782C169.956 31.1737 172.258 38.4615 168.984 41.2427C172.662 48.6792 173.858 65.7682 165.799 76.6999C168.416 80.2842 164.618 84.2999 164.618 84.2999C163.542 92.3016 157.338 97.7897 157.338 97.7897C158.593 100.973 156.515 103.055 156.515 103.055C157.592 106.684 156.74 110.551 156.74 110.551C162.436 111.473 162.66 115.89 161.24 118.091C167.833 117.615 169.193 123.014 168.326 125.215C171.496 126.703 178.791 125.052 183.785 125.617C185.654 122.241 187.911 122.092 187.911 122.092C190.468 99.396 202.577 98.2954 204.222 109.197C212.205 92.5544 222.028 98.4144 220.787 109.287C232.717 102.519 232.523 112.544 228.875 118.032C238.653 117.035 237.143 126.733 228.726 133.113C232.433 134.437 232.358 140.088 226.453 144.446C220.563 148.789 204.297 155.095 199.139 154.292C196.403 156.389 193.981 156.508 193.981 156.508C189.137 165.209 176.011 172.244 166.472 174.519C156.919 176.795 144.779 170.087 144.779 170.087C147.156 173.82 145.796 176.259 145.796 176.259C167.459 204.994 162.137 226.619 150.67 238.414C139.203 250.193 129.066 254.313 129.066 254.313C129.216 257.049 127.033 258.447 127.033 258.447C130.517 263.237 131.982 272.502 122.159 282.081C112.337 291.659 108.525 285.174 97.7006 274.198C87.7586 262.79 81.7336 255.651 82.2419 251.16C80.702 255.339 78.0409 256.142 78.0409 256.142C80.2236 258.418 85.232 269.23 75.8581 280.445C66.4842 291.659 63.8829 289.859 49.0521 278.645C34.1317 266.821 26.3724 254.848 28.5851 246.46C30.7977 238.086 44.2082 227.765 44.2082 227.765C43.9241 223.66 46.9591 220.298 48.8428 220.462L49.7697 218.752C50.6668 212.743 55.705 206.511 55.705 206.511C50.5172 201.276 48.7681 195.639 48.7681 195.639C47.7365 195.341 46.8694 194.791 46.8694 194.791C34.042 194.509 13.5151 194.598 5.90538 177.211C-1.68941 159.81 -0.926941 140.713 2.48175 113.674ZM163.422 29.151C157.338 22.9044 140.668 14.9622 123.565 18.8143C106.461 22.6664 97.2371 32.8544 97.2371 32.8544C98.6574 33.4195 99.674 34.1929 99.674 34.1929C108.106 25.0461 124.267 21.0155 136.676 21.4617C149.085 21.9079 160.821 27.634 166.517 38.1343C166.517 38.1343 168.266 34.3119 163.422 29.151ZM92.6474 37.1527C88.7304 37.7625 86.1739 42.2243 86.9363 47.1175C87.6988 52.0256 91.4962 55.5059 95.3982 54.8961C99.3152 54.2863 101.872 49.8244 101.109 44.9312C100.347 40.0231 96.5644 36.5429 92.6474 37.1527ZM101.902 65.4559C104.279 75.6736 118.108 84.4487 134.493 86.397C115.686 81.2956 108.27 75.4654 101.902 65.4559ZM148.517 42.9829C148.517 44.0686 149.399 44.9461 150.49 44.9461C151.567 44.9461 152.449 44.0686 152.449 42.9829C152.449 41.912 151.567 41.0345 150.49 41.0345C149.399 41.0345 148.517 41.912 148.517 42.9829ZM166.562 66.4673C170.329 53.0072 167.698 36.0521 151.118 27.976C153.331 29.7459 155.663 32.2148 157.846 35.1448C156.022 36.2305 154.826 38.2086 154.826 40.4842C154.826 43.9199 157.637 46.716 161.09 46.716C162.167 46.716 163.168 46.4483 164.05 45.9723C166.786 52.4867 168.147 59.7298 166.562 66.4673ZM162.137 82.0839V80.0611C149.832 91.2902 131.174 92.2867 115.013 83.5266C98.8518 74.7664 97.2222 59.6406 97.2222 59.6406H95.1889C95.1889 59.6406 96.071 71.4943 108.3 82.5152C120.53 93.5509 140.07 93.1791 149.354 90.4574C158.638 87.7654 162.137 82.0839 162.137 82.0839ZM158.025 89.4014C147.261 96.4511 123.938 97.879 108.45 86.4417C92.9613 75.0043 91.7504 59.7596 91.7504 59.7596C86.742 58.5102 82.7502 53.8996 81.8233 47.9058C80.6273 40.2016 85.1273 33.1072 91.8401 32.0661C92.3932 31.9769 92.9613 31.9323 93.5145 31.9323C93.649 31.9323 93.7836 31.9323 93.9182 31.9471C93.9182 31.9471 99.6591 22.9639 118.99 17.1039C138.306 11.244 156.979 20.8073 160.522 23.648C160.298 23.2762 152.703 11.4968 136.347 7.6447C119.752 3.74799 91.3317 6.06817 79.5508 32.2595C67.77 58.4507 92.169 87.7356 107.762 94.7259C107.074 94.5177 85.217 87.6464 74.8265 66.8391C74.8265 66.8391 74.2584 67.5976 74.2285 68.0141C74.1837 68.4156 79.521 84.8056 100.481 96.2727C121.442 107.74 149.578 108.216 152.434 101.344C152.434 101.344 139.188 106.104 121.636 100.05C134.837 101.88 155.245 100.303 158.025 89.4014ZM56.3778 131.298C50.3976 115.444 50.6369 104.81 56.5871 98.3698C56.3778 98.7267 53.8063 103.352 56.7216 115.741C59.7566 128.666 72.3448 151.005 87.7287 159.899C103.128 168.778 128.409 155.08 130.681 143.346C130.681 143.346 131.832 147.094 130.367 150.024C130.367 150.024 132.58 149.518 133.387 145.844C134.194 142.186 133.746 129.41 122.04 124.308C122.354 124.531 127.302 128.145 127.661 133.693C121.636 127.134 104.847 121.839 91.6158 131.804C91.6158 131.804 93.649 127.238 97.9248 123.892C93.963 97.4476 85.0077 90.6804 69.5939 89.208C69.5939 89.208 73.0923 86.8581 78.5043 87.1109C70.8497 83.586 63.8231 81.7864 56.7515 90.1599C56.7515 90.1599 46.5853 109.807 44.9258 125.439C44.9408 125.453 51.5189 129.082 56.3778 131.298ZM41.0686 129.558C41.0686 129.558 38.2879 135.359 39.6483 140.207C39.6483 140.207 53.5522 149.979 69.0108 151.868C69.0108 151.868 63.1653 145.071 59.637 138.125C59.637 138.125 48.9923 134.035 41.0686 129.558ZM118.302 161.952C118.302 161.952 112.965 165.908 103.128 167.99C103.128 167.99 105.55 170.637 106.925 173.91C110.857 170.028 130.352 167.901 139.905 171.351C139.905 171.337 132.939 160.494 118.302 161.952ZM140.339 163.543C140.339 163.543 144.331 160.985 144.241 153.429C144.241 153.429 137.469 153.548 135.899 152.507C135.899 152.507 132.909 155.824 126.988 155.869L125.508 157.044C125.508 157.044 133.596 157.683 140.339 163.543ZM111.066 120.709C111.066 120.709 115.387 120.932 118.302 122.404C118.302 122.404 119.244 121.497 120.186 121.051C118.526 119.638 118.287 111.488 125.284 110.447L125.419 108.469C125.419 108.469 118.511 107.561 110.558 104.542C110.543 104.542 114.624 113.049 111.066 120.709ZM102.32 101.211C99.6292 100.11 96.3999 97.9236 96.2056 97.7897C101.079 103.605 105.445 119.46 105.445 119.46C107.658 112.886 105.221 104.423 102.32 101.211ZM79.207 82.4706C74.6023 78.1277 72.0159 71.5984 72.0159 71.5984C67.5756 74.8259 65.6769 78.9754 65.6769 78.9754C74.4079 79.139 79.207 82.4706 79.207 82.4706ZM129.739 112.008C129.739 112.008 131.309 113.124 133.447 115.34C135.585 117.571 143.18 115.86 150.266 111.458C150.266 111.458 150.819 108.93 150.565 107.576C150.565 107.576 147.261 110.134 130.083 109.197C130.083 109.197 129.664 110.685 129.739 112.008ZM202.248 149.592C225.436 145.77 228.217 135.835 225.945 136.311C223.657 136.787 218.081 139.241 214.089 138.393C216.75 137.218 227.066 130.064 229.144 128.071C231.237 126.093 233.824 121.096 228.845 122.955C223.852 124.829 219.217 128.369 215.749 128.8C217.767 127.268 221.011 122.999 223.418 119.846C225.825 116.693 231.028 108.379 224.823 111.83C218.619 115.295 215.509 121.973 210.815 122.925C218.933 109.331 217.767 99.7381 213.237 104.438C208.707 109.138 206.674 115.444 202.069 118.805C202.787 111.294 200.111 103.575 197.315 107.279C193.637 112.618 194.519 115.727 192.755 123.044C200.918 128.919 204.536 140.579 202.248 149.592ZM173.409 166.384C186.057 160.94 194.519 154.084 194.624 140.713C194.624 140.713 197.838 144.535 195.835 151.764C195.835 151.764 201.067 149.83 199.169 140.802C197.27 131.774 191.664 123.431 186.775 126.42C186.775 126.42 192.755 128.086 193.906 135.508C192.172 133.306 189.541 129.335 186.027 129.737C182.514 130.138 174.815 132.607 169.447 131.864C171.66 135.032 168.864 140.847 163.348 142.557C166.487 144.848 162.495 153.519 149.429 153.712C149.429 153.712 150.386 157.52 147.68 162.755C151.641 166.8 160.776 171.812 173.409 166.384ZM156.306 143.405C150.954 143.569 145.377 141.472 145.377 141.472C162.062 141.62 168.7 134.124 164.559 132.905C160.402 131.67 153.211 136.876 145.706 135.002C169.178 128.949 164.678 120.739 158.788 123.282C153.122 125.721 145.886 126.584 145.437 126.628C145.99 126.361 157.995 119.608 156.695 116.336C154.856 112.053 149.758 118.374 140.698 120.545C131.638 122.717 132.655 118.314 128.603 115.697C124.536 113.079 122.1 116.262 124.895 121.244C132.505 122.851 141.535 137.025 138.724 148.045C157.726 151.868 163.572 142.84 156.306 143.405ZM146.618 233.803C155.484 221.637 154.632 209.158 150.55 198.286C146.469 187.414 140.668 179.665 134.209 174.936C128.409 175.784 118.691 173.21 110.199 179.606C122.294 204.369 120.709 218.618 108.674 234.368C108.674 234.368 114.116 245.523 125.837 248.616C125.837 248.616 137.753 245.969 146.618 233.803ZM103.741 239.038L102.096 240.109C102.096 240.109 105.579 246.891 117.495 253.822C127.437 259.414 125.434 253.822 125.434 253.822C120.246 253.406 110.124 246.341 103.741 239.038ZM116.09 256.99C106.581 252.825 98.6574 242.236 98.6574 242.236C90.4796 244.378 93.2753 249.925 100.422 259.31C107.583 268.71 119.558 278.154 119.558 278.154C130.786 266.256 125.598 261.154 116.09 256.99ZM116.688 280.608C116.688 280.608 98.194 265.482 87.3549 248.616L86.0542 249.687C94.1872 265.884 111.739 286.438 116.688 280.608ZM66.7683 283.032C66.7683 283.032 47.8561 272.324 33.6682 247.679C29.2878 259.265 61.5955 289.458 66.7683 283.032ZM45.5388 233.833C45.5388 233.833 39.2746 237.298 36.3294 243.009C36.3294 243.009 39.6184 262.24 69.5341 280.772C69.5341 280.772 83.1539 269.23 73.3016 256.544C63.3447 256.618 48.6784 243.857 45.5388 233.833ZM50.0089 227.556L49.2166 228.196C52.6253 241.388 67.3962 254.119 75.9478 251.799L76.486 250.669C76.486 250.669 59.5174 248.483 50.0089 227.556ZM61.8496 200.963C61.8496 200.963 68.1587 193.467 75.9329 190.627C75.4993 191.058 61.431 204.533 57.0356 217.844C53.4924 230.635 68.7567 246.713 82.3167 244.407C88.4015 239.38 93.0211 238.889 101.961 231.512C110.902 224.136 122.623 198.673 94.2919 167.841C94.2919 167.841 92.4082 167.99 88.9995 167.083C88.9995 167.083 68.951 168.63 53.4924 190.181C53.4924 190.181 55.8994 196.799 61.8496 200.963ZM47.9159 190.181C47.9159 190.181 55.2416 171.619 81.8532 164.287C81.8532 164.287 76.0824 160.673 72.1504 156.047C63.7334 157.148 48.1701 170.578 43.6102 178.267C39.9773 184.811 47.9159 190.181 47.9159 190.181ZM43.5504 169.834C43.5504 169.834 53.6269 157.981 62.1486 155.333C62.1486 155.333 50.6518 151.362 42.0853 146.633C42.0853 146.633 40.5005 160.881 43.5504 169.834ZM7.80409 150.797C9.83734 171.857 16.9238 181.049 16.9238 181.049C10.0317 160.866 21.3043 134.823 21.5734 134.214C21.0052 135.835 19.0916 159.215 22.8142 171.351C26.5518 183.517 32.5021 186.299 35.9556 187.444C39.4091 188.574 39.8876 186.447 39.8876 186.447C35.7613 180.112 38.7812 177.018 38.7812 177.018C34.5054 165.477 36.2098 143.048 36.2098 143.048C33.414 139.464 35.6865 123.327 39.8277 123.698C39.8277 123.698 43.8195 103.471 52.7598 88.3454C61.7001 73.2196 70.7002 65.1436 70.7002 65.1436C70.7899 63.1357 72.1504 61.9608 72.1504 61.9608C70.5956 59.6257 70.162 53.1708 70.162 53.1708C64.0174 47.5637 49.979 47.9058 49.979 47.9058C54.9575 44.6635 64.2865 45.7046 64.2865 45.7046C42.3544 40.2165 38.7962 40.5883 25.5502 65.0841C7.56487 101.121 5.78578 129.737 7.80409 150.797Z" fill="#8F8F8F"/>
<path d="M177.879 20.5395C176.743 14.4416 170.763 12.3743 170.763 12.3743C176.369 11.3629 178.433 5.10141 178.433 5.10141C180.227 12.0173 186.147 13.0287 186.147 13.0287C179.913 13.9211 177.879 20.5395 177.879 20.5395Z" fill="#8F8F8F"/>
<path d="M250.194 92.5396C252.227 100.437 259 101.582 259 101.582C251.884 102.609 249.551 110.164 249.551 110.164C248.251 103.203 241.433 100.839 241.433 100.839C247.832 99.6934 250.194 92.5396 250.194 92.5396Z" fill="#8F8F8F"/>
<path d="M185.758 101.567C179.315 102.49 177.207 109.346 177.207 109.346C176.025 103.04 169.851 100.898 169.851 100.898C175.652 99.857 177.79 93.3575 177.79 93.3575C179.629 100.526 185.758 101.567 185.758 101.567Z" fill="#8F8F8F"/>
<path d="M235.603 153.415C237.98 162.576 245.829 163.915 245.829 163.915C237.576 165.105 234.87 173.88 234.87 173.88C233.36 165.804 225.436 163.067 225.436 163.067C232.867 161.729 235.603 153.415 235.603 153.415Z" fill="#8F8F8F"/>
<path d="M208.647 94.7407C190.737 94.7407 176.175 80.2396 176.175 62.4218C176.175 44.604 190.737 30.1177 208.647 30.1177C226.558 30.1177 241.119 44.604 241.119 62.4218C241.134 80.2396 226.558 94.7407 208.647 94.7407ZM208.647 34.654C193.248 34.654 180.735 47.1175 180.735 62.4218C180.735 77.7409 193.263 90.1896 208.647 90.1896C224.031 90.1896 236.56 77.7261 236.56 62.4218C236.574 47.1027 224.046 34.654 208.647 34.654Z" fill="#8F8F8F"/>
</g>
<defs>
<clipPath id="clip0_1_215">
<rect width="259" height="288" fill="white" transform="matrix(-1 0 0 1 259 0)"/>
</clipPath>
</defs>
</svg>
