<svg width="37" height="36" viewBox="0 0 37 36" fill="none" xmlns="http://www.w3.org/2000/svg">
<path d="M19 15.6924V14.0925L15.5574 12L12 14.0925V17.9075L15.5574 20L18.8852 18.0308" stroke="white" stroke-width="0.7"/>
<path d="M19.1186 20.3527V21.8825L22.4407 24L26 21.8825V17.765L22.4407 16L19 17.8823" stroke="white" stroke-width="0.7"/>
<path d="M18.6094 35.3438C28.214 35.3438 36 27.5577 36 17.9531C36 8.34855 28.214 0.5625 18.6094 0.5625C9.0048 0.5625 1.21875 8.34855 1.21875 17.9531C1.21875 27.5577 9.0048 35.3438 18.6094 35.3438Z" stroke="white" stroke-width="0.7" stroke-miterlimit="10"/>
<path d="M18.6093 32.3193C26.5435 32.3193 32.9755 25.8873 32.9755 17.9531C32.9755 10.0189 26.5435 3.58691 18.6093 3.58691C10.6751 3.58691 4.24316 10.0189 4.24316 17.9531C4.24316 25.8873 10.6751 32.3193 18.6093 32.3193Z" stroke="white" stroke-width="0.7" stroke-miterlimit="10"/>
<path d="M18.6094 0.5625V3.58696" stroke="white" stroke-width="0.7" stroke-miterlimit="10"/>
<path d="M32.9756 17.9531H36" stroke="white" stroke-width="0.7" stroke-miterlimit="10"/>
<path d="M18.6094 32.3193V35.3438" stroke="white" stroke-width="0.7" stroke-miterlimit="10"/>
<path d="M1.21875 17.9531H4.24321" stroke="white" stroke-width="0.7" stroke-miterlimit="10"/>
<path d="M30.9037 5.65869L28.7715 7.79093" stroke="white" stroke-width="0.7" stroke-miterlimit="10"/>
<path d="M28.7715 28.1152L30.9037 30.2475" stroke="white" stroke-width="0.7" stroke-miterlimit="10"/>
<path d="M8.44718 28.1152L6.31494 30.2475" stroke="white" stroke-width="0.7" stroke-miterlimit="10"/>
<path d="M6.31494 5.65869L8.44718 7.79093" stroke="white" stroke-width="0.7" stroke-miterlimit="10"/>
<path d="M1.80859 13.4468L4.72719 14.2331" stroke="white" stroke-width="0.7" stroke-miterlimit="10"/>
<path d="M22.3296 4.07094L23.116 1.15234" stroke="white" stroke-width="0.7" stroke-miterlimit="10"/>
<path d="M32.4917 21.6732L35.4103 22.4596" stroke="white" stroke-width="0.7" stroke-miterlimit="10"/>
<path d="M14.103 34.7539L14.8894 31.8353" stroke="white" stroke-width="0.7" stroke-miterlimit="10"/>
<path d="M9.91406 2.89136L11.4263 5.50751" stroke="white" stroke-width="0.7" stroke-miterlimit="10"/>
<path d="M31.0547 10.77L33.6708 9.25781" stroke="white" stroke-width="0.7" stroke-miterlimit="10"/>
<path d="M25.7925 30.3988L27.3047 33.015" stroke="white" stroke-width="0.7" stroke-miterlimit="10"/>
<path d="M3.54736 26.6485L6.16352 25.1362" stroke="white" stroke-width="0.7" stroke-miterlimit="10"/>
<path d="M3.54736 9.25781L6.16352 10.77" stroke="white" stroke-width="0.7" stroke-miterlimit="10"/>
<path d="M25.7925 5.50751L27.3047 2.89136" stroke="white" stroke-width="0.7" stroke-miterlimit="10"/>
<path d="M31.0547 25.1362L33.6708 26.6485" stroke="white" stroke-width="0.7" stroke-miterlimit="10"/>
<path d="M9.91406 33.015L11.4263 30.3988" stroke="white" stroke-width="0.7" stroke-miterlimit="10"/>
<path d="M14.103 1.15234L14.8894 4.07094" stroke="white" stroke-width="0.7" stroke-miterlimit="10"/>
<path d="M32.4917 14.2331L35.4103 13.4468" stroke="white" stroke-width="0.7" stroke-miterlimit="10"/>
<path d="M22.3296 31.8353L23.116 34.7539" stroke="white" stroke-width="0.7" stroke-miterlimit="10"/>
<path d="M1.80859 22.4596L4.72719 21.6732" stroke="white" stroke-width="0.7" stroke-miterlimit="10"/>
</svg>
