<svg width="1485" height="878" viewBox="0 0 1485 878" fill="none" xmlns="http://www.w3.org/2000/svg">
<rect width="1485" height="249" rx="7" fill="#212121"/>
<rect y="272" width="1485" height="606" rx="7" fill="#212121"/>
<rect x="67" y="359" width="166" height="19" rx="9.5" fill="#313131"/>
<rect x="67" y="435" width="166" height="19" rx="9.5" fill="#313131"/>
<rect x="67" y="511" width="166" height="19" rx="9.5" fill="#313131"/>
<rect x="67" y="587" width="166" height="19" rx="9.5" fill="#313131"/>
<rect x="67" y="663" width="166" height="19" rx="9.5" fill="#313131"/>
<rect x="67" y="739" width="166" height="19" rx="9.5" fill="#313131"/>
<rect x="67" y="815" width="166" height="19" rx="9.5" fill="#313131"/>
<rect x="363" y="359" width="166" height="19" rx="9.5" fill="#313131"/>
<rect x="363" y="435" width="166" height="19" rx="9.5" fill="#313131"/>
<rect x="363" y="511" width="166" height="19" rx="9.5" fill="#313131"/>
<rect x="363" y="587" width="266" height="19" rx="9.5" fill="#313131"/>
<rect x="363" y="663" width="196" height="19" rx="9.5" fill="#313131"/>
<rect x="363" y="739" width="216" height="19" rx="9.5" fill="#313131"/>
<rect x="363" y="815" width="239" height="19" rx="9.5" fill="#313131"/>
<rect x="968" y="359" width="166" height="19" rx="9.5" fill="#313131"/>
<rect x="968" y="435" width="166" height="19" rx="9.5" fill="#313131"/>
<rect x="968" y="511" width="166" height="19" rx="9.5" fill="#313131"/>
<rect x="968" y="587" width="166" height="19" rx="9.5" fill="#313131"/>
<rect x="968" y="663" width="166" height="19" rx="9.5" fill="#313131"/>
<rect x="968" y="739" width="166" height="19" rx="9.5" fill="#313131"/>
<rect x="968" y="815" width="166" height="19" rx="9.5" fill="#313131"/>
<rect x="1241" y="359" width="166" height="19" rx="9.5" fill="#313131"/>
<rect x="1241" y="435" width="166" height="19" rx="9.5" fill="#313131"/>
<rect x="1241" y="511" width="166" height="19" rx="9.5" fill="#313131"/>
<rect x="1241" y="587" width="166" height="19" rx="9.5" fill="#313131"/>
<rect x="1241" y="663" width="166" height="19" rx="9.5" fill="#313131"/>
<rect x="1241" y="739" width="166" height="19" rx="9.5" fill="#313131"/>
<rect x="1241" y="815" width="166" height="19" rx="9.5" fill="#313131"/>
</svg>
