<svg width="37" height="37" viewBox="0 0 37 37" fill="none" xmlns="http://www.w3.org/2000/svg">
<path d="M14.4291 12.35H26.0116L23.1334 15.65H11.5509L14.4291 12.35Z" stroke="white" stroke-width="0.7"/>
<path d="M14.3998 21.35H25.8374L23.1627 23.65H11.7251L14.3998 21.35Z" stroke="white" stroke-width="0.7"/>
<path d="M25.8374 19.65H14.3997L11.7251 17.35H23.1627L25.8374 19.65Z" stroke="white" stroke-width="0.7"/>
<path d="M18.3906 35.7812C27.9952 35.7812 35.7812 27.9952 35.7812 18.3906C35.7812 8.78605 27.9952 1 18.3906 1C8.78605 1 1 8.78605 1 18.3906C1 27.9952 8.78605 35.7812 18.3906 35.7812Z" stroke="white" stroke-width="0.7" stroke-miterlimit="10"/>
<path d="M18.3906 32.7568C26.3248 32.7568 32.7568 26.3248 32.7568 18.3906C32.7568 10.4564 26.3248 4.02441 18.3906 4.02441C10.4564 4.02441 4.02441 10.4564 4.02441 18.3906C4.02441 26.3248 10.4564 32.7568 18.3906 32.7568Z" stroke="white" stroke-width="0.7" stroke-miterlimit="10"/>
<path d="M18.3906 1V4.02446" stroke="white" stroke-width="0.7" stroke-miterlimit="10"/>
<path d="M32.7568 18.3906H35.7813" stroke="white" stroke-width="0.7" stroke-miterlimit="10"/>
<path d="M18.3906 32.7568V35.7813" stroke="white" stroke-width="0.7" stroke-miterlimit="10"/>
<path d="M1 18.3906H4.02446" stroke="white" stroke-width="0.7" stroke-miterlimit="10"/>
<path d="M30.685 6.09619L28.5527 8.22843" stroke="white" stroke-width="0.7" stroke-miterlimit="10"/>
<path d="M28.5527 28.5527L30.685 30.685" stroke="white" stroke-width="0.7" stroke-miterlimit="10"/>
<path d="M8.22843 28.5527L6.09619 30.685" stroke="white" stroke-width="0.7" stroke-miterlimit="10"/>
<path d="M6.09619 6.09619L8.22843 8.22843" stroke="white" stroke-width="0.7" stroke-miterlimit="10"/>
<path d="M1.58984 13.8843L4.50844 14.6706" stroke="white" stroke-width="0.7" stroke-miterlimit="10"/>
<path d="M22.1108 4.50844L22.8972 1.58984" stroke="white" stroke-width="0.7" stroke-miterlimit="10"/>
<path d="M32.2729 22.1107L35.1915 22.8971" stroke="white" stroke-width="0.7" stroke-miterlimit="10"/>
<path d="M13.8843 35.1914L14.6706 32.2728" stroke="white" stroke-width="0.7" stroke-miterlimit="10"/>
<path d="M9.69531 3.32886L11.2075 5.94501" stroke="white" stroke-width="0.7" stroke-miterlimit="10"/>
<path d="M30.8359 11.2075L33.4521 9.69531" stroke="white" stroke-width="0.7" stroke-miterlimit="10"/>
<path d="M25.5737 30.8363L27.086 33.4525" stroke="white" stroke-width="0.7" stroke-miterlimit="10"/>
<path d="M3.32861 27.086L5.94477 25.5737" stroke="white" stroke-width="0.7" stroke-miterlimit="10"/>
<path d="M3.32861 9.69531L5.94477 11.2075" stroke="white" stroke-width="0.7" stroke-miterlimit="10"/>
<path d="M25.5737 5.94501L27.086 3.32886" stroke="white" stroke-width="0.7" stroke-miterlimit="10"/>
<path d="M30.8359 25.5737L33.4521 27.086" stroke="white" stroke-width="0.7" stroke-miterlimit="10"/>
<path d="M9.69531 33.4525L11.2075 30.8363" stroke="white" stroke-width="0.7" stroke-miterlimit="10"/>
<path d="M13.8843 1.58984L14.6706 4.50844" stroke="white" stroke-width="0.7" stroke-miterlimit="10"/>
<path d="M32.2729 14.6706L35.1915 13.8843" stroke="white" stroke-width="0.7" stroke-miterlimit="10"/>
<path d="M22.1108 32.2728L22.8972 35.1914" stroke="white" stroke-width="0.7" stroke-miterlimit="10"/>
<path d="M1.58984 22.8971L4.50844 22.1107" stroke="white" stroke-width="0.7" stroke-miterlimit="10"/>
</svg>
