<svg width="22" height="22" viewBox="0 0 22 22" fill="none" xmlns="http://www.w3.org/2000/svg">
<path d="M6 5.5C6 2.73739 8.23739 0.5 11 0.5C13.7626 0.5 16 2.73739 16 5.5C16 8.26261 13.7626 10.5 11 10.5C8.23739 10.5 6 8.26261 6 5.5ZM0.5 17.875C0.5 17.1443 0.862083 16.4672 1.54159 15.84C2.2245 15.2098 3.19418 14.6643 4.30922 14.2176C6.54008 13.3239 9.22688 12.875 11 12.875C12.7731 12.875 15.4599 13.3239 17.6908 14.2176C18.8058 14.6643 19.7755 15.2098 20.4584 15.84C21.1379 16.4672 21.5 17.1443 21.5 17.875V20C21.5 20.8284 20.8284 21.5 20 21.5H2C1.17157 21.5 0.5 20.8284 0.5 20V17.875Z" stroke="black"/>
</svg>
