<svg xmlns="http://www.w3.org/2000/svg" viewBox="0 0 52 48"><defs><style>.cls-1{fill:#5a62a8;stroke:#5a62a8;}.cls-2{fill:#e9e9e9;}.cls-3{fill:none;stroke:#e9e9e9;stroke-linecap:square;stroke-linejoin:round;}</style></defs><g id="Isolation_Mode" data-name="Isolation Mode"><path class="cls-1" d="M60.05,33.3a25.5,25.5,0,0,1-51,.1,4.33,4.33,0,0,1,2.43-2.16c1.4-.54,3.47-.64,6.39.52a6.83,6.83,0,0,0,5.36,0,10.55,10.55,0,0,0,4-3.13,26.16,26.16,0,0,0,2.69-4.1c.33-.61.63-1.18.88-1.67l.06-.11c.27-.53.48-.95.66-1.24A5.68,5.68,0,0,1,35.32,19c1.75-.28,4,.26,6.38,2.67a10.2,10.2,0,0,0,8.49,3.21A10.8,10.8,0,0,0,57,21.18,25.37,25.37,0,0,1,60.05,33.3Z" transform="translate(-8.55 -11.3)"/><circle class="cls-2" cx="26" cy="22" r="2"/><path class="cls-3" d="M34.55,11.8V33.3l11-8" transform="translate(-8.55 -11.3)"/></g></svg>