<svg xmlns="http://www.w3.org/2000/svg" viewBox="0 0 52 40.89"><defs><style>.cls-1{fill:#5a62a8;stroke:#5a62a8;}.cls-2{fill:none;stroke:#e9e9e9;}.cls-3{fill:#e9e9e9;}</style></defs><g id="Isolation_Mode" data-name="Isolation Mode"><path class="cls-1" d="M60.69,31a25.5,25.5,0,0,1-51,.1A4.33,4.33,0,0,1,12.12,29c1.39-.53,3.47-.64,6.38.53a6.87,6.87,0,0,0,5.36.05,10.57,10.57,0,0,0,4-3.14,25.79,25.79,0,0,0,2.7-4.1c.33-.6.62-1.17.87-1.67l.06-.11c.27-.52.49-.94.67-1.24A5.63,5.63,0,0,1,36,16.69c1.75-.28,4,.26,6.38,2.68a10.21,10.21,0,0,0,8.5,3.2,10.78,10.78,0,0,0,6.8-3.68A25.43,25.43,0,0,1,60.69,31Z" transform="translate(-9.19 -16.13)"/><path class="cls-2" d="M36.19,30.31l-5.38,3.93a10.75,10.75,0,0,1-6.36,2.07h0a6,6,0,1,1,0-12h0a10.76,10.76,0,0,1,6.36,2.08l3.71,2.71" transform="translate(-9.19 -16.13)"/><circle class="cls-3" cx="25.21" cy="12.89" r="0.51"/><path class="cls-2" d="M36.19,30.31l5.37-3.92a10.81,10.81,0,0,1,6.37-2.08h0a6,6,0,1,1,0,12h0a10.8,10.8,0,0,1-6.37-2.07l-3.71-2.71" transform="translate(-9.19 -16.13)"/><circle class="cls-3" cx="28.79" cy="15.49" r="0.51"/></g></svg>