<svg width="358" height="187" viewBox="0 0 358 187" fill="none" xmlns="http://www.w3.org/2000/svg">
<path d="M263.278 12.1957C266.646 12.1957 269.376 9.46563 269.376 6.09787C269.376 2.73011 266.646 0 263.278 0C259.91 0 257.18 2.73011 257.18 6.09787C257.18 9.46563 259.91 12.1957 263.278 12.1957Z" fill="#FF5873"/>
<path d="M303.476 102.994C303.354 102.994 303.243 102.914 303.211 102.79L295.332 72.1647C290.147 52.004 271.986 37.9237 251.168 37.9237C251.017 37.9237 250.895 37.8014 250.895 37.6508C250.895 37.5002 251.017 37.3779 251.168 37.3779C272.233 37.3779 290.613 51.6263 295.86 72.0274L303.739 102.652C303.778 102.8 303.689 102.946 303.543 102.985C303.52 102.992 303.496 102.994 303.476 102.994Z" fill="#474F93"/>
<path d="M324.204 85.4655V69.5232C324.204 66.042 321.372 63.209 317.889 63.209H282.649C282.498 63.209 282.376 63.3313 282.376 63.4819V165.686C282.376 165.838 282.498 165.959 282.649 165.959H317.89C318.041 165.959 318.162 165.838 318.162 165.686V159.91C321.519 159.767 324.205 156.993 324.205 153.602V137.661C324.205 134.27 321.52 131.494 318.162 131.352V125.843C321.519 125.699 324.205 122.925 324.205 119.534V103.593C324.205 100.202 321.52 97.4266 318.162 97.2843V91.7764C321.519 91.6316 324.204 88.8568 324.204 85.4655Z" fill="#474F93"/>
<path d="M285.67 125.578H317.888C321.225 125.578 323.931 122.873 323.931 119.536V103.594C323.931 100.257 321.226 97.5518 317.888 97.5518H285.67V125.578V125.578Z" fill="#747AAC"/>
<path d="M317.89 125.85H285.671C285.52 125.85 285.398 125.728 285.398 125.577V97.5512C285.398 97.3998 285.52 97.2783 285.671 97.2783H317.89C321.372 97.2783 324.205 100.111 324.205 103.593V119.535C324.204 123.018 321.372 125.85 317.89 125.85ZM285.944 125.305H317.89C321.071 125.305 323.659 122.717 323.659 119.536V103.594C323.659 100.413 321.071 97.825 317.89 97.825H285.944V125.305Z" fill="#474F93"/>
<path d="M285.67 91.5082H317.888C321.225 91.5082 323.931 88.8033 323.931 85.4669V69.5237C323.931 66.1873 321.226 63.4824 317.888 63.4824H285.67V91.5082V91.5082Z" fill="#747AAC"/>
<path d="M317.89 91.7805H285.671C285.52 91.7805 285.398 91.6582 285.398 91.5076V63.4819C285.398 63.3313 285.52 63.209 285.671 63.209H317.89C321.372 63.209 324.205 66.0412 324.205 69.5232V85.4663C324.204 88.9483 321.372 91.7805 317.89 91.7805ZM285.944 91.2356H317.89C321.071 91.2356 323.659 88.6471 323.659 85.4663V69.5232C323.659 66.3424 321.071 63.7548 317.89 63.7548H285.944V91.2356Z" fill="#474F93"/>
<path d="M285.67 159.644H317.888C321.225 159.644 323.931 156.939 323.931 153.603V137.66C323.931 134.324 321.226 131.619 317.888 131.619H285.67V159.644V159.644Z" fill="#747AAC"/>
<path d="M317.89 159.917H285.671C285.52 159.917 285.398 159.796 285.398 159.644V131.619C285.398 131.467 285.52 131.346 285.671 131.346H317.89C321.372 131.346 324.205 134.178 324.205 137.661V153.602C324.204 157.084 321.372 159.917 317.89 159.917ZM285.944 159.371H317.89C321.071 159.371 323.659 156.784 323.659 153.602V137.661C323.659 134.479 321.071 131.892 317.89 131.892H285.944V159.371Z" fill="#474F93"/>
<path d="M228.274 91.5091H285.67C289.007 91.5091 291.712 88.8042 291.712 85.4678V69.5247C291.712 66.1883 289.007 63.4834 285.67 63.4834H228.274C224.938 63.4834 222.233 66.1883 222.233 69.5247V85.467C222.232 88.8042 224.937 91.5091 228.274 91.5091Z" fill="white"/>
<path d="M285.671 91.7815H228.275C224.792 91.7815 221.959 88.9493 221.959 85.4665V69.5242C221.959 66.043 224.792 63.21 228.275 63.21H285.671C289.152 63.21 291.984 66.0422 291.984 69.5242V85.4673C291.984 88.9493 289.152 91.7815 285.671 91.7815ZM228.275 63.7558C225.093 63.7558 222.505 66.3433 222.505 69.5242V85.4673C222.505 88.6481 225.093 91.2365 228.275 91.2365H285.671C288.851 91.2365 291.439 88.6481 291.439 85.4673V69.5242C291.439 66.3433 288.851 63.7558 285.671 63.7558H228.275Z" fill="#474F93"/>
<path d="M228.274 125.578H285.67C289.007 125.578 291.712 122.873 291.712 119.536V103.594C291.712 100.257 289.007 97.5518 285.67 97.5518H228.274C224.938 97.5518 222.233 100.257 222.233 103.594V119.536C222.232 122.873 224.937 125.578 228.274 125.578Z" fill="white"/>
<path d="M285.671 125.85H228.275C224.792 125.85 221.959 123.018 221.959 119.535V103.593C221.959 100.111 224.792 97.2783 228.275 97.2783H285.671C289.152 97.2783 291.984 100.111 291.984 103.593V119.535C291.984 123.018 289.152 125.85 285.671 125.85ZM228.275 97.8241C225.093 97.8241 222.505 100.412 222.505 103.593V119.535C222.505 122.716 225.093 125.304 228.275 125.304H285.671C288.851 125.304 291.439 122.716 291.439 119.535V103.593C291.439 100.412 288.851 97.8241 285.671 97.8241H228.275V97.8241Z" fill="#474F93"/>
<path d="M228.274 159.645H285.67C289.007 159.645 291.712 156.94 291.712 153.604V137.661C291.712 134.325 289.007 131.62 285.67 131.62H228.274C224.938 131.62 222.233 134.325 222.233 137.661V153.604C222.232 156.94 224.937 159.645 228.274 159.645Z" fill="white"/>
<path d="M285.671 159.918H228.275C224.792 159.918 221.959 157.086 221.959 153.603V137.662C221.959 134.179 224.792 131.347 228.275 131.347H285.671C289.152 131.347 291.984 134.179 291.984 137.662V153.603C291.984 157.085 289.152 159.918 285.671 159.918ZM228.275 131.892C225.093 131.892 222.505 134.479 222.505 137.661V153.602C222.505 156.784 225.093 159.372 228.275 159.372H285.671C288.851 159.372 291.439 156.784 291.439 153.602V137.661C291.439 134.479 288.851 131.892 285.671 131.892H228.275Z" fill="#474F93"/>
<path d="M281.139 84.3263C281.806 84.3263 282.347 83.7855 282.347 83.1182C282.347 82.451 281.806 81.9102 281.139 81.9102C280.472 81.9102 279.931 82.451 279.931 83.1182C279.931 83.7855 280.472 84.3263 281.139 84.3263Z" fill="#747AAC"/>
<path d="M278.118 81.3058C278.785 81.3058 279.326 80.765 279.326 80.0977C279.326 79.4305 278.785 78.8896 278.118 78.8896C277.451 78.8896 276.91 79.4305 276.91 80.0977C276.91 80.765 277.451 81.3058 278.118 81.3058Z" fill="#747AAC"/>
<path d="M281.139 78.2853C281.806 78.2853 282.347 77.7444 282.347 77.0772C282.347 76.41 281.806 75.8691 281.139 75.8691C280.472 75.8691 279.931 76.41 279.931 77.0772C279.931 77.7444 280.472 78.2853 281.139 78.2853Z" fill="#747AAC"/>
<path d="M275.097 84.3263C275.764 84.3263 276.305 83.7855 276.305 83.1182C276.305 82.451 275.764 81.9102 275.097 81.9102C274.43 81.9102 273.889 82.451 273.889 83.1182C273.889 83.7855 274.43 84.3263 275.097 84.3263Z" fill="#747AAC"/>
<path d="M275.097 78.2853C275.764 78.2853 276.305 77.7444 276.305 77.0772C276.305 76.41 275.764 75.8691 275.097 75.8691C274.43 75.8691 273.889 76.41 273.889 77.0772C273.889 77.7444 274.43 78.2853 275.097 78.2853Z" fill="#747AAC"/>
<path d="M278.118 75.2629C278.785 75.2629 279.326 74.722 279.326 74.0548C279.326 73.3876 278.785 72.8467 278.118 72.8467C277.451 72.8467 276.91 73.3876 276.91 74.0548C276.91 74.722 277.451 75.2629 278.118 75.2629Z" fill="#747AAC"/>
<path d="M281.139 72.2433C281.806 72.2433 282.347 71.7025 282.347 71.0352C282.347 70.368 281.806 69.8271 281.139 69.8271C280.472 69.8271 279.931 70.368 279.931 71.0352C279.931 71.7025 280.472 72.2433 281.139 72.2433Z" fill="#747AAC"/>
<path d="M275.097 72.2433C275.764 72.2433 276.305 71.7025 276.305 71.0352C276.305 70.368 275.764 69.8271 275.097 69.8271C274.43 69.8271 273.889 70.368 273.889 71.0352C273.889 71.7025 274.43 72.2433 275.097 72.2433Z" fill="#747AAC"/>
<path d="M272.076 81.3058C272.743 81.3058 273.284 80.765 273.284 80.0977C273.284 79.4305 272.743 78.8896 272.076 78.8896C271.409 78.8896 270.868 79.4305 270.868 80.0977C270.868 80.765 271.409 81.3058 272.076 81.3058Z" fill="#747AAC"/>
<path d="M269.056 84.3263C269.723 84.3263 270.264 83.7855 270.264 83.1182C270.264 82.451 269.723 81.9102 269.056 81.9102C268.389 81.9102 267.848 82.451 267.848 83.1182C267.848 83.7855 268.389 84.3263 269.056 84.3263Z" fill="#747AAC"/>
<path d="M269.056 78.2853C269.723 78.2853 270.264 77.7444 270.264 77.0772C270.264 76.41 269.723 75.8691 269.056 75.8691C268.389 75.8691 267.848 76.41 267.848 77.0772C267.848 77.7444 268.389 78.2853 269.056 78.2853Z" fill="#747AAC"/>
<path d="M272.076 75.2629C272.743 75.2629 273.284 74.722 273.284 74.0548C273.284 73.3876 272.743 72.8467 272.076 72.8467C271.409 72.8467 270.868 73.3876 270.868 74.0548C270.868 74.722 271.409 75.2629 272.076 75.2629Z" fill="#747AAC"/>
<path d="M269.056 72.2433C269.723 72.2433 270.264 71.7025 270.264 71.0352C270.264 70.368 269.723 69.8271 269.056 69.8271C268.389 69.8271 267.848 70.368 267.848 71.0352C267.848 71.7025 268.389 72.2433 269.056 72.2433Z" fill="#747AAC"/>
<path d="M266.035 81.3058C266.702 81.3058 267.243 80.765 267.243 80.0977C267.243 79.4305 266.702 78.8896 266.035 78.8896C265.367 78.8896 264.826 79.4305 264.826 80.0977C264.826 80.765 265.367 81.3058 266.035 81.3058Z" fill="#747AAC"/>
<path d="M263.014 84.3263C263.681 84.3263 264.222 83.7855 264.222 83.1182C264.222 82.451 263.681 81.9102 263.014 81.9102C262.347 81.9102 261.806 82.451 261.806 83.1182C261.806 83.7855 262.347 84.3263 263.014 84.3263Z" fill="#747AAC"/>
<path d="M263.014 78.2853C263.681 78.2853 264.222 77.7444 264.222 77.0772C264.222 76.41 263.681 75.8691 263.014 75.8691C262.347 75.8691 261.806 76.41 261.806 77.0772C261.806 77.7444 262.347 78.2853 263.014 78.2853Z" fill="#747AAC"/>
<path d="M266.035 75.2629C266.702 75.2629 267.243 74.722 267.243 74.0548C267.243 73.3876 266.702 72.8467 266.035 72.8467C265.367 72.8467 264.826 73.3876 264.826 74.0548C264.826 74.722 265.367 75.2629 266.035 75.2629Z" fill="#747AAC"/>
<path d="M263.014 72.2433C263.681 72.2433 264.222 71.7025 264.222 71.0352C264.222 70.368 263.681 69.8271 263.014 69.8271C262.347 69.8271 261.806 70.368 261.806 71.0352C261.806 71.7025 262.347 72.2433 263.014 72.2433Z" fill="#747AAC"/>
<path d="M259.993 81.3058C260.66 81.3058 261.201 80.765 261.201 80.0977C261.201 79.4305 260.66 78.8896 259.993 78.8896C259.326 78.8896 258.785 79.4305 258.785 80.0977C258.785 80.765 259.326 81.3058 259.993 81.3058Z" fill="#747AAC"/>
<path d="M256.972 84.3263C257.64 84.3263 258.181 83.7855 258.181 83.1182C258.181 82.451 257.64 81.9102 256.972 81.9102C256.305 81.9102 255.764 82.451 255.764 83.1182C255.764 83.7855 256.305 84.3263 256.972 84.3263Z" fill="#747AAC"/>
<path d="M256.972 78.2853C257.64 78.2853 258.181 77.7444 258.181 77.0772C258.181 76.41 257.64 75.8691 256.972 75.8691C256.305 75.8691 255.764 76.41 255.764 77.0772C255.764 77.7444 256.305 78.2853 256.972 78.2853Z" fill="#747AAC"/>
<path d="M259.993 75.2629C260.66 75.2629 261.201 74.722 261.201 74.0548C261.201 73.3876 260.66 72.8467 259.993 72.8467C259.325 72.8467 258.784 73.3876 258.784 74.0548C258.784 74.722 259.325 75.2629 259.993 75.2629Z" fill="#747AAC"/>
<path d="M256.972 72.2433C257.64 72.2433 258.181 71.7025 258.181 71.0352C258.181 70.368 257.64 69.8271 256.972 69.8271C256.305 69.8271 255.764 70.368 255.764 71.0352C255.764 71.7025 256.305 72.2433 256.972 72.2433Z" fill="#747AAC"/>
<path d="M281.139 118.394C281.806 118.394 282.347 117.853 282.347 117.186C282.347 116.518 281.806 115.978 281.139 115.978C280.472 115.978 279.931 116.518 279.931 117.186C279.931 117.853 280.472 118.394 281.139 118.394Z" fill="#747AAC"/>
<path d="M278.118 115.373C278.785 115.373 279.326 114.832 279.326 114.165C279.326 113.498 278.785 112.957 278.118 112.957C277.451 112.957 276.91 113.498 276.91 114.165C276.91 114.832 277.451 115.373 278.118 115.373Z" fill="#747AAC"/>
<path d="M281.139 112.353C281.806 112.353 282.347 111.812 282.347 111.145C282.347 110.477 281.806 109.937 281.139 109.937C280.472 109.937 279.931 110.477 279.931 111.145C279.931 111.812 280.472 112.353 281.139 112.353Z" fill="#747AAC"/>
<path d="M275.097 118.394C275.764 118.394 276.305 117.853 276.305 117.186C276.305 116.518 275.764 115.978 275.097 115.978C274.43 115.978 273.889 116.518 273.889 117.186C273.889 117.853 274.43 118.394 275.097 118.394Z" fill="#747AAC"/>
<path d="M275.097 112.353C275.764 112.353 276.305 111.812 276.305 111.145C276.305 110.477 275.764 109.937 275.097 109.937C274.43 109.937 273.889 110.477 273.889 111.145C273.889 111.812 274.43 112.353 275.097 112.353Z" fill="#747AAC"/>
<path d="M278.118 109.331C278.785 109.331 279.326 108.79 279.326 108.123C279.326 107.456 278.785 106.915 278.118 106.915C277.451 106.915 276.91 107.456 276.91 108.123C276.91 108.79 277.451 109.331 278.118 109.331Z" fill="#747AAC"/>
<path d="M281.139 106.311C281.806 106.311 282.347 105.77 282.347 105.103C282.347 104.435 281.806 103.895 281.139 103.895C280.472 103.895 279.931 104.435 279.931 105.103C279.931 105.77 280.472 106.311 281.139 106.311Z" fill="#747AAC"/>
<path d="M275.097 106.311C275.764 106.311 276.305 105.77 276.305 105.103C276.305 104.435 275.764 103.895 275.097 103.895C274.43 103.895 273.889 104.435 273.889 105.103C273.889 105.77 274.43 106.311 275.097 106.311Z" fill="#747AAC"/>
<path d="M272.076 115.373C272.743 115.373 273.284 114.832 273.284 114.165C273.284 113.498 272.743 112.957 272.076 112.957C271.409 112.957 270.868 113.498 270.868 114.165C270.868 114.832 271.409 115.373 272.076 115.373Z" fill="#747AAC"/>
<path d="M269.056 118.394C269.723 118.394 270.264 117.853 270.264 117.186C270.264 116.518 269.723 115.978 269.056 115.978C268.389 115.978 267.848 116.518 267.848 117.186C267.848 117.853 268.389 118.394 269.056 118.394Z" fill="#747AAC"/>
<path d="M269.056 112.353C269.723 112.353 270.264 111.812 270.264 111.145C270.264 110.477 269.723 109.937 269.056 109.937C268.389 109.937 267.848 110.477 267.848 111.145C267.848 111.812 268.389 112.353 269.056 112.353Z" fill="#747AAC"/>
<path d="M272.076 109.331C272.743 109.331 273.284 108.79 273.284 108.123C273.284 107.456 272.743 106.915 272.076 106.915C271.409 106.915 270.868 107.456 270.868 108.123C270.868 108.79 271.409 109.331 272.076 109.331Z" fill="#747AAC"/>
<path d="M269.056 106.311C269.723 106.311 270.264 105.77 270.264 105.103C270.264 104.435 269.723 103.895 269.056 103.895C268.389 103.895 267.848 104.435 267.848 105.103C267.848 105.77 268.389 106.311 269.056 106.311Z" fill="#747AAC"/>
<path d="M266.035 115.373C266.702 115.373 267.243 114.832 267.243 114.165C267.243 113.498 266.702 112.957 266.035 112.957C265.367 112.957 264.826 113.498 264.826 114.165C264.826 114.832 265.367 115.373 266.035 115.373Z" fill="#747AAC"/>
<path d="M263.014 118.394C263.681 118.394 264.222 117.853 264.222 117.186C264.222 116.518 263.681 115.978 263.014 115.978C262.347 115.978 261.806 116.518 261.806 117.186C261.806 117.853 262.347 118.394 263.014 118.394Z" fill="#747AAC"/>
<path d="M263.014 112.353C263.681 112.353 264.222 111.812 264.222 111.145C264.222 110.477 263.681 109.937 263.014 109.937C262.347 109.937 261.806 110.477 261.806 111.145C261.806 111.812 262.347 112.353 263.014 112.353Z" fill="#747AAC"/>
<path d="M266.035 109.331C266.702 109.331 267.243 108.79 267.243 108.123C267.243 107.456 266.702 106.915 266.035 106.915C265.367 106.915 264.826 107.456 264.826 108.123C264.826 108.79 265.367 109.331 266.035 109.331Z" fill="#747AAC"/>
<path d="M263.014 106.311C263.681 106.311 264.222 105.77 264.222 105.103C264.222 104.435 263.681 103.895 263.014 103.895C262.347 103.895 261.806 104.435 261.806 105.103C261.806 105.77 262.347 106.311 263.014 106.311Z" fill="#747AAC"/>
<path d="M259.993 115.373C260.66 115.373 261.201 114.832 261.201 114.165C261.201 113.498 260.66 112.957 259.993 112.957C259.326 112.957 258.785 113.498 258.785 114.165C258.785 114.832 259.326 115.373 259.993 115.373Z" fill="#747AAC"/>
<path d="M256.972 118.394C257.64 118.394 258.181 117.853 258.181 117.186C258.181 116.518 257.64 115.978 256.972 115.978C256.305 115.978 255.764 116.518 255.764 117.186C255.764 117.853 256.305 118.394 256.972 118.394Z" fill="#747AAC"/>
<path d="M256.972 112.353C257.64 112.353 258.181 111.812 258.181 111.145C258.181 110.477 257.64 109.937 256.972 109.937C256.305 109.937 255.764 110.477 255.764 111.145C255.764 111.812 256.305 112.353 256.972 112.353Z" fill="#747AAC"/>
<path d="M259.993 109.331C260.66 109.331 261.201 108.79 261.201 108.123C261.201 107.456 260.66 106.915 259.993 106.915C259.325 106.915 258.784 107.456 258.784 108.123C258.784 108.79 259.325 109.331 259.993 109.331Z" fill="#747AAC"/>
<path d="M256.972 106.311C257.64 106.311 258.181 105.77 258.181 105.103C258.181 104.435 257.64 103.895 256.972 103.895C256.305 103.895 255.764 104.435 255.764 105.103C255.764 105.77 256.305 106.311 256.972 106.311Z" fill="#747AAC"/>
<path d="M281.139 152.461C281.806 152.461 282.347 151.92 282.347 151.253C282.347 150.586 281.806 150.045 281.139 150.045C280.472 150.045 279.931 150.586 279.931 151.253C279.931 151.92 280.472 152.461 281.139 152.461Z" fill="#747AAC"/>
<path d="M278.118 149.441C278.785 149.441 279.326 148.9 279.326 148.233C279.326 147.565 278.785 147.024 278.118 147.024C277.451 147.024 276.91 147.565 276.91 148.233C276.91 148.9 277.451 149.441 278.118 149.441Z" fill="#747AAC"/>
<path d="M281.139 146.421C281.806 146.421 282.347 145.88 282.347 145.213C282.347 144.546 281.806 144.005 281.139 144.005C280.472 144.005 279.931 144.546 279.931 145.213C279.931 145.88 280.472 146.421 281.139 146.421Z" fill="#747AAC"/>
<path d="M275.097 152.461C275.764 152.461 276.305 151.92 276.305 151.253C276.305 150.586 275.764 150.045 275.097 150.045C274.43 150.045 273.889 150.586 273.889 151.253C273.889 151.92 274.43 152.461 275.097 152.461Z" fill="#747AAC"/>
<path d="M275.097 146.421C275.764 146.421 276.305 145.88 276.305 145.213C276.305 144.546 275.764 144.005 275.097 144.005C274.43 144.005 273.889 144.546 273.889 145.213C273.889 145.88 274.43 146.421 275.097 146.421Z" fill="#747AAC"/>
<path d="M278.118 143.399C278.785 143.399 279.326 142.858 279.326 142.191C279.326 141.523 278.785 140.982 278.118 140.982C277.451 140.982 276.91 141.523 276.91 142.191C276.91 142.858 277.451 143.399 278.118 143.399Z" fill="#747AAC"/>
<path d="M281.139 140.379C281.806 140.379 282.347 139.838 282.347 139.171C282.347 138.504 281.806 137.963 281.139 137.963C280.472 137.963 279.931 138.504 279.931 139.171C279.931 139.838 280.472 140.379 281.139 140.379Z" fill="#747AAC"/>
<path d="M275.097 140.379C275.764 140.379 276.305 139.838 276.305 139.171C276.305 138.504 275.764 137.963 275.097 137.963C274.43 137.963 273.889 138.504 273.889 139.171C273.889 139.838 274.43 140.379 275.097 140.379Z" fill="#747AAC"/>
<path d="M272.076 149.441C272.743 149.441 273.284 148.9 273.284 148.233C273.284 147.565 272.743 147.024 272.076 147.024C271.409 147.024 270.868 147.565 270.868 148.233C270.868 148.9 271.409 149.441 272.076 149.441Z" fill="#747AAC"/>
<path d="M269.056 152.461C269.723 152.461 270.264 151.92 270.264 151.253C270.264 150.586 269.723 150.045 269.056 150.045C268.389 150.045 267.848 150.586 267.848 151.253C267.848 151.92 268.389 152.461 269.056 152.461Z" fill="#747AAC"/>
<path d="M269.056 146.421C269.723 146.421 270.264 145.88 270.264 145.213C270.264 144.546 269.723 144.005 269.056 144.005C268.389 144.005 267.848 144.546 267.848 145.213C267.848 145.88 268.389 146.421 269.056 146.421Z" fill="#747AAC"/>
<path d="M272.076 143.399C272.743 143.399 273.284 142.858 273.284 142.191C273.284 141.523 272.743 140.982 272.076 140.982C271.409 140.982 270.868 141.523 270.868 142.191C270.868 142.858 271.409 143.399 272.076 143.399Z" fill="#747AAC"/>
<path d="M269.056 140.379C269.723 140.379 270.264 139.838 270.264 139.171C270.264 138.504 269.723 137.963 269.056 137.963C268.389 137.963 267.848 138.504 267.848 139.171C267.848 139.838 268.389 140.379 269.056 140.379Z" fill="#747AAC"/>
<path d="M266.035 149.441C266.702 149.441 267.243 148.9 267.243 148.233C267.243 147.565 266.702 147.024 266.035 147.024C265.367 147.024 264.826 147.565 264.826 148.233C264.826 148.9 265.367 149.441 266.035 149.441Z" fill="#747AAC"/>
<path d="M263.014 152.461C263.681 152.461 264.222 151.92 264.222 151.253C264.222 150.586 263.681 150.045 263.014 150.045C262.347 150.045 261.806 150.586 261.806 151.253C261.806 151.92 262.347 152.461 263.014 152.461Z" fill="#747AAC"/>
<path d="M263.014 146.421C263.681 146.421 264.222 145.88 264.222 145.213C264.222 144.546 263.681 144.005 263.014 144.005C262.347 144.005 261.806 144.546 261.806 145.213C261.806 145.88 262.347 146.421 263.014 146.421Z" fill="#747AAC"/>
<path d="M266.035 143.399C266.702 143.399 267.243 142.858 267.243 142.191C267.243 141.523 266.702 140.982 266.035 140.982C265.367 140.982 264.826 141.523 264.826 142.191C264.826 142.858 265.367 143.399 266.035 143.399Z" fill="#747AAC"/>
<path d="M263.014 140.379C263.681 140.379 264.222 139.838 264.222 139.171C264.222 138.504 263.681 137.963 263.014 137.963C262.347 137.963 261.806 138.504 261.806 139.171C261.806 139.838 262.347 140.379 263.014 140.379Z" fill="#747AAC"/>
<path d="M259.993 149.441C260.66 149.441 261.201 148.9 261.201 148.233C261.201 147.565 260.66 147.024 259.993 147.024C259.326 147.024 258.785 147.565 258.785 148.233C258.785 148.9 259.326 149.441 259.993 149.441Z" fill="#747AAC"/>
<path d="M256.972 152.461C257.64 152.461 258.181 151.92 258.181 151.253C258.181 150.586 257.64 150.045 256.972 150.045C256.305 150.045 255.764 150.586 255.764 151.253C255.764 151.92 256.305 152.461 256.972 152.461Z" fill="#747AAC"/>
<path d="M256.972 146.421C257.64 146.421 258.181 145.88 258.181 145.213C258.181 144.546 257.64 144.005 256.972 144.005C256.305 144.005 255.764 144.546 255.764 145.213C255.764 145.88 256.305 146.421 256.972 146.421Z" fill="#747AAC"/>
<path d="M259.993 143.399C260.66 143.399 261.201 142.858 261.201 142.191C261.201 141.523 260.66 140.982 259.993 140.982C259.325 140.982 258.784 141.523 258.784 142.191C258.784 142.858 259.325 143.399 259.993 143.399Z" fill="#747AAC"/>
<path d="M256.972 140.379C257.64 140.379 258.181 139.838 258.181 139.171C258.181 138.504 257.64 137.963 256.972 137.963C256.305 137.963 255.764 138.504 255.764 139.171C255.764 139.838 256.305 140.379 256.972 140.379Z" fill="#747AAC"/>
<path d="M232.806 151.254C233.473 151.254 234.014 150.713 234.014 150.046V140.379C234.014 139.712 233.473 139.171 232.806 139.171C232.138 139.171 231.598 139.712 231.598 140.379V150.045C231.597 150.713 232.138 151.254 232.806 151.254Z" fill="#747AAC"/>
<path d="M238.847 151.254C239.514 151.254 240.055 150.713 240.055 150.046V140.379C240.055 139.712 239.514 139.171 238.847 139.171C238.18 139.171 237.639 139.712 237.639 140.379V150.045C237.639 150.713 238.18 151.254 238.847 151.254Z" fill="#747AAC"/>
<path d="M232.806 117.186C233.473 117.186 234.014 116.645 234.014 115.978V106.312C234.014 105.644 233.473 105.104 232.806 105.104C232.138 105.104 231.598 105.644 231.598 106.312V115.978C231.597 116.644 232.138 117.186 232.806 117.186Z" fill="#747AAC"/>
<path d="M238.847 117.186C239.514 117.186 240.055 116.645 240.055 115.978V106.312C240.055 105.644 239.514 105.104 238.847 105.104C238.18 105.104 237.639 105.644 237.639 106.312V115.978C237.639 116.644 238.18 117.186 238.847 117.186Z" fill="#747AAC"/>
<path d="M232.806 83.1177C233.473 83.1177 234.014 82.5769 234.014 81.9096V72.2432C234.014 71.576 233.473 71.0352 232.806 71.0352C232.138 71.0352 231.598 71.576 231.598 72.2432V81.9096C231.597 82.5761 232.138 83.1177 232.806 83.1177Z" fill="#747AAC"/>
<path d="M238.847 83.1177C239.514 83.1177 240.055 82.5769 240.055 81.9096V72.2432C240.055 71.576 239.514 71.0352 238.847 71.0352C238.179 71.0352 237.639 71.576 237.639 72.2432V81.9096C237.639 82.5761 238.179 83.1177 238.847 83.1177Z" fill="#747AAC"/>
<path d="M288.174 159.644H229.532V165.685H288.174V159.644Z" fill="#747AAC"/>
<path d="M288.174 165.96H229.532C229.381 165.96 229.259 165.839 229.259 165.687V159.645C229.259 159.494 229.381 159.372 229.532 159.372H288.174C288.325 159.372 288.446 159.494 288.446 159.645V165.687C288.446 165.839 288.325 165.96 288.174 165.96ZM229.805 165.414H287.901V159.918H229.805V165.414Z" fill="#474F93"/>
<path d="M288.173 125.577H229.532V131.618H288.173V125.577Z" fill="#747AAC"/>
<path d="M288.173 131.892H229.532C229.38 131.892 229.259 131.77 229.259 131.619V125.577C229.259 125.425 229.38 125.304 229.532 125.304H288.173C288.325 125.304 288.446 125.425 288.446 125.577V131.619C288.446 131.77 288.325 131.892 288.173 131.892ZM229.805 131.347H287.9V125.85H229.805V131.347Z" fill="#474F93"/>
<path d="M288.174 91.5078H229.532V97.5491H288.174V91.5078Z" fill="#747AAC"/>
<path d="M288.174 97.8223H229.532C229.381 97.8223 229.259 97.7008 229.259 97.5494V91.5073C229.259 91.3567 229.381 91.2344 229.532 91.2344H288.174C288.325 91.2344 288.446 91.3567 288.446 91.5073V97.5494C288.446 97.7008 288.325 97.8223 288.174 97.8223ZM229.805 97.2765H287.901V91.7802H229.805V97.2765Z" fill="#474F93"/>
<path d="M97.5887 165.685H111.829C125.713 146.461 132.69 121.221 132.69 96.0166C132.69 70.7407 125.748 45.5006 111.829 26.2061C107.165 30.8695 103.285 35.9956 100.188 41.4428C94.2074 40.3753 86.6959 40.3753 80.7153 41.4428C77.6186 35.9956 73.738 30.8695 69.1095 26.2061C55.1898 45.5006 48.2483 70.7416 48.2483 96.0166C48.2483 121.221 55.2256 146.461 69.1095 165.685H83.3495H97.5887V165.685Z" fill="#747AAC"/>
<path d="M111.829 165.959H69.1086C69.0213 165.959 68.9389 165.916 68.8873 165.845C55.4019 147.173 47.9753 122.374 47.9753 96.0174C47.9753 69.59 55.4019 44.7409 68.8873 26.0463C68.9339 25.9814 69.008 25.9406 69.0878 25.9348C69.1586 25.9148 69.2443 25.9564 69.3033 26.0146C73.8461 30.5916 77.7325 35.6802 80.8568 41.1416C86.794 40.109 94.1067 40.109 100.046 41.1416C103.186 35.6536 107.084 30.5649 111.636 26.0138C111.693 25.9572 111.778 25.9239 111.852 25.9348C111.931 25.9414 112.004 25.9814 112.052 26.0463C125.537 44.7417 132.964 69.5908 132.964 96.0174C132.964 122.375 125.537 147.172 112.052 165.845C111.998 165.915 111.916 165.959 111.829 165.959ZM69.2484 165.413H111.689C125.057 146.845 132.418 122.206 132.418 96.0174C132.418 69.8263 125.097 45.2002 111.795 26.627C107.33 31.1316 103.505 36.1603 100.425 41.5776C100.368 41.6766 100.25 41.7331 100.14 41.7107C94.1632 40.6432 86.7383 40.6432 80.7627 41.7107C80.6496 41.7331 80.5339 41.6774 80.4773 41.5776C77.413 36.1852 73.5999 31.1582 69.1419 26.6278C55.8429 45.1993 48.5211 69.8271 48.5211 96.0174C48.5211 122.208 55.8812 146.845 69.2484 165.413Z" fill="#474F93"/>
<path d="M102.51 71.9102C106.049 71.9102 108.918 69.0411 108.918 65.502C108.918 61.9628 106.049 59.0938 102.51 59.0938C98.9711 59.0938 96.1021 61.9628 96.1021 65.502C96.1021 69.0411 98.9711 71.9102 102.51 71.9102Z" fill="white"/>
<path d="M78.3955 71.9102C81.9347 71.9102 84.8037 69.0411 84.8037 65.502C84.8037 61.9628 81.9347 59.0938 78.3955 59.0938C74.8564 59.0938 71.9873 61.9628 71.9873 65.502C71.9873 69.0411 74.8564 71.9102 78.3955 71.9102Z" fill="white"/>
<path d="M102.511 72.1827C98.8268 72.1827 95.8298 69.1849 95.8298 65.5016C95.8298 61.8174 98.8276 58.8213 102.511 58.8213C106.194 58.8213 109.191 61.8182 109.191 65.5016C109.191 69.1849 106.195 72.1827 102.511 72.1827ZM102.511 59.3663C99.128 59.3663 96.3748 62.1186 96.3748 65.5007C96.3748 68.8837 99.1271 71.6369 102.511 71.6369C105.893 71.6369 108.645 68.8846 108.645 65.5007C108.645 62.1186 105.893 59.3663 102.511 59.3663Z" fill="#474F93"/>
<path d="M78.3954 72.1827C74.7112 72.1827 71.7151 69.1849 71.7151 65.5016C71.7151 61.8174 74.712 58.8213 78.3954 58.8213C82.0787 58.8213 85.0757 61.8182 85.0757 65.5016C85.0757 69.1849 82.0796 72.1827 78.3954 72.1827ZM78.3954 59.3663C75.0132 59.3663 72.2609 62.1186 72.2609 65.5007C72.2609 68.8837 75.0132 71.6369 78.3954 71.6369C81.7775 71.6369 84.5299 68.8846 84.5299 65.5007C84.5307 62.1186 81.7775 59.3663 78.3954 59.3663Z" fill="#474F93"/>
<path d="M104.564 69.6377C105.508 69.6377 106.273 68.8725 106.273 67.9287C106.273 66.9849 105.508 66.2197 104.564 66.2197C103.621 66.2197 102.855 66.9849 102.855 67.9287C102.855 68.8725 103.621 69.6377 104.564 69.6377Z" fill="#474F93"/>
<path d="M80.449 69.6377C81.3928 69.6377 82.1579 68.8725 82.1579 67.9287C82.1579 66.9849 81.3928 66.2197 80.449 66.2197C79.5051 66.2197 78.74 66.9849 78.74 67.9287C78.74 68.8725 79.5051 69.6377 80.449 69.6377Z" fill="#474F93"/>
<path d="M66.6692 44.6222L73.0424 43.6837C73.5858 43.6038 73.8661 42.9898 73.5708 42.5272L70.3841 37.5317C70.073 37.0442 69.3524 37.0708 69.0787 37.5808L65.8921 43.5148C65.5975 44.0631 66.0535 44.7129 66.6692 44.6222Z" fill="#474F93"/>
<path d="M107.863 43.6837L114.236 44.6222C114.852 44.7129 115.309 44.0631 115.014 43.5148L111.828 37.5808C111.554 37.0708 110.833 37.0442 110.522 37.5317L107.336 42.5272C107.04 42.9906 107.32 43.6038 107.863 43.6837Z" fill="#474F93"/>
<path d="M27.4216 135.176C27.4216 146.532 31.8005 157.069 39.0982 165.685H69.1083C55.2244 146.461 48.2471 121.221 48.2471 96.0166C35.4673 105.628 27.4216 119.618 27.4216 135.176Z" fill="#747AAC"/>
<path d="M69.1081 165.958H39.098C39.0181 165.958 38.9416 165.922 38.89 165.863C31.208 156.796 27.1477 146.185 27.1477 135.177C27.1477 120.158 34.779 105.804 48.083 95.8001C48.1653 95.7385 48.2777 95.7277 48.3684 95.7726C48.4607 95.8192 48.5198 95.9132 48.5198 96.0181C48.5198 122.262 55.9098 146.946 69.3294 165.527C69.3893 165.61 69.3976 165.719 69.3511 165.81C69.3045 165.9 69.2104 165.958 69.1081 165.958ZM39.2253 165.413H68.5764C55.3806 146.922 48.078 122.515 47.9756 96.5672C35.0793 106.452 27.6935 120.494 27.6935 135.177C27.6943 146.014 31.6814 156.468 39.2253 165.413Z" fill="#474F93"/>
<path d="M99.7705 165.958H81.1657C81.0151 165.958 80.8928 165.837 80.8928 165.685V131.891C80.8928 129.91 81.655 128.061 83.0378 126.677C83.3756 126.34 83.7641 126.027 84.2284 125.72C84.3507 125.641 84.5221 125.671 84.607 125.799C84.6902 125.925 84.6552 126.093 84.5296 126.176C84.0978 126.462 83.7358 126.752 83.4247 127.063C82.145 128.344 81.4395 130.058 81.4395 131.891V165.413H99.4984V131.891C99.4984 129.599 98.3436 127.464 96.41 126.183C96.2843 126.1 96.2502 125.929 96.3334 125.803C96.4166 125.678 96.5864 125.648 96.7103 125.727C98.7979 127.11 100.043 129.416 100.043 131.891V165.685C100.043 165.837 99.9211 165.958 99.7705 165.958Z" fill="#474F93"/>
<path d="M90.4529 89.7209C87.7571 89.7209 85.0605 89.0013 82.656 87.5619C82.527 87.4845 82.4855 87.3164 82.562 87.1866C82.6402 87.0552 82.8041 87.0161 82.9372 87.0926C87.5724 89.8699 93.3333 89.8699 97.9693 87.0926C98.0991 87.0161 98.2655 87.0552 98.3446 87.1866C98.4211 87.3164 98.3795 87.4836 98.2506 87.5619C95.8452 89.0013 93.1486 89.7209 90.4529 89.7209Z" fill="#474F93"/>
<path d="M15.0357 165.688H51.8675C61.6953 165.688 69.6885 157.692 69.6885 147.865C69.6885 138.037 61.6945 130.041 51.8675 130.041C48.5444 130.041 45.8487 132.735 45.8487 136.06C45.8487 139.385 48.5444 142.079 51.8675 142.079C55.0575 142.079 57.6509 144.675 57.6509 147.865C57.6509 151.054 55.0566 153.65 51.8675 153.65H15.0357C11.7126 153.65 9.01685 156.344 9.01685 159.669C9.01685 162.994 11.7134 165.688 15.0357 165.688Z" fill="#747AAC"/>
<path d="M45.8486 136.061C45.8486 139.381 48.5311 142.063 51.8508 142.063C55.0699 142.063 57.6517 144.678 57.6517 147.864C57.6517 144.544 60.3341 141.828 63.6539 141.828C66.9736 141.828 69.6893 144.544 69.6893 147.864C69.6893 138.039 61.6753 130.025 51.8508 130.025C48.5311 130.025 45.8486 132.741 45.8486 136.061Z" fill="white"/>
<path d="M69.6893 148.137C69.5387 148.137 69.4164 148.016 69.4164 147.864C69.4164 144.687 66.8313 142.102 63.6538 142.102C60.4946 142.102 57.9237 144.687 57.9237 147.864C57.9237 148.016 57.8014 148.137 57.6508 148.137C57.5002 148.137 57.3779 148.016 57.3779 147.864C57.3779 144.816 54.8985 142.335 51.8508 142.335C48.3904 142.335 45.5757 139.52 45.5757 136.059C45.5757 132.581 48.3912 129.752 51.8508 129.752C61.8375 129.752 69.9622 137.877 69.9622 147.863C69.9622 148.016 69.8399 148.137 69.6893 148.137ZM51.8508 130.299C48.6916 130.299 46.1207 132.884 46.1207 136.059C46.1207 139.22 48.6908 141.79 51.8508 141.79C54.5648 141.79 56.8695 143.581 57.6449 146.042C58.4254 143.45 60.8241 141.556 63.6538 141.556C66.0026 141.556 68.0552 142.845 69.141 144.755C67.6683 136.547 60.4755 130.299 51.8508 130.299Z" fill="#474F93"/>
<path d="M51.8675 165.961H15.0356C11.5669 165.961 8.7439 163.14 8.7439 159.67C8.7439 156.199 11.5669 153.378 15.0356 153.378H51.8666C54.906 153.378 57.3779 150.903 57.3779 147.864C57.3779 144.825 54.906 142.353 51.8666 142.353C48.3979 142.353 45.5749 139.529 45.5749 136.059C45.5749 132.59 48.3979 129.768 51.8666 129.768C61.8442 129.768 69.9606 137.886 69.9606 147.864C69.9606 157.842 61.8442 165.961 51.8675 165.961ZM15.0356 153.924C11.8673 153.924 9.2897 156.501 9.2897 159.67C9.2897 162.84 11.8673 165.416 15.0356 165.416H51.8666C61.5422 165.416 69.4156 157.544 69.4156 147.866C69.4156 138.188 61.543 130.315 51.8666 130.315C48.6983 130.315 46.1207 132.892 46.1207 136.061C46.1207 139.23 48.6983 141.809 51.8666 141.809C55.2064 141.809 57.9237 144.526 57.9237 147.866C57.9237 151.207 55.2064 153.924 51.8666 153.924H15.0356Z" fill="#474F93"/>
<path d="M96.1654 80.6113L96.8152 77.1318H95.5156L96.1654 80.6113Z" fill="white"/>
<path d="M84.7404 80.6113L84.0906 77.1318H85.3902L84.7404 80.6113Z" fill="white"/>
<path d="M108.666 63.8143C105.266 62.5156 99.7549 62.5156 96.3552 63.8143C97.099 61.0986 99.5593 59.0918 102.511 59.0918C105.462 59.0926 107.922 61.0995 108.666 63.8143Z" fill="#747AAC"/>
<path d="M108.666 64.0878C108.633 64.0878 108.6 64.0812 108.569 64.0695C105.229 62.7949 99.7932 62.7949 96.451 64.0695C96.3586 64.107 96.2471 64.0862 96.1706 64.0171C96.0949 63.9481 96.0641 63.8416 96.0907 63.7425C96.8845 60.8455 99.5245 58.8203 102.51 58.8203C105.494 58.8203 108.134 60.8446 108.928 63.7425C108.955 63.8416 108.924 63.9481 108.848 64.0171C108.798 64.0629 108.732 64.0878 108.666 64.0878ZM102.511 59.3661C99.9496 59.3661 97.6649 60.9902 96.7821 63.3748C100.073 62.3048 104.948 62.3048 108.239 63.3748C107.355 60.9902 105.072 59.3661 102.511 59.3661Z" fill="#474F93"/>
<path d="M84.5505 63.8143C81.1509 62.5156 75.6396 62.5156 72.24 63.8143C72.9838 61.0986 75.4441 59.0918 78.3953 59.0918C81.3464 59.0918 83.8067 61.0995 84.5505 63.8143Z" fill="#747AAC"/>
<path d="M84.5504 64.0878C84.5171 64.0878 84.4847 64.0812 84.4531 64.0695C81.1117 62.7949 75.6786 62.7949 72.3372 64.0695C72.2465 64.107 72.135 64.0862 72.0568 64.0171C71.9811 63.9481 71.9503 63.8416 71.977 63.7425C72.7707 60.8455 75.4107 58.8203 78.3951 58.8203C81.3796 58.8203 84.0196 60.8446 84.8133 63.7425C84.84 63.8416 84.8092 63.9481 84.7335 64.0171C84.6827 64.0629 84.6178 64.0878 84.5504 64.0878ZM78.3951 62.5727C80.4369 62.5727 82.4779 62.8398 84.1228 63.3748C83.2392 60.9902 80.9561 59.3661 78.3951 59.3661C75.8342 59.3661 73.5511 60.9902 72.6675 63.3748C74.3133 62.8398 76.3534 62.5727 78.3951 62.5727Z" fill="#474F93"/>
<path d="M110.158 74.6625C110.079 74.5327 109.911 74.4928 109.782 74.5685C103.914 78.0855 96.6332 78.1038 90.7417 74.6442V73.1225C91.9373 72.704 93.0946 71.5583 93.4017 70.3993C91.7817 68.8318 89.155 68.8318 87.5351 70.3993C87.8421 71.5583 89.0003 72.704 90.1959 73.1225V74.6276C84.2986 78.1046 77.0026 78.0905 71.1235 74.5685C70.9912 74.4928 70.824 74.5319 70.7483 74.6625C70.6717 74.7923 70.7133 74.9596 70.8423 75.0378C73.8891 76.8607 77.3021 77.7735 80.7175 77.7735C84.0806 77.7735 87.4419 76.879 90.453 75.1093C93.4649 76.8782 96.8246 77.7735 100.188 77.7735C103.603 77.7735 107.017 76.8616 110.064 75.0378C110.193 74.9604 110.234 74.7932 110.158 74.6625Z" fill="#474F93"/>
<path d="M336.435 165.96H0.272902C0.122307 165.96 0 165.838 0 165.687C0 165.536 0.122307 165.414 0.272902 165.414H336.435C336.587 165.414 336.708 165.536 336.708 165.687C336.708 165.838 336.587 165.96 336.435 165.96Z" fill="#474F93"/>
<path d="M336.188 104.409H323.932C323.78 104.409 323.659 104.531 323.659 104.682C323.659 104.834 323.78 104.955 323.932 104.955H336.188C347.503 104.955 356.708 114.16 356.708 125.474C356.708 136.789 347.503 145.994 336.188 145.994H312.111C311.96 145.994 311.838 146.115 311.838 146.266C311.838 146.418 311.96 146.539 312.111 146.539H336.188C347.803 146.539 357.253 137.089 357.253 125.474C357.253 113.859 347.803 104.409 336.188 104.409Z" fill="#474F93"/>
<path d="M309.058 150.274C307.225 150.274 305.733 148.475 305.733 146.265C305.733 144.056 307.225 142.257 309.058 142.257C310.892 142.257 312.385 144.056 312.385 146.265C312.384 148.475 310.892 150.274 309.058 150.274ZM309.058 142.802C307.525 142.802 306.279 144.355 306.279 146.265C306.279 148.174 307.526 149.728 309.058 149.728C310.592 149.728 311.839 148.174 311.839 146.265C311.838 144.356 310.592 142.802 309.058 142.802Z" fill="#474F93"/>
<path d="M309.058 148.302C309.977 148.302 310.722 147.391 310.722 146.266C310.722 145.142 309.977 144.23 309.058 144.23C308.139 144.23 307.394 145.142 307.394 146.266C307.394 147.391 308.139 148.302 309.058 148.302Z" fill="#474F93"/>
<path d="M179.625 150.301H153.453C151.042 150.301 149.088 148.346 149.088 145.936V119.763C149.088 117.353 151.042 115.398 153.453 115.398H179.625C182.036 115.398 183.99 117.353 183.99 119.763V145.936C183.99 148.346 182.036 150.301 179.625 150.301Z" fill="#696E93"/>
<path d="M166.538 143.773C160.506 143.773 155.616 138.883 155.616 132.851C155.616 126.818 160.506 121.929 166.538 121.929C172.571 121.929 177.46 126.818 177.46 132.851C177.46 138.883 172.571 143.773 166.538 143.773Z" fill="white"/>
<path d="M166.538 144.044C160.367 144.044 155.344 139.023 155.344 132.851C155.344 126.677 160.367 121.655 166.538 121.655C172.71 121.655 177.732 126.677 177.732 132.851C177.732 139.023 172.71 144.044 166.538 144.044ZM166.538 122.201C160.667 122.201 155.889 126.979 155.889 132.851C155.889 138.722 160.667 143.498 166.538 143.498C172.41 143.498 177.187 138.722 177.187 132.851C177.187 126.979 172.41 122.201 166.538 122.201Z" fill="#474F93"/>
<path d="M163.2 136.853C163.049 136.853 162.927 136.732 162.927 136.58V129.119C162.927 128.967 163.049 128.846 163.2 128.846C163.351 128.846 163.473 128.967 163.473 129.119V136.58C163.473 136.732 163.351 136.853 163.2 136.853Z" fill="#474F93"/>
<path d="M169.878 136.853C169.728 136.853 169.605 136.732 169.605 136.58V129.119C169.605 128.967 169.728 128.846 169.878 128.846C170.029 128.846 170.151 128.967 170.151 129.119V136.58C170.151 136.732 170.028 136.853 169.878 136.853Z" fill="#474F93"/>
<path d="M172.942 102.746H168.537V93.9346L161.928 104.949H166.334V113.761L172.942 102.746Z" fill="#747AAC"/>
<path d="M179.789 107.546L173.049 111.287L175.339 112.61L172.695 117.19L179.435 113.448L177.145 112.126L179.789 107.546Z" fill="#747AAC"/>
<path d="M161.159 110.142L158.87 111.464L156.225 106.885L156.096 114.593L158.385 113.271L161.03 117.85L161.159 110.142Z" fill="#747AAC"/>
<path d="M78.2351 77.5146C75.0044 79.9783 72.5757 83.4902 71.4991 87.6387L68.5196 99.1072C68.4822 99.252 68.5696 99.4009 68.716 99.44C68.8574 99.4825 69.0097 99.3909 69.0488 99.2437L72.0283 87.7751C73.1315 83.5276 75.7 79.9749 79.0963 77.5721C78.8092 77.5471 78.5214 77.5529 78.2351 77.5146Z" fill="#474F93"/>
<path d="M251.169 37.3779C229.539 37.3779 210.559 52.7304 206.039 73.8844L187.73 159.564C184.413 175.08 170.494 186.339 154.63 186.339C138.454 186.339 124.479 174.812 121.402 158.932L107.81 88.7784C106.927 84.2215 104.405 80.3276 100.939 77.6335C100.655 77.6443 100.374 77.6768 100.091 77.6751C103.721 80.2968 106.375 84.2364 107.276 88.8833L120.868 159.034C123.994 175.172 138.194 186.885 154.631 186.885C170.751 186.885 184.896 175.442 188.263 159.68L206.572 73.9993C211.039 53.0956 229.795 37.9246 251.169 37.9246C251.32 37.9246 251.441 37.8023 251.441 37.6517C251.441 37.5011 251.32 37.3779 251.169 37.3779Z" fill="#474F93"/>
<path d="M68.8105 98.9626C65.8343 98.3944 62.9605 100.346 62.3914 103.322L61.5486 107.733L72.3274 109.792L73.1702 105.382C73.7385 102.405 71.7866 99.5309 68.8105 98.9626Z" fill="white"/>
<path d="M73.6959 109.776L72.6467 109.576L73.438 105.433C74.0337 102.313 71.9811 99.291 68.8619 98.6936C65.7451 98.1053 62.7199 100.151 62.1242 103.271L61.3321 107.412L60.2821 107.212C60.1348 107.19 59.9909 107.283 59.9634 107.429C59.9343 107.576 60.0316 107.718 60.1797 107.748L64.0054 108.48L62.9994 113.741C62.9703 113.889 63.0677 114.031 63.2158 114.061C63.2324 114.063 63.2499 114.065 63.2665 114.065C63.3955 114.065 63.5095 113.974 63.5336 113.844L64.5395 108.582L66.8858 109.031L69.2329 109.479L68.2279 114.739C68.1987 114.886 68.2961 115.029 68.4442 115.059C68.4608 115.061 68.4783 115.063 68.4949 115.063C68.6239 115.063 68.7379 114.971 68.762 114.841L69.7671 109.581L72.2748 110.061C72.2756 110.061 72.2765 110.061 72.2773 110.061L73.5919 110.312C73.6085 110.314 73.626 110.316 73.6426 110.316C73.7716 110.316 73.8856 110.225 73.9097 110.095C73.9405 109.948 73.844 109.806 73.6959 109.776ZM62.6591 103.374C63.1991 100.55 65.9398 98.6828 68.7595 99.2302C71.5826 99.7694 73.4405 102.506 72.903 105.33L72.1109 109.472L68.4508 108.773L61.8687 107.514L62.6591 103.374Z" fill="#474F93"/>
<path d="M263.279 50.4154C262.347 50.4154 261.59 49.6574 261.59 48.7272C261.59 47.797 262.347 47.0391 263.279 47.0391C264.208 47.0391 264.964 47.797 264.964 48.7272C264.964 49.6574 264.208 50.4154 263.279 50.4154ZM263.279 47.5857C262.648 47.5857 262.136 48.0982 262.136 48.7281C262.136 49.3579 262.648 49.8704 263.279 49.8704C263.908 49.8704 264.418 49.3579 264.418 48.7281C264.418 48.0982 263.907 47.5857 263.279 47.5857Z" fill="#DDE7F2"/>
<path d="M263.279 30.348C262.347 30.348 261.59 29.59 261.59 28.6598C261.59 27.7296 262.347 26.9717 263.279 26.9717C264.208 26.9717 264.964 27.7296 264.964 28.6598C264.964 29.59 264.208 30.348 263.279 30.348ZM263.279 27.5175C262.648 27.5175 262.136 28.03 262.136 28.6598C262.136 29.2897 262.648 29.8022 263.279 29.8022C263.908 29.8022 264.418 29.2897 264.418 28.6598C264.418 28.03 263.907 27.5175 263.279 27.5175Z" fill="#DDE7F2"/>
<path d="M263.278 47.5871C263.127 47.5871 263.005 47.4648 263.005 47.3142V30.0756C263.005 29.925 263.127 29.8027 263.278 29.8027C263.429 29.8027 263.551 29.925 263.551 30.0756V47.3142C263.551 47.464 263.429 47.5871 263.278 47.5871Z" fill="#DDE7F2"/>
<path d="M263.277 45.1822C261.965 45.1822 260.9 44.1181 260.9 42.806V34.5823C260.9 33.2702 261.965 32.2061 263.277 32.2061C264.589 32.2061 265.653 33.2702 265.653 34.5823V42.806C265.653 44.1189 264.589 45.1822 263.277 45.1822Z" fill="white"/>
<path d="M263.278 45.4546C261.818 45.4546 260.629 44.2665 260.629 42.8054V34.5818C260.629 33.1207 261.818 31.9326 263.278 31.9326C264.738 31.9326 265.927 33.1207 265.927 34.5818V42.8054C265.927 44.2665 264.737 45.4546 263.278 45.4546ZM263.278 32.4784C262.119 32.4784 261.174 33.4228 261.174 34.5818V42.8054C261.174 43.9644 262.119 44.9088 263.278 44.9088C264.437 44.9088 265.381 43.9644 265.381 42.8054V34.5818C265.381 33.4228 264.437 32.4784 263.278 32.4784Z" fill="#DDE7F2"/>
<path d="M263.278 60.6891C263.127 60.6891 263.005 60.5668 263.005 60.4162V53.1069C263.005 52.9563 263.127 52.834 263.278 52.834C263.43 52.834 263.551 52.9563 263.551 53.1069V60.4162C263.551 60.5668 263.43 60.6891 263.278 60.6891Z" fill="#DDE7F2"/>
<path d="M263.278 24.7386C263.127 24.7386 263.005 24.6164 263.005 24.4658V14.9741C263.005 14.8235 263.127 14.7012 263.278 14.7012C263.43 14.7012 263.551 14.8235 263.551 14.9741V24.4658C263.551 24.6164 263.43 24.7386 263.278 24.7386Z" fill="#DDE7F2"/>
<path d="M260.655 8.99452C260.584 8.99452 260.514 8.9679 260.461 8.91465C260.356 8.80815 260.356 8.63509 260.461 8.52859L265.709 3.28105C265.815 3.17455 265.99 3.17455 266.096 3.28105C266.201 3.38754 266.201 3.56061 266.096 3.6671L260.85 8.91465C260.796 8.9679 260.726 8.99452 260.655 8.99452Z" fill="white"/>
<path d="M265.903 8.99452C265.832 8.99452 265.762 8.9679 265.709 8.91465L260.461 3.6671C260.356 3.56061 260.356 3.38754 260.461 3.28105C260.568 3.17455 260.742 3.17455 260.849 3.28105L266.096 8.52859C266.2 8.63509 266.2 8.80815 266.096 8.91465C266.043 8.9679 265.973 8.99452 265.903 8.99452Z" fill="white"/>
<path d="M276.51 17.3506L269.631 24.2297C269.581 24.2805 269.552 24.3504 269.552 24.4228V60.4151C269.552 60.5657 269.674 60.688 269.825 60.688C269.977 60.688 270.098 60.5657 270.098 60.4151V24.5359L276.896 17.7375C276.741 17.6335 276.614 17.5053 276.51 17.3506Z" fill="#DDE7F2"/>
<path d="M277.666 18.2679C276.735 18.2679 275.978 17.51 275.978 16.5798C275.978 15.6496 276.734 14.8916 277.666 14.8916C278.598 14.8916 279.354 15.6496 279.354 16.5798C279.354 17.5108 278.597 18.2679 277.666 18.2679ZM277.666 15.4382C277.036 15.4382 276.524 15.9508 276.524 16.5806C276.524 17.2104 277.036 17.723 277.666 17.723C278.297 17.723 278.809 17.2104 278.809 16.5806C278.809 15.9508 278.297 15.4382 277.666 15.4382Z" fill="#DDE7F2"/>
<path d="M278.692 30.4453L276.178 32.9597C276.128 33.0104 276.099 33.0803 276.099 33.1527V60.4155C276.099 60.5661 276.221 60.6884 276.372 60.6884C276.524 60.6884 276.645 60.5661 276.645 60.4155V33.2659L279.079 30.8322C278.923 30.7282 278.796 30.6009 278.692 30.4453Z" fill="#DDE7F2"/>
<path d="M279.848 31.3636C278.917 31.3636 278.16 30.6057 278.16 29.6755C278.16 28.7453 278.916 27.9873 279.848 27.9873C280.779 27.9873 281.536 28.7453 281.536 29.6755C281.536 30.6057 280.779 31.3636 279.848 31.3636ZM279.848 28.5331C279.218 28.5331 278.706 29.0456 278.706 29.6755C278.706 30.3053 279.218 30.8178 279.848 30.8178C280.479 30.8178 280.991 30.3053 280.991 29.6755C280.991 29.0456 280.479 28.5331 279.848 28.5331Z" fill="#DDE7F2"/>
<path d="M256.925 24.2297L250.045 17.3506C249.941 17.5062 249.814 17.6335 249.658 17.7375L256.459 24.5359V60.4151C256.459 60.5657 256.58 60.688 256.731 60.688C256.883 60.688 257.004 60.5657 257.004 60.4151V24.4228C257.004 24.3504 256.976 24.2813 256.925 24.2297Z" fill="#DDE7F2"/>
<path d="M248.888 18.2679C247.957 18.2679 247.2 17.51 247.2 16.5798C247.2 15.6496 247.956 14.8916 248.888 14.8916C249.82 14.8916 250.576 15.6496 250.576 16.5798C250.576 17.5108 249.82 18.2679 248.888 18.2679ZM248.888 15.4382C248.257 15.4382 247.746 15.9508 247.746 16.5806C247.746 17.2104 248.257 17.723 248.888 17.723C249.519 17.723 250.03 17.2104 250.03 16.5806C250.03 15.9508 249.519 15.4382 248.888 15.4382Z" fill="#DDE7F2"/>
<path d="M250.376 32.9598L247.861 30.4463C247.758 30.6002 247.631 30.7275 247.477 30.8307L249.912 33.2652V60.4148C249.912 60.5654 250.033 60.6877 250.184 60.6877C250.336 60.6877 250.457 60.5654 250.457 60.4148V33.152C250.457 33.0805 250.429 33.0114 250.376 32.9598Z" fill="#DDE7F2"/>
<path d="M246.705 31.3636C245.774 31.3636 245.017 30.6057 245.017 29.6755C245.017 28.7453 245.774 27.9873 246.705 27.9873C247.637 27.9873 248.394 28.7453 248.394 29.6755C248.394 30.6057 247.637 31.3636 246.705 31.3636ZM246.705 28.5331C246.075 28.5331 245.563 29.0456 245.563 29.6755C245.563 30.3053 246.075 30.8178 246.705 30.8178C247.336 30.8178 247.848 30.3053 247.848 29.6755C247.848 29.0456 247.336 28.5331 246.705 28.5331Z" fill="#DDE7F2"/>
</svg>

