<svg width="615" height="304" viewBox="0 0 615 304" fill="none" xmlns="http://www.w3.org/2000/svg">
<path d="M97.4563 123.067C97.8428 125.603 98.9591 128.01 100.698 129.901C102.802 132.222 106.731 126.656 104.949 124.722C103.446 123.067 102.544 121.198 102.222 118.984C101.986 117.351 99.9896 117.953 99.1738 118.64C97.8642 119.715 97.1987 121.413 97.4563 123.067Z" fill="#03ACB8"/>
<path d="M539.672 296.591C543.623 297.923 547.702 295.667 549.527 292.035C550.063 290.982 550.836 288.833 549.462 288.038C548.152 287.286 546.478 288.962 545.963 289.972C545.812 290.273 545.92 290.337 545.984 290.058C545.941 290.208 545.641 290.423 545.92 290.165C545.662 290.402 545.641 290.423 545.19 290.595C544.61 290.81 543.751 290.853 543.129 290.638C541.647 290.144 540.338 291.347 539.629 292.572C539.136 293.389 538.191 296.096 539.672 296.591Z" fill="#03ACB8"/>
<path d="M487.267 132.909C487.567 134.177 487.503 135.423 486.687 136.433C485.85 137.465 484.884 139.549 485.829 140.817C486.795 142.085 488.512 140.881 489.221 140C491.775 136.863 492.956 132.802 492.033 128.826C491.668 127.257 489.886 127.73 488.984 128.482C487.761 129.492 486.88 131.319 487.267 132.909Z" fill="#F05036"/>
<path d="M545.877 218.542C550.965 219.703 555.796 215.663 557.427 211.064C557.835 209.925 558.007 207.991 556.44 207.712C554.937 207.454 553.498 209.474 553.09 210.656C552.897 211.215 552.468 211.687 551.609 212.053C550.514 212.525 549.398 212.504 548.26 212.246C545.684 211.687 542.807 217.855 545.877 218.542Z" fill="#03ACB8"/>
<path d="M586.26 99.1714C583.276 102.051 582.181 105.854 583.898 109.744C585.809 114.02 592.443 116.32 592.958 121.004C593.409 125.066 598.197 120.897 597.896 118.254C597.553 115.181 596.221 113.096 593.946 111.012C592.765 109.916 591.37 109.013 590.275 107.831C589.824 107.337 587.591 103.942 587.591 103.942C588.579 102.975 589.953 100.976 589.287 99.5152C588.686 98.1614 587.29 98.1614 586.26 99.1714Z" fill="#F6B11A"/>
<path d="M1.66205 117.416C3.31516 118.211 6.0417 119.436 5.80555 121.37C5.54792 123.411 4.06657 124.765 4.19538 127.107C4.45301 131.362 7.9095 134.435 11.1084 136.82C13.2767 138.432 16.862 132.587 14.5434 130.868C12.7615 129.536 9.92757 127.494 9.36938 125.152C8.8756 123.089 10.8507 121.219 11.0225 119.157C11.366 115.289 8.253 112.989 5.11854 111.485C2.52081 110.239 -0.82834 116.234 1.66205 117.416Z" fill="#6268B0"/>
<path d="M56.6009 214.697C54.1534 211.839 50.2031 213.644 48.1851 216.093C44.9647 220.004 46.167 224.603 48.1421 228.707C48.8506 230.169 50.9546 228.6 51.5342 227.891C52.5433 226.666 53.1015 224.99 52.393 223.507C51.9851 222.648 51.5986 221.788 51.341 220.885C51.2122 220.456 51.2337 219.875 51.0619 219.467C51.0619 219.317 51.0619 219.188 51.0619 219.037C50.976 219.252 50.8687 219.446 50.6969 219.596C50.5681 220.133 50.3534 219.661 50.6969 219.682C50.8472 219.682 51.1478 219.489 51.3195 219.467C51.7274 219.446 52.0709 219.553 52.3286 219.854C54.3681 222.239 58.3184 216.695 56.6009 214.697Z" fill="#F36F45"/>
<path d="M397.033 28.7737C399.845 26.0016 405.578 22.198 405.728 17.7068C405.771 16.1167 405.105 15.3645 404.161 14.2256C402.808 12.614 400.962 12.2701 403.366 9.84188C404.397 8.8104 406.415 8.46658 407.746 8.01531C410.151 7.22022 412.126 0.773527 408.905 1.84798C403.731 3.58858 398.879 6.12428 397.505 11.8833C396.99 14.0107 397.097 16.353 398.45 18.1581C398.643 18.3945 400.447 19.8987 400.318 19.426C400.447 19.9202 396.174 23.5089 395.681 24.0031C394.693 24.9701 393.298 26.9471 393.985 28.4298C394.586 29.7836 396.003 29.8051 397.033 28.7737Z" fill="#F6B11A"/>
<path d="M175.839 6.94081C177.363 8.91779 179.339 9.75586 181.7 10.422C182.774 10.7229 183.954 10.9163 184.942 11.4105C185.393 11.6254 187.862 13.2156 187.926 13.4949C187.99 13.7958 186.423 15.9662 186.273 16.5464C186.08 17.2985 185.929 17.9432 186.08 18.7383C186.595 21.2095 189.923 23.208 191.662 24.8196C193.98 26.9685 197.802 21.3814 195.913 19.6408C194.946 18.7383 193.572 16.8902 192.37 16.3745C191.554 15.0851 190.91 15.3215 190.438 17.0836C190.846 16.6538 191.211 16.2026 191.511 15.6868C192.671 13.8388 193.1 11.6039 192.306 9.54097C190.137 3.93235 183.246 5.86636 180.09 1.78345C178.222 -0.666293 174.207 4.83489 175.839 6.94081Z" fill="#F36F45"/>
<path d="M26.4586 298.826C29.3998 304.048 35.1535 304.262 39.7908 301.404C41.2507 300.523 42.6891 299.363 44.5139 299.127C45.48 298.998 46.575 299.492 47.5625 299.449C48.6574 299.406 49.7309 299.148 50.697 298.589C52.6936 297.45 53.6812 295.452 53.4879 293.26C53.2733 290.832 50.3964 293.325 50.5252 294.915C50.5896 295.774 44.8574 295.237 44.0631 295.366C42.5173 295.624 41.5727 296.312 40.3705 297.257C36.5061 300.266 31.697 300.523 28.9919 295.71C28.1761 294.184 25.6857 297.407 26.4586 298.826Z" fill="#F6B11A"/>
<path d="M455.536 68.8509C454.656 63.9085 449.782 60.1479 444.737 61.4372C440.014 62.6621 436.965 67.3252 436.794 72.0313C436.708 74.4381 439.713 71.9454 439.756 70.3767C439.885 66.5086 443.749 64.2093 447.313 65.2193C450.19 66.0359 452.144 68.3782 452.68 71.3007C453.045 73.2777 455.815 70.3552 455.536 68.8509Z" fill="#6268B0"/>
<path d="M614.363 12.2918C611.314 9.13292 612.409 0.129042 606.398 0.0215966C604.573 -0.0213814 603.242 1.07456 602.018 2.34241C600.644 3.76068 599.506 5.52278 597.209 5.22193C595.127 4.94257 593.538 3.09452 593.473 1.03158C593.409 -1.39668 590.468 1.09605 590.511 2.68623C590.618 7.22041 595.449 10.6586 599.678 8.31634C602.512 6.72616 605.367 1.3754 608.158 6.18893C609.897 9.19739 609.275 12.7646 611.829 15.4077C613.117 16.74 615.436 13.4092 614.363 12.2918Z" fill="#F36F45"/>
<path d="M81.8054 64.3812C85.4981 62.7481 89.8992 63.8225 92.6043 66.7665C93.871 68.1418 96.2111 64.811 95.1591 63.6506C91.6811 59.8256 86.4427 58.8801 81.7625 60.9645C80.3026 61.6306 79.5727 65.3697 81.8054 64.3812Z" fill="#03ACB8"/>
<path d="M501.007 38.9167C499.826 37.0257 504.828 38.3365 505.279 38.5944C506.546 39.3035 507.598 40.378 508.8 41.1946C510.346 42.2475 511.806 42.9781 513.716 42.8492C516.958 42.6128 519.685 40.0127 519.449 36.6819C519.277 34.2536 516.357 36.7463 516.486 38.3365C516.572 39.5614 513.309 39.0027 512.729 38.7878C511.226 38.2506 509.959 36.9183 508.693 35.9727C506.803 34.576 504.742 33.4585 502.359 34.2106C499.246 35.1991 496.563 38.9597 498.452 42.0326C499.397 43.5154 501.866 40.2705 501.007 38.9167Z" fill="#03ACB8"/>
<path d="M243.895 77.6186C240.911 74.6531 246.901 73.2133 248.876 72.9125C251.603 72.5042 253.964 72.0529 256.219 70.3768C257.657 69.3238 257.593 65.9071 255.403 67.5187C251.667 70.2693 246.472 68.5287 242.908 71.967C240.697 74.0944 238.764 78.1773 241.341 80.7345C242.672 82.0668 244.99 78.7145 243.895 77.6186Z" fill="#F6B11A"/>
</svg>
